<?xml version="1.0" standalone="no"?>
<!DOCTYPE svg PUBLIC "-//W3C//DTD SVG 1.1//EN" "http://www.w3.org/Graphics/SVG/1.1/DTD/svg11.dtd" >
<svg xmlns="http://www.w3.org/2000/svg">
<metadata></metadata>
<defs>
<font id="mco-capslight" horiz-adv-x="1024" >
<font-face units-per-em="2048" ascent="1638" descent="-410" />
<missing-glyph horiz-adv-x="409" />
<glyph horiz-adv-x="2048" />
<glyph horiz-adv-x="2048" />
<glyph horiz-adv-x="682" />
<glyph unicode="&#xd;" horiz-adv-x="409" />
<glyph unicode=" "  horiz-adv-x="409" />
<glyph unicode="&#x09;" horiz-adv-x="409" />
<glyph unicode="&#xa0;" horiz-adv-x="409" />
<glyph unicode="!" horiz-adv-x="458" d="M152 63q0 33 23.5 56.5t53.5 23.5q31 0 54.5 -23.5t23.5 -56.5t-23.5 -55t-54.5 -22q-30 0 -53.5 23.5t-23.5 53.5zM184 1393h90l-14 -1045h-61z" />
<glyph unicode="&#x22;" horiz-adv-x="460" d="M86 1393h84l-10 -396h-64zM291 1393h84l-10 -396h-64z" />
<glyph unicode="#" d="M106 621v69h185l63 254h-184v70h201l59 235h74l-60 -235h228l59 235h74l-60 -235h170v-70h-186l-63 -254h184v-69h-203l-55 -228h-76l57 228h-227l-55 -228h-74l57 228h-168zM365 690h227l63 254h-227z" />
<glyph unicode="$" d="M125 211l68 33q35 -80 108.5 -128t171.5 -59v447l-24 8q-139 41 -205 101.5t-66 172.5q0 106 86 171t209 73v219h70v-221q96 -10 174 -63.5t110 -122.5l-63 -35q-70 135 -221 151v-395l39 -12q152 -45 222 -114.5t70 -180.5q0 -127 -87 -197.5t-244 -74.5v-230h-70v234 q-121 12 -213 71.5t-135 151.5zM258 786q0 -86 46 -125.5t163 -74.5l6 -2v377q-96 -7 -155.5 -50t-59.5 -125zM543 53q252 6 252 203q0 88 -53.5 136t-178.5 85l-20 6v-430z" />
<glyph unicode="%" horiz-adv-x="1536" d="M88 739q0 82 41 148.5t108.5 104.5t143.5 38t142.5 -38t107.5 -104.5t41 -148.5t-41 -148.5t-107.5 -104t-142.5 -37.5t-143.5 37.5t-108.5 104t-41 148.5zM164 739q0 -98 63.5 -160.5t153.5 -62.5t152.5 62.5t62.5 160.5t-62.5 160t-152.5 62q-92 0 -154.5 -61.5 t-62.5 -160.5zM412 0l630 1014h82l-630 -1014h-82zM864 274q0 82 40 148.5t107.5 104.5t143.5 38t143.5 -38t107.5 -104.5t40 -148.5t-40 -148.5t-107.5 -104t-143.5 -37.5t-143.5 37.5t-107.5 104.5t-40 148zM940 274q0 -98 62.5 -160.5t152.5 -62.5t152.5 62.5t62.5 160.5 q0 96 -62.5 159t-152.5 63t-152.5 -62.5t-62.5 -159.5z" />
<glyph unicode="&#x26;" horiz-adv-x="962" d="M78 258q0 119 68.5 190.5t201.5 145.5l-29 35q-82 96 -81 196q0 86 57 143.5t147 57.5q88 0 145.5 -57.5t57.5 -143.5q0 -129 -188 -241l243 -297q48 112 48 264h73q0 -190 -69 -326l184 -225h-96l-131 158q-123 -170 -330 -170q-135 0 -218 73.5t-83 196.5zM160 258 q0 -92 59.5 -145.5t159.5 -53.5q180 0 283 156l-273 330q-115 -64 -172 -125.5t-57 -161.5zM315 825q0 -70 64 -149l37 -43q153 92 153 192q0 57 -35.5 94t-91.5 37q-57 0 -92 -35.5t-35 -95.5z" />
<glyph unicode="'" horiz-adv-x="256" d="M86 1393h84l-10 -396h-64z" />
<glyph unicode="(" horiz-adv-x="614" d="M123 696q0 250 95 456t243 357l53 -47q-141 -154 -224 -339t-83 -427t83 -426t224 -340l-53 -47q-338 346 -338 813z" />
<glyph unicode=")" horiz-adv-x="614" d="M98 -70q142 154 225 339.5t83 426.5q0 242 -83 426.5t-225 339.5l54 47q338 -346 337 -813q0 -250 -95 -455.5t-242 -357.5z" />
<glyph unicode="*" horiz-adv-x="776" d="M113 977l243 113l-243 112l37 66l217 -140l-17 265h76l-16 -265l217 140l37 -66l-244 -112l242 -113l-35 -66l-217 140l16 -269h-76l17 269l-217 -140z" />
<glyph unicode="+" d="M168 465v74h305v331h78v-331h305v-74h-305v-332h-78v332h-305z" />
<glyph unicode="," horiz-adv-x="409" d="M102 -227l80 219q-24 6 -41.5 26.5t-17.5 49.5q0 33 25.5 57.5t56.5 24.5q33 0 57.5 -25t24.5 -57q0 -23 -8 -39l-125 -256h-52z" />
<glyph unicode="-" horiz-adv-x="569" d="M104 426v74h359v-74h-359z" />
<glyph unicode="." horiz-adv-x="409" d="M123 68q0 35 24.5 58.5t57.5 23.5t57.5 -24t24.5 -58q0 -33 -24.5 -57.5t-57.5 -24.5q-31 0 -56.5 24.5t-25.5 57.5z" />
<glyph unicode="/" horiz-adv-x="901" d="M59 -262l637 1741h84l-637 -1741h-84z" />
<glyph unicode="0" d="M88 508q0 152 51 270.5t147.5 185t223.5 66.5q129 0 225 -66.5t147.5 -185.5t51.5 -270q0 -150 -50 -269.5t-146.5 -187t-227.5 -67.5q-129 0 -225.5 67.5t-146.5 187t-50 269.5zM172 508q0 -207 91 -329t247 -122t248 123t92 328q0 209 -92 328.5t-248 119.5 t-247 -119.5t-91 -328.5z" />
<glyph unicode="1" d="M186 0v72h285v870h-272v72h354v-942h266v-72h-633z" />
<glyph unicode="2" d="M164 0v14l430 437q147 152 147 297q0 94 -53 152t-153 58q-94 0 -158 -56t-88 -157l-74 15q20 119 106.5 194.5t213.5 75.5q133 0 210.5 -78t77.5 -204q0 -168 -170 -342l-241 -246q-23 -23 -61 -54.5t-50 -42.5q12 2 55 5.5t78 3.5h404v-72h-674z" />
<glyph unicode="3" d="M139 182l66 37q96 -164 284 -164q131 0 206 78t75 197t-78 191.5t-211 72.5q-66 0 -119 -21l-6 9l258 290q14 18 43 45t39 35q-12 -2 -50 -6t-66 -4h-355v72h590v-15l-250 -280q-18 -23 -39.5 -41.5t-27.5 -22.5q104 0 184 -41t124 -115.5t44 -168.5q0 -98 -46 -177 t-127 -124t-185 -45q-121 0 -213.5 56t-139.5 142z" />
<glyph unicode="4" d="M123 199v47l639 778h14v-756h107v-69h-107v-199h-82v199h-571zM219 260q12 2 46 5t71 3h358v439q0 43 4 91t7 66l-36 -54t-63 -85l-313 -383q-23 -29 -44.5 -51.5t-29.5 -30.5z" />
<glyph unicode="5" d="M154 178l65 39q102 -162 275 -162q135 0 207.5 77t72.5 204q0 123 -75.5 199.5t-202.5 76.5q-154 0 -246 -86l-8 4v486h540v-72h-467v-309q80 47 187 47q102 0 182 -45t125 -124t45 -177q0 -156 -96 -254t-264 -98q-113 0 -204 55t-136 139z" />
<glyph unicode="6" d="M158 330q0 117 82 235l325 449h90l-196 -269q-23 -33 -62 -75.5t-51 -57.5q92 63 189 64q92 0 166.5 -46t118.5 -125t44 -173q0 -96 -45 -176t-126 -126t-181 -46q-102 0 -183 45t-126 123.5t-45 177.5zM238 332q0 -121 74.5 -199t199.5 -78q123 0 197.5 78t74.5 199 q0 119 -73.5 197.5t-198.5 78.5q-123 0 -198.5 -79.5t-75.5 -196.5z" />
<glyph unicode="7" d="M168 944v72h694v-8l-502 -1008h-86l474 944h-580z" />
<glyph unicode="8" d="M152 291q0 111 65.5 183.5t175.5 96.5q-74 25 -117 79.5t-43 135.5q0 102 80 173t199 71t199 -70.5t80 -173.5q0 -82 -44.5 -136t-117.5 -79q113 -25 178 -97.5t65 -182.5q0 -86 -46 -157t-129 -110.5t-185 -39.5t-185 39.5t-129 110.5t-46 157zM233 293q0 -106 77 -172 t202 -66t202 66.5t77 171.5q0 111 -76 176.5t-203 65.5q-125 0 -202 -66t-77 -176zM313 786q0 -84 53.5 -133t145.5 -49t145.5 49t53.5 133q0 76 -54.5 126.5t-144.5 50.5t-144.5 -50.5t-54.5 -126.5z" />
<glyph unicode="9" d="M156 684q0 96 45 175t127 125t184 46t182 -44t125 -123t45 -177q0 -125 -82 -244l-313 -442h-90l219 309q18 27 46 55.5t36 36.5q-84 -66 -193 -65q-92 0 -167.5 46t-119.5 126t-44 176zM236 684q0 -121 74.5 -201t201.5 -80q123 0 197.5 81t74.5 200q0 117 -73.5 197 t-198.5 80t-200.5 -80t-75.5 -197z" />
<glyph unicode=":" horiz-adv-x="409" d="M123 68q0 35 25.5 59.5t56.5 24.5q33 0 57.5 -25t24.5 -59q0 -33 -24.5 -57.5t-57.5 -24.5q-31 0 -56.5 24.5t-25.5 57.5zM123 520q0 35 25.5 59.5t56.5 24.5q33 0 57.5 -24.5t24.5 -59.5q0 -33 -24.5 -57.5t-57.5 -24.5q-31 0 -56.5 24.5t-25.5 57.5z" />
<glyph unicode=";" horiz-adv-x="409" d="M102 -227l80 219q-24 6 -41.5 26.5t-17.5 49.5q0 33 25.5 57.5t56.5 24.5q33 0 57.5 -25t24.5 -57q0 -23 -8 -39l-125 -256h-52zM123 520q0 35 25.5 59.5t56.5 24.5q33 0 57.5 -24.5t24.5 -59.5q0 -33 -24.5 -57.5t-57.5 -24.5q-31 0 -56.5 24.5t-25.5 57.5z" />
<glyph unicode="&#x3c;" d="M168 489v21l631 311v-80l-498 -243l498 -246v-78z" />
<glyph unicode="=" d="M168 348v74h688v-74h-688zM168 580v73h688v-73h-688z" />
<glyph unicode="&#x3e;" d="M225 174v80l498 244l-498 245v78l631 -315v-21z" />
<glyph unicode="?" horiz-adv-x="919" d="M49 1161q47 119 147.5 183.5t233.5 64.5q168 0 274.5 -101.5t106.5 -279.5q0 -106 -49 -190t-135 -134.5t-193 -54.5v-309h-78v379h56q92 0 163.5 41t111.5 111.5t40 156.5q0 145 -82 225t-215 80q-113 0 -186.5 -48t-124.5 -159zM315 63q0 33 23.5 56.5t54.5 23.5 t54.5 -23.5t23.5 -56.5t-23.5 -55t-54.5 -22t-54.5 23.5t-23.5 53.5z" />
<glyph unicode="@" horiz-adv-x="1777" d="M111 379q0 223 104 406.5t283.5 289t392.5 105.5q217 0 395 -100.5t279.5 -273.5t101.5 -380q0 -221 -82 -329.5t-207 -108.5q-94 0 -150.5 54t-64.5 153q-90 -211 -303 -211q-100 0 -182 50t-129 137t-47 196q0 111 47 199.5t129 140t182 51.5q102 0 179 -54.5 t118 -146.5l-4 182h80v-481q0 -100 33.5 -151.5t111.5 -51.5q94 0 152.5 91.5t58.5 279.5q0 182 -86 339t-244.5 251t-367.5 94q-203 0 -362.5 -98.5t-249 -266t-89.5 -366.5q0 -203 89.5 -370t249 -264t362.5 -97q195 0 342 92l37 -62q-162 -100 -379 -100 q-215 0 -393.5 102.5t-282.5 284.5t-104 414zM584 367q0 -86 35.5 -158t100 -114t146.5 -42q80 0 146.5 42t104.5 114t38 158q0 88 -38 161.5t-104.5 116.5t-146.5 43q-82 0 -146.5 -43t-100 -116.5t-35.5 -161.5z" />
<glyph unicode="A" horiz-adv-x="1333" d="M90 0l563 1409h25l565 -1409h-86l-106 270h-770l-107 -270h-84zM309 344h711l-313 795q-13 30 -25 72t-16 55q-4 -12 -16.5 -54.5t-24.5 -72.5z" />
<glyph unicode="B" horiz-adv-x="1245" d="M211 0v1393h442q187 0 280 -92.5t93 -241.5q0 -227 -172 -287q131 -31 210 -131t79 -242q0 -178 -107.5 -288.5t-320.5 -110.5h-504zM295 74h410q184 0 269 88t85 237q0 147 -88 236.5t-269 89.5h-407v-651zM295 799h387q260 0 260 260t-297 260h-350v-520z" />
<glyph unicode="C" horiz-adv-x="1497" d="M117 696q0 207 95 370t258 253t359 90q182 0 323.5 -67.5t229.5 -196.5l-63 -47q-80 113 -204 174t-286 61q-176 0 -319 -83t-225 -228t-82 -326q0 -180 82 -325.5t225 -228.5t319 -83q160 0 291 64.5t215 183.5l64 -45q-92 -133 -240.5 -205.5t-329.5 -72.5 q-196 0 -359 90t-258 252.5t-95 369.5z" />
<glyph unicode="D" horiz-adv-x="1386" d="M211 0v1393h297q237 0 409.5 -85t262.5 -242t90 -370t-90 -370.5t-261 -241.5t-411 -84h-297zM295 76h203q225 0 378.5 77.5t229.5 217t76 325.5t-76 325.5t-229.5 217.5t-378.5 78h-203v-1241z" />
<glyph unicode="E" horiz-adv-x="1173" d="M211 0v1393h813v-74h-729v-746h653v-73h-653v-426h758v-74h-842z" />
<glyph unicode="F" horiz-adv-x="1138" d="M211 0v1393h811v-74h-727v-746h659v-75h-659v-498h-84z" />
<glyph unicode="G" horiz-adv-x="1542" d="M90 696q0 205 95.5 368t258 254t359.5 91q182 0 330.5 -70.5t234.5 -205.5l-63 -48q-160 248 -502 248q-176 0 -319.5 -83t-225.5 -228t-82 -326q0 -180 82 -325.5t226.5 -228.5t320.5 -83q174 0 302 64.5t199.5 173.5t88.5 240h-566v75h658q-8 -186 -95 -329.5 t-239 -221t-348 -77.5q-197 0 -359.5 91t-259 254t-96.5 367z" />
<glyph unicode="H" horiz-adv-x="1400" d="M211 0v1393h84v-820h811v820h84v-1393h-84v498h-811v-498h-84z" />
<glyph unicode="I" horiz-adv-x="522" d="M219 0v1393h84v-1393h-84z" />
<glyph unicode="J" horiz-adv-x="974" d="M86 168l68 45q90 -154 258 -154q121 0 192.5 74t71.5 215v1045h84v-1049q0 -172 -96.5 -266t-249.5 -94q-219 0 -328 184z" />
<glyph unicode="K" horiz-adv-x="1202" d="M211 0v1393h84v-744q0 -35 -8 -157q70 121 84 139l602 762h94l-541 -693l594 -700h-104l-543 641l-178 -219v-422h-84z" />
<glyph unicode="L" horiz-adv-x="1048" d="M211 0v1393h84v-1319h670v-74h-754z" />
<glyph unicode="M" horiz-adv-x="1695" d="M131 0l172 1411h16l474 -903q18 -35 34.5 -74t20.5 -51q4 12 20.5 51t34.5 74l475 903h15l172 -1411h-84l-127 1042q-4 45 -7.5 104.5t-3.5 78.5q-6 -14 -25.5 -65.5t-41.5 -98.5l-424 -807h-14l-420 809q-23 43 -42.5 95t-25.5 69q0 -18 -2 -77.5t-8 -105.5l-127 -1044 h-82z" />
<glyph unicode="N" horiz-adv-x="1472" d="M211 0v1409h25l890 -1155q23 -29 40.5 -55.5t23.5 -36.5q-2 10 -4 40.5t-2 63.5v1127h78v-1409h-25l-891 1155q-22 28 -39.5 55t-23.5 37q2 -10 4 -41t2 -64v-1126h-78z" />
<glyph unicode="O" horiz-adv-x="1658" d="M117 696q0 207 95 370t258 253t359 90q197 0 360 -90t258 -253t95 -370t-95 -369.5t-258 -252.5t-360 -90q-196 0 -359 90t-258 252.5t-95 369.5zM203 696q0 -180 82 -325.5t225 -228.5t319 -83q177 0 320 83t225 228.5t82 325.5t-82 325.5t-225 228.5t-320 83 q-176 0 -319 -83t-225 -228t-82 -326z" />
<glyph unicode="P" horiz-adv-x="1179" d="M211 0v1393h285q272 0 411.5 -140.5t139.5 -378.5q0 -231 -139.5 -373.5t-411.5 -142.5h-201v-358h-84zM295 432h192q248 0 361 121t113 321q0 203 -113 324t-361 121h-192v-887z" />
<glyph unicode="Q" horiz-adv-x="1658" d="M117 696q0 207 95 370t258 253t359 90q197 0 360 -90t258 -253t95 -370q0 -201 -89 -359.5t-243.5 -251.5t-341.5 -101v-320h-77v320q-186 8 -341 101t-244 252t-89 359zM203 696q0 -174 75.5 -315t210 -227t302.5 -95v316h77v-316q168 8 302.5 94.5t210 227.5t75.5 315 q0 180 -82 325.5t-225 228.5t-320 83q-176 0 -319 -83t-225 -228t-82 -326z" />
<glyph unicode="R" horiz-adv-x="1204" d="M211 0v1393h281q182 0 307 -66.5t186.5 -181.5t61.5 -260q0 -160 -76 -282t-223 -179l309 -424h-101l-290 397q-76 -18 -174 -18h-197v-379h-84zM295 453h188q248 0 363 120.5t115 311.5q0 190 -115 312t-363 122h-188v-866z" />
<glyph unicode="S" horiz-adv-x="1079" d="M76 262l71 35q57 -109 148.5 -174.5t245.5 -65.5q141 0 236 77t95 206q0 117 -66.5 193.5t-217.5 146.5l-129 59q-154 72 -222.5 152t-68.5 207q0 141 98.5 226t243.5 85q231 0 356 -201l-65 -43q-49 80 -117 125t-174 45q-121 0 -190.5 -64.5t-69.5 -170.5 q0 -102 54 -164t188 -123l129 -59q172 -78 252.5 -175.5t80.5 -238.5q0 -162 -114.5 -259t-296.5 -97h-2q-330 0 -465 278z" />
<glyph unicode="T" horiz-adv-x="1103" d="M68 1319v74h968v-74h-442v-1319h-84v1319h-442z" />
<glyph unicode="U" horiz-adv-x="1333" d="M197 463v930h84v-924q0 -197 104 -304.5t281 -107.5q176 0 281.5 107.5t105.5 304.5v924h84v-930q0 -152 -61.5 -260.5t-168 -163.5t-241.5 -55q-136 0 -242.5 55t-166.5 162.5t-60 261.5z" />
<glyph unicode="V" horiz-adv-x="1333" d="M90 1393h90l451 -1137q12 -29 23.5 -71t15.5 -56q4 14 15 56t24 71l450 1137h84l-563 -1409h-25z" />
<glyph unicode="W" horiz-adv-x="1945" d="M84 1393h90l340 -1121q8 -25 14.5 -58.5t8.5 -43.5q2 10 10 44t16 58l400 1137h24l399 -1137q8 -25 15.5 -58.5t9.5 -43.5l8 40t17 62l340 1121h86l-437 -1409h-22l-406 1155q-8 27 -14 60.5t-8 43.5q-2 -10 -9.5 -44t-15.5 -60l-407 -1155h-23z" />
<glyph unicode="X" horiz-adv-x="1275" d="M104 0l488 754l-412 639h96l340 -527q8 -14 14.5 -29.5t8.5 -21.5q2 6 10 21.5t17 29.5l340 527h90l-412 -637l490 -756h-97l-415 645q-8 14 -15.5 29.5t-9.5 21.5q-2 -6 -9 -21.5t-16 -29.5l-417 -645h-91z" />
<glyph unicode="Y" horiz-adv-x="1316" d="M90 1393h94l445 -807q12 -20 21 -48t12 -36q2 8 13 35.5t23 48.5l443 807h88l-527 -961v-432h-86v434z" />
<glyph unicode="Z" horiz-adv-x="1187" d="M92 0v20l846 1299h-737v74h862v-21l-844 -1298h866v-74h-993z" />
<glyph unicode="[" horiz-adv-x="614" d="M180 -106v1605h344v-72h-262v-1462h262v-71h-344z" />
<glyph unicode="\" horiz-adv-x="880" d="M80 1499h84l637 -1605h-84z" />
<glyph unicode="]" horiz-adv-x="614" d="M90 -35h262v1462h-262v72h344v-1605h-344v71z" />
<glyph unicode="^" horiz-adv-x="833" d="M154 965l254 444h18l254 -444h-70l-192 309l-195 -309h-69z" />
<glyph unicode="_" horiz-adv-x="499" d="M-4 -193h508v-69h-508v69z" />
<glyph unicode="`" d="M303 1417h94l154 -399h-68z" />
<glyph unicode="a" d="M86 0l416 1026h18l418 -1026h-86l-74 184h-536l-74 -184h-82zM270 256h480l-199 502q-10 26 -22.5 72.5t-16.5 60.5q-4 -14 -17.5 -60.5t-23.5 -72.5z" />
<glyph unicode="b" horiz-adv-x="968" d="M172 0v1014h342q137 0 205.5 -68.5t68.5 -179.5q0 -158 -129 -205q98 -23 155.5 -93.5t57.5 -172.5q0 -131 -80.5 -213t-236.5 -82h-383zM254 72h293q241 0 241 223q0 104 -60 164.5t-183 60.5h-291v-448zM254 590h274q181 0 181 176t-203 176h-252v-352z" />
<glyph unicode="c" horiz-adv-x="1142" d="M109 508q0 150 69.5 268.5t187 186t259.5 67.5q137 0 233 -49t168 -147l-59 -46q-125 170 -342 170q-123 0 -221.5 -59t-154.5 -162.5t-56 -228.5q0 -127 55 -230.5t152.5 -163t217.5 -59.5q233 0 365 178l61 -45q-142 -204 -423 -204h-3q-137 0 -253.5 67.5t-186 187 t-69.5 269.5z" />
<glyph unicode="d" horiz-adv-x="1060" d="M172 0v1014h231q170 0 294 -63.5t189.5 -178.5t65.5 -264q0 -150 -65.5 -265.5t-189.5 -179t-294 -63.5h-231zM254 72h141q234 0 353.5 118.5t119.5 317.5t-119.5 316.5t-353.5 117.5h-141v-870z" />
<glyph unicode="e" horiz-adv-x="909" d="M172 0v1014h602v-72h-520v-512h467v-72h-467v-286h541v-72h-623z" />
<glyph unicode="f" horiz-adv-x="880" d="M172 0v1014h598v-72h-516v-512h471v-72h-471v-358h-82z" />
<glyph unicode="g" horiz-adv-x="1212" d="M106 508q0 150 70 268.5t188.5 186t260.5 67.5q266 0 411 -201l-61 -45q-121 172 -350 172q-125 0 -224.5 -59t-156 -161.5t-56.5 -227.5q0 -127 56.5 -230.5t157 -163t225.5 -59.5q178 0 283.5 96.5t127.5 235.5h-364v72h450q-4 -137 -67.5 -245t-174 -169t-255.5 -61 q-144 0 -262.5 67.5t-188.5 187t-70 269.5z" />
<glyph unicode="h" horiz-adv-x="1077" d="M172 0v1014h82v-584h569v584h82v-1014h-82v358h-569v-358h-82z" />
<glyph unicode="i" horiz-adv-x="438" d="M178 0v1014h82v-1014h-82z" />
<glyph unicode="j" horiz-adv-x="763" d="M78 137l65 41q70 -121 185 -121q182 0 182 201v756h82v-760q0 -129 -73 -199.5t-187 -70.5h-2q-171 0 -252 153z" />
<glyph unicode="k" horiz-adv-x="958" d="M172 0v1014h82v-504q0 -70 -12 -174q90 142 104 160l404 518h94l-377 -479l438 -535h-104l-387 473l-160 -192v-281h-82z" />
<glyph unicode="l" horiz-adv-x="823" d="M172 0v1014h82v-942h485v-72h-567z" />
<glyph unicode="m" horiz-adv-x="1314" d="M125 0l123 1028h16l346 -627q16 -29 29.5 -66.5t17.5 -49.5q4 12 18.5 50t29.5 66l346 627h16l123 -1028h-80l-78 664q-6 51 -9 109t-3 75q-6 -16 -26.5 -69.5t-45.5 -98.5l-282 -502h-17l-284 504q-27 47 -47.5 99.5t-24.5 68.5q0 -16 -2 -71.5t-8 -108.5l-80 -670h-78z " />
<glyph unicode="n" horiz-adv-x="1122" d="M172 0v1026h18l598 -737q25 -29 54.5 -75t38.5 -60q-2 14 -5.5 59t-3.5 86v717h78v-1028h-18l-602 743q-21 27 -50.5 73t-39.5 62q2 -14 6 -61t4 -90v-715h-78z" />
<glyph unicode="o" horiz-adv-x="1267" d="M106 508q0 150 72 269.5t193 186t264 66.5t264 -66.5t191.5 -186.5t70.5 -269q0 -150 -70.5 -269.5t-191.5 -187t-264 -67.5t-264 67.5t-193 187t-72 269.5zM190 508q0 -127 57.5 -230.5t159 -163t228.5 -59.5t227.5 59.5t157.5 163t57 230.5t-57 229.5t-157.5 161.5 t-227.5 59t-228.5 -59t-159 -161.5t-57.5 -229.5z" />
<glyph unicode="p" horiz-adv-x="948" d="M172 0v1014h252q199 0 303 -105.5t104 -273.5t-104 -273.5t-303 -105.5h-170v-256h-82zM254 328h164q172 0 252 84t80 223q0 141 -79 224t-253 83h-164v-614z" />
<glyph unicode="q" horiz-adv-x="1267" d="M106 508q0 150 72 269.5t193 186t264 66.5t264 -66.5t191.5 -186.5t70.5 -269q0 -143 -64.5 -260t-177 -185.5t-247.5 -76.5v-228h-76v228q-133 8 -245.5 77.5t-178.5 185.5t-66 259zM190 508q0 -121 52.5 -221.5t144.5 -162t209 -69.5v228h76v-228q117 8 209 69.5 t144 162t52 221.5q0 127 -57 229.5t-157.5 161.5t-227.5 59t-228.5 -59t-159 -161.5t-57.5 -229.5z" />
<glyph unicode="r" horiz-adv-x="944" d="M172 0v1014h248q197 0 302 -104.5t105 -266.5q0 -115 -54 -203t-161 -131l226 -309h-95l-208 285q-53 -12 -115 -13h-166v-272h-82zM254 344h160q172 0 251.5 83t79.5 216t-79.5 216t-251.5 83h-160v-598z" />
<glyph unicode="s" horiz-adv-x="839" d="M74 195l69 34q86 -174 281 -174q104 0 169.5 53.5t65.5 139.5q0 84 -48 137t-158 102l-101 45q-102 45 -155.5 107.5t-53.5 157.5q0 106 75 169.5t185 63.5q174 0 273 -143l-62 -45q-80 119 -211 119q-84 0 -133 -42t-49 -120q0 -68 37 -112t127 -85l100 -45 q129 -57 191.5 -129t62.5 -180q0 -119 -88 -191.5t-225 -72.5q-127 0 -218 60t-134 151z" />
<glyph unicode="t" horiz-adv-x="888" d="M76 942v72h737v-72h-328v-942h-82v942h-327z" />
<glyph unicode="u" horiz-adv-x="1032" d="M164 342v672h82v-666q0 -147 71.5 -220t198.5 -73t198.5 73t71.5 220v666h82v-672q0 -172 -97 -265t-255 -93t-255 93t-97 265z" />
<glyph unicode="v" d="M86 1014h88l295 -738q12 -29 27.5 -82t19.5 -69q4 16 17.5 69.5t25.5 81.5l295 738h84l-414 -1026h-20z" />
<glyph unicode="w" horiz-adv-x="1470" d="M84 1014h88l223 -715q8 -31 17.5 -78t11.5 -61q2 14 13.5 61t23.5 78l268 727h16l267 -727q12 -35 23.5 -80t13.5 -59q2 14 11 60t19 79l224 715h83l-323 -1026h-19l-276 753q-12 31 -20.5 67t-10.5 46q-2 -10 -10 -47t-20 -66l-281 -753h-16z" />
<glyph unicode="x" horiz-adv-x="991" d="M96 0l350 551l-294 463h92l202 -318q18 -29 32 -59.5t18 -40.5q4 10 17 41t32 59l198 318h93l-295 -463l354 -551h-92l-258 406q-18 31 -33.5 59.5t-19.5 38.5q-4 -10 -18.5 -43t-29.5 -55l-256 -406h-92z" />
<glyph unicode="y" horiz-adv-x="1017" d="M86 1014h90l281 -514q18 -33 34.5 -76t20.5 -55q4 14 22.5 56t34.5 75l277 514h88l-381 -699v-315h-82v311z" />
<glyph unicode="z" horiz-adv-x="921" d="M92 0v14l598 928h-528v72h653v-17l-600 -925h598v-72h-721z" />
<glyph unicode="{" horiz-adv-x="614" d="M4 502v71h82q61 0 91 32t30 114v485q0 295 248 295h69v-72h-67q-82 0 -125 -49t-43 -174v-491q0 -145 -107 -174q106 -27 107 -177v-174q0 -125 43 -174t125 -49h67v-71h-69q-248 -1 -248 294v168q0 82 -30 114t-91 32h-82z" />
<glyph unicode="|" horiz-adv-x="446" d="M184 -106v1605h78v-1605h-78z" />
<glyph unicode="}" horiz-adv-x="614" d="M88 -35h68q82 0 125 49t43 174v174q0 145 106 175q-106 27 -106 176v491q0 125 -43 174t-125 49h-68v72h70q248 0 248 -295v-485q0 -82 29.5 -114t90.5 -32h82v-71h-82q-61 0 -90.5 -32t-29.5 -114v-168q0 -295 -248 -294h-70v71z" />
<glyph unicode="~" horiz-adv-x="790" d="M121 483q4 95 45 147t108 52q41 0 72 -17.5t74 -60.5q41 -41 58.5 -51t41.5 -10q68 0 80 133l70 -6q-10 -197 -152 -197q-41 0 -70.5 18.5t-74.5 61.5q-41 39 -57.5 49t-43.5 10q-70 0 -82 -135z" />
<glyph unicode="&#xa1;" horiz-adv-x="458" d="M152 1329q0 33 23.5 55.5t53.5 22.5q31 0 54.5 -23.5t23.5 -54.5q0 -33 -23.5 -56.5t-54.5 -23.5t-54 23.5t-23 56.5zM184 0l15 1044h61l14 -1044h-90z" />
<glyph unicode="&#xa2;" d="M221 330q0 133 83 229t208 113v200h70v-198q139 -8 227 -103l-55 -47q-68 74 -172 82v-555q121 8 190 92l55 -47q-88 -102 -245 -112v-201h-70v203q-125 16 -208 113.5t-83 230.5zM303 330q0 -109 57.5 -184.5t151.5 -90.5v547q-94 -14 -151.5 -90t-57.5 -182z" />
<glyph unicode="&#xa3;" d="M98 129q0 63 45 101t113 38t137 -45q-4 80 -57 215h-154v68h125q-55 139 -55 231q0 129 85 211t226 82q109 0 191 -53t120 -141l-67 -35q-72 158 -244 157q-106 0 -166.5 -59t-60.5 -162q0 -94 53 -231h301v-68h-274q51 -141 51 -237q0 -20 -2 -33q70 -57 119 -85 t114 -28q102 0 162 82l58 -45q-84 -109 -220 -108q-70 0 -126 30.5t-128 87.5q-27 -53 -77 -85.5t-109 -32.5q-68 0 -114 39.5t-46 105.5zM166 131q0 -37 26.5 -61.5t67.5 -24.5q47 0 81 26.5t46 78.5q-72 57 -129 57q-41 0 -66.5 -21.5t-25.5 -54.5z" />
<glyph unicode="&#xa4;" d="M47 340v66h148q-6 47 -7 100q0 41 2 59h-143v66h152q29 182 135 290.5t262 108.5q117 0 195.5 -50t138.5 -149l-66 -40q-53 88 -110.5 126.5t-157.5 38.5q-125 0 -208 -88t-107 -237h401v-66h-410q-2 -18 -2 -59q0 -51 6 -100h406v-66h-393q31 -131 110.5 -207t198.5 -76 q100 0 165.5 45t115.5 129l69 -36q-123 -211 -350 -211q-145 0 -249.5 96t-141.5 260h-160z" />
<glyph unicode="&#xa5;" d="M94 1014h90l291 -553q14 -27 25.5 -56.5t13.5 -37.5q2 10 12.5 39.5t24.5 54.5l293 553h84q-41 -78 -132 -249t-134 -249h239v-65h-274l-74 -140v-22h348v-68h-348v-221h-82v221h-348v68h348v22l-74 140h-274v65h237z" />
<glyph unicode="&#xa6;" horiz-adv-x="368" d="M102 485q0 35 25 58.5t57 23.5q33 0 57.5 -23.5t24.5 -58.5q0 -33 -24.5 -57.5t-57.5 -24.5q-30 0 -56 25t-26 57z" />
<glyph unicode="&#xa7;" d="M160 455q0 61 32.5 111t90.5 79q-35 59 -35 137q0 109 72.5 178.5t187.5 69.5q195 0 264 -158l-67 -34q-29 59 -75 89.5t-122 30.5q-84 0 -132 -48t-48 -126q0 -131 151 -196l168 -74q117 -51 166 -105.5t49 -134.5q0 -125 -131 -182q41 -53 41 -129q0 -102 -71.5 -168.5 t-206.5 -66.5q-100 0 -188.5 50t-129.5 134l68 35q33 -70 99.5 -109t148.5 -39q98 0 149 45t51 117q0 66 -42 109t-124 77l-155 66q-115 49 -163 103.5t-48 138.5zM240 465q0 -66 33.5 -106t121.5 -76l162 -68q80 -33 129 -74q45 17 70.5 51.5t25.5 75.5q0 59 -37.5 99.5 t-130.5 78.5l-168 72q-82 35 -129 82q-78 -47 -77 -135z" />
<glyph unicode="&#xa8;" d="M291 1133q0 27 19.5 46t45.5 19q27 0 46.5 -19.5t19.5 -45.5q0 -27 -19.5 -46.5t-46.5 -19.5q-26 0 -45.5 19.5t-19.5 46.5zM602 1133q0 27 19.5 46t46.5 19t46 -19.5t19 -45.5q0 -27 -19.5 -46.5t-45.5 -19.5q-27 0 -46.5 19.5t-19.5 46.5z" />
<glyph unicode="&#xa9;" horiz-adv-x="1228" d="M90 506q0 147 70.5 267t191.5 188.5t262 68.5t262 -68.5t192 -188.5t71 -267q0 -145 -71 -265t-191.5 -188.5t-262.5 -68.5q-141 0 -262 68.5t-191.5 188t-70.5 265.5zM158 506q0 -129 60.5 -234.5t164.5 -165t231 -59.5t231.5 59.5t165 165t60.5 234.5 q0 131 -60.5 236.5t-165 165t-231.5 59.5t-231 -59.5t-164.5 -165t-60.5 -236.5zM324 506q0 86 39.5 156.5t107.5 111.5t147 41q74 0 126.5 -25.5t99.5 -76.5l-56 -51q-63 82 -167 81q-94 0 -154.5 -67.5t-60.5 -169.5q0 -100 60 -168t152 -68q104 0 179 88l55 -51 q-94 -109 -234 -108q-79 0 -147 41t-107.5 111.5t-39.5 154.5z" />
<glyph unicode="&#xaa;" horiz-adv-x="798" d="M88 512q0 104 80 158.5t199 54.5h237v10q0 129 -48 178.5t-142 49.5q-137 0 -228 -119l-51 39q41 68 115 107.5t164 39.5q123 0 195.5 -68.5t72.5 -218.5v-436h-78v96q-78 -113 -244 -112q-121 0 -196.5 57.5t-75.5 163.5zM168 512q0 -154 205 -154q96 0 163.5 47.5 t67.5 137.5v116h-227q-209 0 -209 -147z" />
<glyph unicode="&#xab;" horiz-adv-x="710" d="M84 397v17l190 315h93l-195 -323l195 -324h-93zM344 397v17l191 315h92l-195 -323l195 -324h-92z" />
<glyph unicode="&#xac;" horiz-adv-x="368" d="M102 485q0 35 25 58.5t57 23.5q33 0 57.5 -23.5t24.5 -58.5q0 -33 -24.5 -57.5t-57.5 -24.5q-30 0 -56 25t-26 57z" />
<glyph unicode="&#xad;" horiz-adv-x="569" d="M104 426v74h359v-74h-359z" />
<glyph unicode="&#xae;" horiz-adv-x="1062" d="M86 989q0 123 59.5 223.5t161 157.5t221.5 57q121 0 224.5 -57t164 -157.5t60.5 -223.5t-60.5 -222t-164 -156.5t-224.5 -57.5q-118 0 -220.5 57.5t-162 156.5t-59.5 222zM158 989q0 -111 48 -195.5t132 -133t190 -48.5q109 0 195 48.5t135 133.5t49 195q0 111 -49 197 t-135 134t-195 48q-106 0 -190 -48t-132 -134t-48 -197zM377 741v504h131q109 0 163 -54t54 -140q0 -117 -107 -164l107 -146h-80l-92 127q-29 -4 -45 -4h-64v-123h-67zM444 920h60q151 0 151 131q0 139 -151 139h-60v-270z" />
<glyph unicode="&#xaf;" d="M313 1044v70h398v-70h-398z" />
<glyph unicode="&#xb0;" horiz-adv-x="659" d="M113 815q0 90 63.5 152.5t153.5 62.5t153.5 -62.5t63.5 -152.5q0 -88 -63.5 -150.5t-153.5 -62.5t-153.5 62.5t-63.5 150.5zM182 815q0 -66 41 -108.5t107 -42.5q65 0 105 43t40 108q0 68 -40 111t-105 43q-66 0 -107 -43t-41 -111z" />
<glyph unicode="&#xb1;" horiz-adv-x="2584" d="M172 0v1014h598v-72h-516v-512h471v-72h-471v-358h-82zM1053 0v1014h598v-72h-516v-512h471v-72h-471v-358h-82zM1933 0v1014h82v-942h486v-72h-568z" />
<glyph unicode="&#xb2;" horiz-adv-x="368" d="M102 485q0 35 25 58.5t57 23.5q33 0 57.5 -23.5t24.5 -58.5q0 -33 -24.5 -57.5t-57.5 -24.5q-30 0 -56 25t-26 57z" />
<glyph unicode="&#xb3;" horiz-adv-x="368" d="M102 485q0 35 25 58.5t57 23.5q33 0 57.5 -23.5t24.5 -58.5q0 -33 -24.5 -57.5t-57.5 -24.5q-30 0 -56 25t-26 57z" />
<glyph unicode="&#xb4;" d="M473 1018l154 399h94l-180 -399h-68z" />
<glyph unicode="&#xb5;" horiz-adv-x="368" d="M102 485q0 35 25 58.5t57 23.5q33 0 57.5 -23.5t24.5 -58.5q0 -33 -24.5 -57.5t-57.5 -24.5q-30 0 -56 25t-26 57z" />
<glyph unicode="&#xb6;" horiz-adv-x="1200" d="M123 1036q0 98 45 180t127 129.5t188 47.5h506v-1393h-82v1319h-176v-1319h-84v680h-164q-106 0 -188 47t-127 129t-45 180zM211 1036q0 -125 71.5 -203.5t200.5 -78.5h164v565h-164q-129 0 -200.5 -79t-71.5 -204z" />
<glyph unicode="&#xb7;" horiz-adv-x="368" d="M102 485q0 35 25 58.5t57 23.5q33 0 57.5 -23.5t24.5 -58.5q0 -33 -24.5 -57.5t-57.5 -24.5q-30 0 -56 25t-26 57z" />
<glyph unicode="&#xb8;" d="M330 -348l61 37q43 -88 129 -88q45 0 76 28.5t31 77.5t-32 81t-95 32h-31v180h74v-121q68 -8 116 -55t48 -119q0 -80 -54.5 -126t-130.5 -46q-69 0 -119.5 34t-72.5 85z" />
<glyph unicode="&#xb9;" horiz-adv-x="368" d="M102 485q0 35 25 58.5t57 23.5q33 0 57.5 -23.5t24.5 -58.5q0 -33 -24.5 -57.5t-57.5 -24.5q-30 0 -56 25t-26 57z" />
<glyph unicode="&#xba;" horiz-adv-x="905" d="M88 662q0 102 49 187t133 133t183 48q98 0 182 -48t133 -133t49 -187t-49 -187.5t-132 -133.5t-183 -48q-101 0 -184 48t-132 133t-49 188zM168 662q0 -131 80 -216.5t205 -85.5t204.5 85t79.5 217q0 131 -79.5 216t-204.5 85t-205 -85t-80 -216z" />
<glyph unicode="&#xbb;" horiz-adv-x="710" d="M84 82l195 324l-195 323h92l191 -315v-17l-191 -315h-92zM344 82l195 324l-195 323h92l191 -315v-17l-191 -315h-92z" />
<glyph unicode="&#xbc;" horiz-adv-x="368" d="M102 485q0 35 25 58.5t57 23.5q33 0 57.5 -23.5t24.5 -58.5q0 -33 -24.5 -57.5t-57.5 -24.5q-30 0 -56 25t-26 57z" />
<glyph unicode="&#xbd;" horiz-adv-x="368" d="M102 485q0 35 25 58.5t57 23.5q33 0 57.5 -23.5t24.5 -58.5q0 -33 -24.5 -57.5t-57.5 -24.5q-30 0 -56 25t-26 57z" />
<glyph unicode="&#xbe;" horiz-adv-x="368" d="M102 485q0 35 25 58.5t57 23.5q33 0 57.5 -23.5t24.5 -58.5q0 -33 -24.5 -57.5t-57.5 -24.5q-30 0 -56 25t-26 57z" />
<glyph unicode="&#xbf;" horiz-adv-x="919" d="M109 365q0 106 49 190t135 134t192 54v310h78v-379h-55q-92 0 -164 -41t-111.5 -111.5t-39.5 -156.5q0 -145 81.5 -225.5t214.5 -80.5q113 0 187 48.5t125 158.5l69 -35q-47 -119 -147 -183t-234 -64q-168 0 -274 101t-106 280zM449 1329q0 33 23.5 55.5t53.5 22.5 q31 0 54.5 -23.5t23.5 -54.5q0 -33 -23.5 -56.5t-54.5 -23.5t-54 23.5t-23 56.5z" />
<glyph unicode="&#xc0;" horiz-adv-x="1333" d="M90 0l563 1409h25l565 -1409h-86l-106 270h-770l-107 -270h-84zM309 344h711l-313 795q-13 30 -25 72t-16 55q-4 -12 -16.5 -54.5t-24.5 -72.5zM451 1946h94l153 -400h-67z" />
<glyph unicode="&#xc1;" horiz-adv-x="1333" d="M90 0l563 1409h25l565 -1409h-86l-106 270h-770l-107 -270h-84zM309 344h711l-313 795q-13 30 -25 72t-16 55q-4 -12 -16.5 -54.5t-24.5 -72.5zM635 1546l153 400h95l-181 -400h-67z" />
<glyph unicode="&#xc2;" horiz-adv-x="1333" d="M90 0l563 1409h25l565 -1409h-86l-106 270h-770l-107 -270h-84zM309 344h711l-313 795q-13 30 -25 72t-16 55q-4 -12 -16.5 -54.5t-24.5 -72.5zM424 1540l231 373h19l231 -373h-71l-168 244l-170 -244h-72z" />
<glyph unicode="&#xc3;" horiz-adv-x="1333" d="M90 0l563 1409h25l565 -1409h-86l-106 270h-770l-107 -270h-84zM309 344h711l-313 795q-13 30 -25 72t-16 55q-4 -12 -16.5 -54.5t-24.5 -72.5zM391 1536q4 94 45 146.5t109 52.5q41 0 71.5 -17.5t73.5 -60.5q41 -41 58.5 -51.5t42.5 -10.5q68 0 79 134l70 -7 q-10 -197 -152 -196q-41 0 -70.5 18.5t-74.5 61.5q-41 39 -57.5 49t-42.5 10q-70 0 -82 -135z" />
<glyph unicode="&#xc4;" horiz-adv-x="1333" d="M90 0l563 1409h25l565 -1409h-86l-106 270h-770l-107 -270h-84zM309 344h711l-313 795q-13 30 -25 72t-16 55q-4 -12 -16.5 -54.5t-24.5 -72.5zM444 1661q0 27 19.5 46t46.5 19t46 -19t19 -46t-19 -46.5t-46 -19.5t-46.5 19.5t-19.5 46.5zM756 1661q0 27 19.5 46t45.5 19 q27 0 46.5 -19t19.5 -46t-19.5 -46.5t-46.5 -19.5q-26 0 -45.5 19.5t-19.5 46.5z" />
<glyph unicode="&#xc5;" horiz-adv-x="1333" d="M90 0l563 1409h25l565 -1409h-86l-106 270h-770l-107 -270h-84zM309 344h711l-313 795q-13 30 -25 72t-16 55q-4 -12 -16.5 -54.5t-24.5 -72.5zM473 1679q0 78 56.5 133.5t136.5 55.5t136 -55.5t56 -133.5t-56.5 -133t-135.5 -55q-80 0 -136.5 55.5t-56.5 132.5z M547 1679q0 -57 32.5 -91t86.5 -34q53 0 85.5 34t32.5 91t-32.5 91t-85.5 34t-86 -33.5t-33 -91.5z" />
<glyph unicode="&#xc6;" horiz-adv-x="1916" d="M66 0l917 1393h784v-74h-729v-746h654v-73h-654v-426h758v-74h-842v270h-618l-178 -270h-92zM385 344h569v741q0 43 4.5 94.5t6.5 67.5q-6 -14 -32 -59t-50 -84z" />
<glyph unicode="&#xc7;" horiz-adv-x="1497" d="M117 696q0 207 95 370t258 253t359 90q182 0 323.5 -67.5t229.5 -196.5l-63 -47q-80 113 -204 174t-286 61q-176 0 -319 -83t-225 -228t-82 -326q0 -180 82 -325.5t225 -228.5t319 -83q160 0 291 64.5t215 183.5l64 -45q-92 -133 -240.5 -205.5t-329.5 -72.5h-16v-105 q68 -8 116 -55t48 -119q0 -80 -54.5 -126t-129.5 -46q-70 0 -120 34t-73 85l62 37q43 -88 129 -88q45 0 75.5 28.5t30.5 77.5t-31.5 81t-95.5 32h-31v168q-176 20 -317 114.5t-223 249t-82 344.5z" />
<glyph unicode="&#xc8;" horiz-adv-x="1173" d="M211 0v1393h813v-74h-729v-746h653v-73h-653v-426h758v-74h-842zM418 1946h94l154 -400h-68z" />
<glyph unicode="&#xc9;" horiz-adv-x="1173" d="M211 0v1393h813v-74h-729v-746h653v-73h-653v-426h758v-74h-842zM573 1546l154 400h94l-180 -400h-68z" />
<glyph unicode="&#xca;" horiz-adv-x="1173" d="M211 0v1393h813v-74h-729v-746h653v-73h-653v-426h758v-74h-842zM387 1540l231 373h19l231 -373h-71l-168 244l-170 -244h-72z" />
<glyph unicode="&#xcb;" horiz-adv-x="1173" d="M211 0v1393h813v-74h-729v-746h653v-73h-653v-426h758v-74h-842zM406 1661q0 27 19 46t46 19t46.5 -19t19.5 -46t-19.5 -46.5t-46.5 -19.5t-46 19.5t-19 46.5zM717 1661q0 27 19.5 46t45.5 19q27 0 46.5 -19t19.5 -46t-19.5 -46.5t-46.5 -19.5q-26 0 -45.5 19.5 t-19.5 46.5z" />
<glyph unicode="&#xcc;" horiz-adv-x="522" d="M43 1946h94l154 -400h-68zM219 0v1393h84v-1393h-84z" />
<glyph unicode="&#xcd;" horiz-adv-x="522" d="M219 0v1393h84v-1393h-84zM229 1546l154 400h94l-180 -400h-68z" />
<glyph unicode="&#xce;" horiz-adv-x="522" d="M18 1540l232 373h18l232 -373h-72l-168 244l-170 -244h-72zM219 0v1393h84v-1393h-84z" />
<glyph unicode="&#xcf;" horiz-adv-x="522" d="M39 1661q0 27 19.5 46t45.5 19q27 0 46.5 -19t19.5 -46t-19.5 -46.5t-46.5 -19.5q-26 0 -45.5 19.5t-19.5 46.5zM219 0v1393h84v-1393h-84zM350 1661q0 27 19.5 46t46.5 19t46 -19t19 -46t-19.5 -46.5t-45.5 -19.5q-27 0 -46.5 19.5t-19.5 46.5z" />
<glyph unicode="&#xd0;" horiz-adv-x="1386" d="M31 500v73h180v820h321q227 0 394.5 -88t255.5 -245t88 -364t-88 -364.5t-254 -244.5t-396 -87h-321v500h-180zM295 76h227q215 0 363.5 77.5t222.5 218t74 324.5t-74 324.5t-222.5 218.5t-363.5 78h-227v-744h405v-73h-405v-424z" />
<glyph unicode="&#xd1;" horiz-adv-x="1472" d="M211 0v1409h25l890 -1155q23 -29 40.5 -55.5t23.5 -36.5q-2 10 -4 40.5t-2 63.5v1127h78v-1409h-25l-891 1155q-22 28 -39.5 55t-23.5 37q2 -10 4 -41t2 -64v-1126h-78zM461 1536q4 94 45 146.5t108 52.5q41 0 72 -17.5t74 -60.5q41 -41 58.5 -51.5t41.5 -10.5 q68 0 80 134l70 -7q-10 -197 -152 -196q-41 0 -70.5 18.5t-74.5 61.5q-41 39 -57.5 49t-43.5 10q-70 0 -82 -135z" />
<glyph unicode="&#xd2;" horiz-adv-x="1658" d="M117 696q0 207 95 370t258 253t359 90q197 0 360 -90t258 -253t95 -370t-95 -369.5t-258 -252.5t-360 -90q-196 0 -359 90t-258 252.5t-95 369.5zM203 696q0 -180 82 -325.5t225 -228.5t319 -83q177 0 320 83t225 228.5t82 325.5t-82 325.5t-225 228.5t-320 83 q-176 0 -319 -83t-225 -228t-82 -326zM621 1946h94l153 -400h-67z" />
<glyph unicode="&#xd3;" horiz-adv-x="1658" d="M117 696q0 207 95 370t258 253t359 90q197 0 360 -90t258 -253t95 -370t-95 -369.5t-258 -252.5t-360 -90q-196 0 -359 90t-258 252.5t-95 369.5zM203 696q0 -180 82 -325.5t225 -228.5t319 -83q177 0 320 83t225 228.5t82 325.5t-82 325.5t-225 228.5t-320 83 q-176 0 -319 -83t-225 -228t-82 -326zM791 1546l153 400h94l-180 -400h-67z" />
<glyph unicode="&#xd4;" horiz-adv-x="1658" d="M117 696q0 207 95 370t258 253t359 90q197 0 360 -90t258 -253t95 -370t-95 -369.5t-258 -252.5t-360 -90q-196 0 -359 90t-258 252.5t-95 369.5zM203 696q0 -180 82 -325.5t225 -228.5t319 -83q177 0 320 83t225 228.5t82 325.5t-82 325.5t-225 228.5t-320 83 q-176 0 -319 -83t-225 -228t-82 -326zM588 1540l231 373h19l231 -373h-72l-168 244l-170 -244h-71z" />
<glyph unicode="&#xd5;" horiz-adv-x="1658" d="M117 696q0 207 95 370t258 253t359 90q197 0 360 -90t258 -253t95 -370t-95 -369.5t-258 -252.5t-360 -90q-196 0 -359 90t-258 252.5t-95 369.5zM203 696q0 -180 82 -325.5t225 -228.5t319 -83q177 0 320 83t225 228.5t82 325.5t-82 325.5t-225 228.5t-320 83 q-176 0 -319 -83t-225 -228t-82 -326zM555 1536q4 94 45 146.5t109 52.5q41 0 71.5 -17.5t73.5 -60.5q41 -41 58.5 -51.5t41.5 -10.5q68 0 80 134l70 -7q-10 -197 -152 -196q-41 0 -70.5 18.5t-74.5 61.5q-41 39 -57.5 49t-42.5 10q-70 0 -82 -135z" />
<glyph unicode="&#xd6;" horiz-adv-x="1658" d="M117 696q0 207 95 370t258 253t359 90q197 0 360 -90t258 -253t95 -370t-95 -369.5t-258 -252.5t-360 -90q-196 0 -359 90t-258 252.5t-95 369.5zM203 696q0 -180 82 -325.5t225 -228.5t319 -83q177 0 320 83t225 228.5t82 325.5t-82 325.5t-225 228.5t-320 83 q-176 0 -319 -83t-225 -228t-82 -326zM608 1661q0 27 19.5 46t46.5 19t46 -19t19 -46t-19.5 -46.5t-45.5 -19.5q-27 0 -46.5 19.5t-19.5 46.5zM920 1661q0 27 19 46t46 19t46.5 -19t19.5 -46t-19.5 -46.5t-46.5 -19.5t-46 19.5t-19 46.5z" />
<glyph unicode="&#xd7;" d="M197 236l264 264l-264 264l53 53l264 -264l264 264l53 -53l-264 -264l264 -264l-53 -54l-264 264l-264 -264z" />
<glyph unicode="&#xd8;" horiz-adv-x="1658" d="M117 696q0 201 95 365t259 256t358 92q276 0 478 -178l178 180l51 -49l-178 -180q184 -201 184 -486q0 -201 -95 -364.5t-259 -255.5t-359 -92q-281 0 -477 178l-180 -182l-51 49l180 182q-184 200 -184 485zM203 696q0 -252 153 -428l895 908q-174 157 -422 157 q-176 0 -319 -83t-225 -228t-82 -326zM406 217q178 -158 423 -158q177 0 320 83t225 228.5t82 325.5q0 252 -153 428z" />
<glyph unicode="&#xd9;" horiz-adv-x="1333" d="M197 463v930h84v-924q0 -197 104 -304.5t281 -107.5q176 0 281.5 107.5t105.5 304.5v924h84v-930q0 -152 -61.5 -260.5t-168 -163.5t-241.5 -55q-136 0 -242.5 55t-166.5 162.5t-60 261.5zM457 1946h94l154 -400h-68z" />
<glyph unicode="&#xda;" horiz-adv-x="1333" d="M197 463v930h84v-924q0 -197 104 -304.5t281 -107.5q176 0 281.5 107.5t105.5 304.5v924h84v-930q0 -152 -61.5 -260.5t-168 -163.5t-241.5 -55q-136 0 -242.5 55t-166.5 162.5t-60 261.5zM627 1546l153 400h94l-180 -400h-67z" />
<glyph unicode="&#xdb;" horiz-adv-x="1333" d="M197 463v930h84v-924q0 -197 104 -304.5t281 -107.5q176 0 281.5 107.5t105.5 304.5v924h84v-930q0 -152 -61.5 -260.5t-168 -163.5t-241.5 -55q-136 0 -242.5 55t-166.5 162.5t-60 261.5zM424 1540l231 373h19l231 -373h-71l-168 244l-170 -244h-72z" />
<glyph unicode="&#xdc;" horiz-adv-x="1333" d="M197 463v930h84v-924q0 -197 104 -304.5t281 -107.5q176 0 281.5 107.5t105.5 304.5v924h84v-930q0 -152 -61.5 -260.5t-168 -163.5t-241.5 -55q-136 0 -242.5 55t-166.5 162.5t-60 261.5zM444 1661q0 27 19.5 46t46.5 19t46 -19t19 -46t-19 -46.5t-46 -19.5t-46.5 19.5 t-19.5 46.5zM756 1661q0 27 19.5 46t45.5 19q27 0 46.5 -19t19.5 -46t-19.5 -46.5t-46.5 -19.5q-26 0 -45.5 19.5t-19.5 46.5z" />
<glyph unicode="&#xdd;" horiz-adv-x="1316" d="M90 1393h94l445 -807q12 -20 21 -48t12 -36q2 8 13 35.5t23 48.5l443 807h88l-527 -961v-432h-86v434zM618 1546l154 400h94l-180 -400h-68z" />
<glyph unicode="&#xde;" horiz-adv-x="1179" d="M211 0v1393h84v-168h217q176 0 297 -67.5t179.5 -184.5t58.5 -266q0 -229 -135.5 -373t-399.5 -144h-217v-190h-84zM295 264h209q239 0 348 121t109 322q0 203 -109 323.5t-348 120.5h-209v-887z" />
<glyph unicode="&#xdf;" horiz-adv-x="1679" d="M74 195l69 34q86 -174 281 -174q104 0 169.5 53.5t65.5 139.5q0 84 -48 137t-158 102l-101 45q-102 45 -155.5 107.5t-53.5 157.5q0 106 75 169.5t185 63.5q174 0 273 -143l-62 -45q-80 119 -211 119q-84 0 -133 -42t-49 -120q0 -68 37 -112t127 -85l100 -45 q129 -57 191.5 -129t62.5 -180q0 -119 -88 -191.5t-225 -72.5q-127 0 -218 60t-134 151zM913 195l70 34q86 -174 281 -174q104 0 169.5 53.5t65.5 139.5q0 84 -48 137t-159 102l-100 45q-102 45 -155.5 107.5t-53.5 157.5q0 106 75 169.5t185 63.5q174 0 273 -143l-62 -45 q-80 119 -211 119q-84 0 -133 -42t-49 -120q0 -68 37 -112t127 -85l100 -45q129 -57 191.5 -129t62.5 -180q0 -119 -88 -191.5t-225 -72.5q-127 0 -218.5 60t-134.5 151z" />
<glyph unicode="&#xe0;" d="M86 0l416 1026h18l418 -1026h-86l-74 184h-536l-74 -184h-82zM270 256h480l-199 502q-10 26 -22.5 72.5t-16.5 60.5q-4 -14 -17.5 -60.5t-23.5 -72.5zM303 1556h94l154 -399h-68z" />
<glyph unicode="&#xe1;" d="M86 0l416 1026h18l418 -1026h-86l-74 184h-536l-74 -184h-82zM270 256h480l-199 502q-10 26 -22.5 72.5t-16.5 60.5q-4 -14 -17.5 -60.5t-23.5 -72.5zM473 1157l154 399h94l-180 -399h-68z" />
<glyph unicode="&#xe2;" d="M86 0l416 1026h18l418 -1026h-86l-74 184h-536l-74 -184h-82zM270 256h480l-199 502q-10 26 -22.5 72.5t-16.5 60.5q-4 -14 -17.5 -60.5t-23.5 -72.5zM270 1151l232 373h18l232 -373h-72l-168 244l-170 -244h-72z" />
<glyph unicode="&#xe3;" d="M86 0l416 1026h18l418 -1026h-86l-74 184h-536l-74 -184h-82zM238 1147q4 94 45 146.5t108 52.5q41 0 72 -17.5t74 -60.5q41 -41 58 -51.5t42 -10.5q68 0 80 133l69 -6q-10 -197 -151 -196q-41 0 -70.5 18.5t-75.5 61.5q-41 39 -57 49t-43 10q-70 0 -82 -135zM270 256 h480l-199 502q-10 26 -22.5 72.5t-16.5 60.5q-4 -14 -17.5 -60.5t-23.5 -72.5z" />
<glyph unicode="&#xe4;" d="M86 0l416 1026h18l418 -1026h-86l-74 184h-536l-74 -184h-82zM270 256h480l-199 502q-10 26 -22.5 72.5t-16.5 60.5q-4 -14 -17.5 -60.5t-23.5 -72.5zM291 1272q0 27 19.5 46t45.5 19q27 0 46.5 -19.5t19.5 -45.5q0 -27 -19.5 -46.5t-46.5 -19.5q-26 0 -45.5 19.5 t-19.5 46.5zM602 1272q0 27 19.5 46t46.5 19t46 -19.5t19 -45.5q0 -27 -19.5 -46.5t-45.5 -19.5q-27 0 -46.5 19.5t-19.5 46.5z" />
<glyph unicode="&#xe5;" d="M86 0l416 1026h18l418 -1026h-86l-74 184h-536l-74 -184h-82zM270 256h480l-199 502q-10 26 -22.5 72.5t-16.5 60.5q-4 -14 -17.5 -60.5t-23.5 -72.5zM319 1327q0 78 56.5 133.5t136.5 55.5t136.5 -55.5t56.5 -133.5t-56.5 -133t-136.5 -55t-136.5 55t-56.5 133z M393 1327q0 -57 33 -91t86 -34t86 34t33 91t-33 91t-86 34t-86 -34t-33 -91z" />
<glyph unicode="&#xe6;" horiz-adv-x="1460" d="M70 0l671 1014h586v-72h-524v-512h467v-72h-467v-286h543v-72h-625v184h-445l-122 -184h-84zM322 256h399v467q0 49 5 105.5t7 72.5q-8 -16 -34.5 -67.5t-53.5 -90.5z" />
<glyph unicode="&#xe7;" horiz-adv-x="1142" d="M109 508q0 150 69.5 268.5t187 186t259.5 67.5q137 0 233 -49t168 -147l-59 -46q-125 170 -342 170q-123 0 -221.5 -59t-154.5 -162.5t-56 -228.5q0 -127 55 -230.5t152.5 -163t217.5 -59.5q233 0 365 178l61 -45q-143 -205 -426 -204h-18v-105q68 -8 116 -55t48 -119 q0 -80 -54.5 -126t-129.5 -46q-70 0 -120 34t-73 85l62 37q43 -88 129 -88q45 0 75.5 28.5t30.5 77.5t-31.5 81t-95.5 32h-31v172q-118 22 -213.5 93t-149.5 180.5t-54 242.5z" />
<glyph unicode="&#xe8;" horiz-adv-x="909" d="M172 0v1014h602v-72h-520v-512h467v-72h-467v-286h541v-72h-623zM272 1556h95l153 -399h-67z" />
<glyph unicode="&#xe9;" horiz-adv-x="909" d="M172 0v1014h602v-72h-520v-512h467v-72h-467v-286h541v-72h-623zM444 1157l154 399h94l-180 -399h-68z" />
<glyph unicode="&#xea;" horiz-adv-x="909" d="M172 0v1014h602v-72h-520v-512h467v-72h-467v-286h541v-72h-623zM238 1151l231 373h18l232 -373h-72l-168 244l-170 -244h-71z" />
<glyph unicode="&#xeb;" horiz-adv-x="909" d="M172 0v1014h602v-72h-520v-512h467v-72h-467v-286h541v-72h-623zM258 1272q0 27 19.5 46t46.5 19t46 -19.5t19 -45.5q0 -27 -19.5 -46.5t-45.5 -19.5q-27 0 -46.5 19.5t-19.5 46.5zM569 1272q0 27 19.5 46t46.5 19t46 -19.5t19 -45.5q0 -27 -19 -46.5t-46 -19.5 t-46.5 19.5t-19.5 46.5z" />
<glyph unicode="&#xec;" horiz-adv-x="438" d="M4 1556h94l154 -399h-68zM178 0v1014h82v-1014h-82z" />
<glyph unicode="&#xed;" horiz-adv-x="438" d="M174 1157l154 399h94l-180 -399h-68zM178 0v1014h82v-1014h-82z" />
<glyph unicode="&#xee;" horiz-adv-x="438" d="M-29 1151l232 373h18l232 -373h-72l-168 244l-170 -244h-72zM178 0v1014h82v-1014h-82z" />
<glyph unicode="&#xef;" horiz-adv-x="438" d="M-8 1272q0 27 19.5 46t45.5 19q27 0 46.5 -19.5t19.5 -45.5q0 -27 -19.5 -46.5t-46.5 -19.5q-26 0 -45.5 19.5t-19.5 46.5zM178 0v1014h82v-1014h-82zM303 1272q0 27 19.5 46t46.5 19t46 -19.5t19 -45.5q0 -27 -19.5 -46.5t-45.5 -19.5q-27 0 -46.5 19.5t-19.5 46.5z" />
<glyph unicode="&#xf0;" horiz-adv-x="1060" d="M47 365v69h125v582h246q164 0 284.5 -64.5t186 -179.5t65.5 -264q0 -150 -64.5 -265.5t-186 -179t-285.5 -63.5h-246v365h-125zM254 72h156q223 0 340.5 118.5t117.5 317.5q0 197 -117.5 315.5t-340.5 118.5h-156v-508h285v-69h-285v-293z" />
<glyph unicode="&#xf1;" horiz-adv-x="1118" d="M172 0v1026h18l598 -737q25 -29 54.5 -75t38.5 -60q-2 14 -5.5 59t-3.5 86v717h78v-1028h-18l-602 743q-21 27 -50.5 73t-39.5 62q2 -14 6 -61t4 -90v-715h-78zM285 1147q4 94 45 146.5t108 52.5q41 0 72 -17.5t74 -60.5q41 -41 58 -51.5t42 -10.5q68 0 80 133l70 -6 q-10 -197 -152 -196q-41 0 -70.5 18.5t-74.5 61.5q-41 39 -57.5 49t-43.5 10q-70 0 -82 -135z" />
<glyph unicode="&#xf2;" horiz-adv-x="1267" d="M106 508q0 150 72 269.5t193 186t264 66.5t264 -66.5t191.5 -186.5t70.5 -269q0 -150 -70.5 -269.5t-191.5 -187t-264 -67.5t-264 67.5t-193 187t-72 269.5zM190 508q0 -127 57.5 -230.5t159 -163t228.5 -59.5t227.5 59.5t157.5 163t57 230.5t-57 229.5t-157.5 161.5 t-227.5 59t-228.5 -59t-159 -161.5t-57.5 -229.5zM424 1556h94l154 -399h-68z" />
<glyph unicode="&#xf3;" horiz-adv-x="1267" d="M106 508q0 150 72 269.5t193 186t264 66.5t264 -66.5t191.5 -186.5t70.5 -269q0 -150 -70.5 -269.5t-191.5 -187t-264 -67.5t-264 67.5t-193 187t-72 269.5zM190 508q0 -127 57.5 -230.5t159 -163t228.5 -59.5t227.5 59.5t157.5 163t57 230.5t-57 229.5t-157.5 161.5 t-227.5 59t-228.5 -59t-159 -161.5t-57.5 -229.5zM594 1157l154 399h94l-180 -399h-68z" />
<glyph unicode="&#xf4;" horiz-adv-x="1267" d="M106 508q0 150 72 269.5t193 186t264 66.5t264 -66.5t191.5 -186.5t70.5 -269q0 -150 -70.5 -269.5t-191.5 -187t-264 -67.5t-264 67.5t-193 187t-72 269.5zM190 508q0 -127 57.5 -230.5t159 -163t228.5 -59.5t227.5 59.5t157.5 163t57 230.5t-57 229.5t-157.5 161.5 t-227.5 59t-228.5 -59t-159 -161.5t-57.5 -229.5zM391 1151l232 373h18l231 -373h-71l-168 244l-170 -244h-72z" />
<glyph unicode="&#xf5;" horiz-adv-x="1267" d="M106 508q0 150 72 269.5t193 186t264 66.5t264 -66.5t191.5 -186.5t70.5 -269q0 -150 -70.5 -269.5t-191.5 -187t-264 -67.5t-264 67.5t-193 187t-72 269.5zM190 508q0 -127 57.5 -230.5t159 -163t228.5 -59.5t227.5 59.5t157.5 163t57 230.5t-57 229.5t-157.5 161.5 t-227.5 59t-228.5 -59t-159 -161.5t-57.5 -229.5zM358 1147q4 94 45 146.5t109 52.5q41 0 71.5 -17.5t73.5 -60.5q41 -41 58.5 -51.5t42.5 -10.5q68 0 80 133l69 -6q-10 -197 -151 -196q-41 0 -71 18.5t-75 61.5q-41 39 -57 49t-43 10q-70 0 -82 -135z" />
<glyph unicode="&#xf6;" horiz-adv-x="1267" d="M106 508q0 150 72 269.5t193 186t264 66.5t264 -66.5t191.5 -186.5t70.5 -269q0 -150 -70.5 -269.5t-191.5 -187t-264 -67.5t-264 67.5t-193 187t-72 269.5zM190 508q0 -127 57.5 -230.5t159 -163t228.5 -59.5t227.5 59.5t157.5 163t57 230.5t-57 229.5t-157.5 161.5 t-227.5 59t-228.5 -59t-159 -161.5t-57.5 -229.5zM412 1272q0 27 19.5 46t45.5 19q27 0 46.5 -19.5t19.5 -45.5q0 -27 -19.5 -46.5t-46.5 -19.5q-26 0 -45.5 19.5t-19.5 46.5zM723 1272q0 27 19.5 46t45.5 19q27 0 46.5 -19.5t19.5 -45.5q0 -27 -19.5 -46.5t-46.5 -19.5 q-26 0 -45.5 19.5t-19.5 46.5z" />
<glyph unicode="&#xf7;" d="M166 465v74h690v-74h-690zM432 199q0 33 23.5 55t54.5 22t54.5 -22.5t23.5 -54.5q0 -33 -23.5 -55.5t-54.5 -22.5t-54.5 23.5t-23.5 54.5zM432 805q0 33 23.5 55.5t54.5 22.5t54.5 -22.5t23.5 -55.5t-23.5 -55.5t-54.5 -22.5t-54.5 23.5t-23.5 54.5z" />
<glyph unicode="&#xf8;" horiz-adv-x="1267" d="M106 508q0 150 72 269.5t193 186t264 66.5q205 0 348 -125l123 123l49 -49l-123 -123q129 -141 129 -348q0 -150 -70.5 -269.5t-191.5 -187t-264 -67.5q-201 0 -348 127l-125 -125l-49 49l123 123q-129 145 -130 350zM190 508q0 -172 99 -297l641 641q-117 106 -295 106 q-127 0 -228.5 -59t-159 -161.5t-57.5 -229.5zM338 162q119 -107 297 -107q127 0 227.5 59.5t157.5 163t57 230.5q0 174 -98 295z" />
<glyph unicode="&#xf9;" horiz-adv-x="1032" d="M164 342v672h82v-666q0 -147 71.5 -220t198.5 -73t198.5 73t71.5 220v666h82v-672q0 -172 -97 -265t-255 -93t-255 93t-97 265zM307 1556h94l154 -399h-68z" />
<glyph unicode="&#xfa;" horiz-adv-x="1032" d="M164 342v672h82v-666q0 -147 71.5 -220t198.5 -73t198.5 73t71.5 220v666h82v-672q0 -172 -97 -265t-255 -93t-255 93t-97 265zM477 1157l154 399h94l-180 -399h-68z" />
<glyph unicode="&#xfb;" horiz-adv-x="1032" d="M164 342v672h82v-666q0 -147 71.5 -220t198.5 -73t198.5 73t71.5 220v666h82v-672q0 -172 -97 -265t-255 -93t-255 93t-97 265zM274 1151l232 373h18l232 -373h-72l-168 244l-170 -244h-72z" />
<glyph unicode="&#xfc;" horiz-adv-x="1032" d="M164 342v672h82v-666q0 -147 71.5 -220t198.5 -73t198.5 73t71.5 220v666h82v-672q0 -172 -97 -265t-255 -93t-255 93t-97 265zM295 1272q0 27 19.5 46t45.5 19q27 0 46.5 -19.5t19.5 -45.5q0 -27 -19.5 -46.5t-46.5 -19.5q-26 0 -45.5 19.5t-19.5 46.5zM606 1272 q0 27 19.5 46t46.5 19t46 -19.5t19 -45.5q0 -27 -19.5 -46.5t-45.5 -19.5q-27 0 -46.5 19.5t-19.5 46.5z" />
<glyph unicode="&#xfd;" horiz-adv-x="1017" d="M86 1014h90l281 -514q18 -33 34.5 -76t20.5 -55q4 14 22.5 56t34.5 75l277 514h88l-381 -699v-315h-82v311zM469 1157l154 399h94l-180 -399h-68z" />
<glyph unicode="&#xfe;" horiz-adv-x="948" d="M172 0v1016h82v-123h182q195 0 295 -104.5t100 -274.5q0 -168 -101 -272.5t-294 -104.5h-182v-137h-82zM254 207h176q166 0 243 84t77 223q0 143 -76 226t-244 83h-176v-616z" />
<glyph unicode="&#xff;" horiz-adv-x="1017" d="M86 1014h90l281 -514q18 -33 34.5 -76t20.5 -55q4 14 22.5 56t34.5 75l277 514h88l-381 -699v-315h-82v311zM287 1272q0 27 19.5 46t45.5 19q27 0 46.5 -19.5t19.5 -45.5q0 -27 -19.5 -46.5t-46.5 -19.5q-26 0 -45.5 19.5t-19.5 46.5zM598 1272q0 27 19.5 46t46.5 19 t46 -19.5t19 -45.5q0 -27 -19.5 -46.5t-45.5 -19.5q-27 0 -46.5 19.5t-19.5 46.5z" />
<glyph unicode="&#x152;" horiz-adv-x="2013" d="M117 696q0 207 87 365t253 245t395 87h1012v-74h-729v-746h653v-73h-653v-426h757v-74h-1040q-227 0 -394 87t-254 244.5t-87 364.5zM203 696q0 -184 73.5 -324.5t222 -218t363.5 -77.5h189v1241h-189q-215 0 -363.5 -78t-222 -218t-73.5 -325z" />
<glyph unicode="&#x153;" horiz-adv-x="1525" d="M109 506q0 150 65.5 265.5t189 179t293.5 63.5h732v-72h-523v-512h469v-72h-469v-286h545v-72h-754q-170 0 -293.5 63.5t-189 178t-65.5 264.5zM193 506q0 -199 119.5 -316.5t353.5 -117.5h118v870h-118q-233 0 -353 -118.5t-120 -317.5z" />
<glyph unicode="&#x178;" horiz-adv-x="1316" d="M90 1393h94l445 -807q12 -20 21 -48t12 -36q2 8 13 35.5t23 48.5l443 807h88l-527 -961v-432h-86v434zM436 1661q0 27 19.5 46t46.5 19t46 -19t19 -46t-19.5 -46.5t-45.5 -19.5q-27 0 -46.5 19.5t-19.5 46.5zM748 1661q0 27 19 46t46 19t46.5 -19t19.5 -46t-19.5 -46.5 t-46.5 -19.5t-46 19.5t-19 46.5z" />
<glyph unicode="&#x2c6;" d="M270 1012l232 372h18l232 -372h-72l-168 243l-170 -243h-72z" />
<glyph unicode="&#x2dc;" d="M238 1008q4 94 45 146t108 52q41 0 72 -17.5t74 -60.5q41 -41 58 -51t42 -10q68 0 80 133l69 -6q-10 -197 -151 -197q-41 0 -70.5 18.5t-75.5 61.5q-41 39 -57 49.5t-43 10.5q-70 0 -82 -136z" />
<glyph unicode="&#x2000;" horiz-adv-x="973" />
<glyph unicode="&#x2001;" horiz-adv-x="1946" />
<glyph unicode="&#x2002;" horiz-adv-x="973" />
<glyph unicode="&#x2003;" horiz-adv-x="1946" />
<glyph unicode="&#x2004;" horiz-adv-x="648" />
<glyph unicode="&#x2005;" horiz-adv-x="486" />
<glyph unicode="&#x2006;" horiz-adv-x="324" />
<glyph unicode="&#x2007;" horiz-adv-x="324" />
<glyph unicode="&#x2008;" horiz-adv-x="243" />
<glyph unicode="&#x2009;" horiz-adv-x="389" />
<glyph unicode="&#x200a;" horiz-adv-x="108" />
<glyph unicode="&#x2010;" horiz-adv-x="569" d="M104 426v74h359v-74h-359z" />
<glyph unicode="&#x2011;" horiz-adv-x="569" d="M104 426v74h359v-74h-359z" />
<glyph unicode="&#x2012;" horiz-adv-x="569" d="M104 426v74h359v-74h-359z" />
<glyph unicode="&#x2013;" horiz-adv-x="796" d="M78 330v69h639v-69h-639z" />
<glyph unicode="&#x2014;" horiz-adv-x="1243" d="M78 330v69h1087v-69h-1087z" />
<glyph unicode="&#x2018;" horiz-adv-x="364" d="M102 1114q0 14 11 39l108 240h51l-65 -205q23 -4 39 -25.5t16 -48.5q0 -33 -24.5 -57.5t-55.5 -24.5q-30 0 -55 24.5t-25 57.5z" />
<glyph unicode="&#x2019;" horiz-adv-x="364" d="M92 1047l66 204q-23 4 -39.5 25.5t-16.5 48.5q0 33 25 57.5t55 24.5q31 0 55.5 -24.5t24.5 -57.5q0 -14 -10 -39l-109 -239h-51z" />
<glyph unicode="&#x201a;" horiz-adv-x="364" d="M92 -211l66 205q-23 4 -39.5 25.5t-16.5 48.5q0 33 25 57.5t55 24.5q31 0 55.5 -25t24.5 -57q0 -14 -10 -39l-109 -240h-51z" />
<glyph unicode="&#x201c;" horiz-adv-x="632" d="M102 1114q0 14 11 39l108 240h51l-65 -205q23 -4 39 -25.5t16 -48.5q0 -33 -24.5 -57.5t-55.5 -24.5q-30 0 -55 24.5t-25 57.5zM371 1114q0 14 10 39l108 240h52l-66 -205q23 -4 39 -25.5t16 -48.5q0 -33 -24.5 -57.5t-54.5 -24.5q-31 0 -55.5 24.5t-24.5 57.5z" />
<glyph unicode="&#x201d;" horiz-adv-x="632" d="M92 1047l66 204q-23 4 -39.5 25.5t-16.5 48.5q0 33 25 57.5t55 24.5q31 0 55.5 -24.5t24.5 -57.5q0 -14 -10 -39l-109 -239h-51zM360 1047l66 204q-23 4 -39 25.5t-16 48.5q0 33 24.5 57.5t55.5 24.5t55 -24.5t24 -57.5q0 -14 -10 -39l-108 -239h-52z" />
<glyph unicode="&#x201e;" horiz-adv-x="632" d="M92 -211l66 205q-23 4 -39.5 25.5t-16.5 48.5q0 33 25 57.5t55 24.5q31 0 55.5 -25t24.5 -57q0 -14 -10 -39l-109 -240h-51zM360 -211l66 205q-23 4 -39 25.5t-16 48.5q0 33 24.5 57.5t55.5 24.5t55 -25t24 -57q0 -14 -10 -39l-108 -240h-52z" />
<glyph unicode="&#x2022;" horiz-adv-x="571" d="M104 522q0 76 54.5 128t128.5 52t127 -52t53 -128q0 -74 -53.5 -127t-126.5 -53q-74 0 -128.5 53.5t-54.5 126.5z" />
<glyph unicode="&#x2026;" horiz-adv-x="1142" d="M102 68q0 35 25 58.5t57 23.5q33 0 57.5 -24t24.5 -58q0 -33 -24.5 -57.5t-57.5 -24.5q-30 0 -56 24.5t-26 57.5zM489 68q0 35 25 58.5t57 23.5q33 0 57.5 -24t24.5 -58q0 -33 -24.5 -57.5t-57.5 -24.5q-30 0 -56 24.5t-26 57.5zM877 68q0 35 24.5 58.5t56.5 23.5 q33 0 57.5 -24t24.5 -58q0 -33 -24.5 -57.5t-57.5 -24.5q-30 0 -55.5 24.5t-25.5 57.5z" />
<glyph unicode="&#x202f;" horiz-adv-x="389" />
<glyph unicode="&#x2039;" horiz-adv-x="450" d="M84 397v17l190 315h93l-195 -323l195 -324h-93z" />
<glyph unicode="&#x203a;" horiz-adv-x="450" d="M84 82l195 324l-195 323h92l191 -315v-17l-191 -315h-92z" />
<glyph unicode="&#x205f;" horiz-adv-x="486" />
<glyph unicode="&#x20ac;" d="M47 340v66h148q-6 47 -7 100q0 41 2 59h-143v66h152q29 182 135 290.5t262 108.5q117 0 195.5 -50t138.5 -149l-66 -40q-53 88 -110.5 126.5t-157.5 38.5q-125 0 -208 -88t-107 -237h401v-66h-410q-2 -18 -2 -59q0 -51 6 -100h406v-66h-393q31 -131 110.5 -207t198.5 -76 q100 0 165.5 45t115.5 129l69 -36q-123 -211 -350 -211q-145 0 -249.5 96t-141.5 260h-160z" />
<glyph unicode="&#x2122;" horiz-adv-x="1499" d="M111 1325v68h458v-68h-190v-534h-76v534h-192zM715 791v612h16l291 -342l291 342h16v-612h-76v444l-221 -266h-20l-221 266v-444h-76z" />
<glyph unicode="&#x25fc;" horiz-adv-x="1013" d="M0 0v1014h1014v-1014h-1014z" />
<glyph unicode="&#xfb01;" horiz-adv-x="1318" d="M172 0v1014h598v-72h-516v-512h471v-72h-471v-358h-82zM1059 0v1016h82v-1016h-82z" />
<glyph unicode="&#xfb02;" horiz-adv-x="1703" d="M172 0v1014h598v-72h-516v-512h471v-72h-471v-358h-82zM1053 0v1014h82v-942h485v-72h-567z" />
<glyph unicode="&#xfb03;" horiz-adv-x="2199" d="M172 0v1014h598v-72h-516v-512h471v-72h-471v-358h-82zM1053 0v1014h598v-72h-516v-512h471v-72h-471v-358h-82zM1939 0v1016h82v-1016h-82z" />
<glyph unicode="&#xfb04;" horiz-adv-x="2584" d="M172 0v1014h598v-72h-516v-512h471v-72h-471v-358h-82zM1053 0v1014h598v-72h-516v-512h471v-72h-471v-358h-82zM1933 0v1014h82v-942h486v-72h-568z" />
</font>
</defs>
</svg>
