<?xml version="1.0" standalone="no"?>
<!DOCTYPE svg PUBLIC "-//W3C//DTD SVG 1.1//EN" "http://www.w3.org/Graphics/SVG/1.1/DTD/svg11.dtd">
<svg xmlns="http://www.w3.org/2000/svg">
<metadata>Generated by Fontastic.me</metadata>
<defs>
<font id="mco-icons" horiz-adv-x="512">
<font-face font-family="mco-icons" units-per-em="512" ascent="480" descent="-32"/>
<missing-glyph horiz-adv-x="512" />

<glyph unicode="&#97;" d="M14 198l0 205c0 9 4 13 13 13l233 0c3 0 5-1 7-3c1-1 2-3 2-5l0-224c0-3-1-6-3-8c-1-3-4-4-7-4l-56 0c-4 0-8 2-11 5c-3 3-5 7-5 11c0 15-7 29-22 42c-15 14-31 21-49 21c-8 0-15-1-22-3c-7-2-13-5-18-8c-5-2-10-6-14-10c-5-5-8-8-11-11c-2-3-4-6-7-11c-3-4-4-7-4-8c-1-1-1-2-2-4c-2-6-6-8-12-8c-3 0-7 1-10 4c-2 0-2 3-2 6z m41-21c0 16 6 31 17 42c12 12 26 18 43 18c16 0 30-6 42-18c11-11 17-26 17-42c0-16-6-30-17-42c-12-12-26-17-42-17c-17 0-31 5-43 17c-11 12-17 26-17 42z m32 0c0-8 3-14 8-19c5-6 12-8 20-8c7 0 14 2 19 8c5 5 8 11 8 19c0 8-3 14-8 19c-5 6-12 8-19 8c-8 0-15-2-20-8c-5-5-8-11-8-19z m10 0c0 4 2 8 6 12c3 4 7 6 12 6c4 0 8-2 11-6c4-4 6-8 6-12c0-4-2-8-6-12c-3-4-7-5-11-5c-5 0-9 1-12 5c-4 4-6 8-6 12z m186 7l0 202c0 3 1 5 3 7c2 1 4 2 7 2l147 0c6 0 10-3 12-9l28-89c12 0 18-7 18-20l0-79c0-3 0-6-2-6c-3-3-7-4-10-4c-6 0-10 2-12 8c-1 2-1 3-2 4c0 1-2 4-4 8c-3 4-5 8-8 11c-2 3-5 7-10 11c-5 4-9 8-14 10c-5 3-11 6-18 8c-7 2-15 3-22 3c-19 0-35-7-49-21c-15-13-22-27-22-42c0-4-2-8-5-11c-3-3-7-5-11-5l-16 0c-3 0-5 1-7 4c-2 2-3 5-3 8z m54-7c0 16 5 31 17 42c12 12 26 18 42 18c17 0 31-6 42-18c12-11 18-26 18-42c0-16-6-30-18-42c-11-12-25-17-42-17c-16 0-30 5-42 17c-12 12-17 26-17 42z m0 197l5-70l9 0c38 0 73-2 105-7l-23 77z m32-197c0-8 2-14 8-19c5-6 11-8 19-8c8 0 14 2 20 8c5 5 8 11 8 19c0 8-3 14-8 19c-6 6-12 8-20 8c-8 0-14-2-19-8c-6-5-8-11-8-19z m10 0c0 4 1 8 5 12c4 4 8 6 12 6c4 0 8-2 12-6c4-4 6-8 6-12c0-4-2-8-6-12c-4-4-8-5-12-5c-4 0-8 1-12 5c-4 4-5 8-5 12z"/>
<glyph unicode="&#98;" d="M113 252l133-187c2-3 6-5 10-5c0 0 0 0 0 0c5 0 9 2 11 5l132 187c3 4 4 9 1 13c-2 4-6 7-11 7l-62 0l0 167c0 8-6 13-13 13l-116 0c-7 0-13-5-13-13l0-167l-62 0c-5 0-9-3-11-7c-3-4-2-10 1-13z"/>
<glyph unicode="&#99;" d="M252 399l-187-133c-3-2-5-6-5-10c0 0 0 0 0 0c0-5 2-9 5-11l187-132c4-3 9-4 13-1c4 2 7 6 7 11l0 62l167 0c8 0 13 6 13 13l0 116c0 7-5 13-13 13l-167 0l0 62c0 5-3 9-7 11c-4 3-10 2-13-1z"/>
<glyph unicode="&#100;" d="M260 113l187 133c3 2 5 6 5 10c0 0 0 0 0 0c0 5-2 9-5 11l-187 132c-4 3-9 4-13 1c-4-2-7-6-7-11l0-62l-167 0c-8 0-13-6-13-13l0-116c0-7 5-13 13-13l167 0l0-62c0-5 3-9 7-11c4-3 10-2 13 1z"/>
<glyph unicode="&#101;" d="M399 260l-133 187c-2 3-6 5-10 5c0 0 0 0 0 0c-5 0-9-2-11-5l-132-187c-3-4-4-9-1-13c2-4 6-7 11-7l62 0l0-167c0-8 6-13 13-13l116 0c7 0 13 5 13 13l0 167l62 0c5 0 9 3 11 7c3 4 2 10-1 13z"/>
<glyph unicode="&#103;" d="M451 357l-66 66c-3 2-6 4-9 4c-3 0-7-2-9-4l-176-176l-46 47c-5 5-13 5-18 0l-66-66c-2-3-3-6-3-9c0-3 1-7 3-9l121-121c3-2 6-4 9-4c0 0 0 1 0 1c1 0 1-1 1-1c3 0 6 2 9 4l250 250c5 5 5 13 0 18z"/>
<glyph unicode="&#104;" d="M440 409l-368 0c-7 0-13-6-13-13l0-27c0-1 1-2 2-3l194-110c0-1 1-1 1-1c1 0 2 0 2 1l188 110c1 1 3 2 5 3c1 1 2 1 2 3l0 24c0 7-6 13-13 13z m11-80c-1 1-2 1-3 0l-106-62c-1 0-1-1-2-2c0-1 1-2 1-3l106-115c1 0 2-1 3-1c0 0 1 1 1 1c1 0 2 1 2 3l0 177c0 1 0 2-2 2z m-140-83c-1 1-2 1-4 1l-42-25c-5-3-12-3-17-1l-37 22c-1 1-3 0-4-1l-142-131c-1-1-1-2-1-3c0-1 1-2 1-3c3-1 5-2 7-2l364 0c2 0 3 1 3 2c1 2 1 3 0 4z m-135 12c1 1 1 2 1 3c0 1-1 2-2 2l-111 64c-1 1-2 0-4 0c-1-1-1-2-1-3l0-167c0-1 1-2 2-3c0 0 1 0 1 0c1 0 2 0 2 1z"/>
<glyph unicode="&#105;" d="M291 459c-91 0-164-74-164-164c0-31 8-60 23-85l-79-79l0 0c-8-8-14-20-14-33c0-25 21-45 46-45c12 0 24 5 32 14l0-1l82 82c22-11 47-17 74-17c90 0 164 73 164 164c0 90-74 164-164 164z m1-263c-57 0-103 45-103 102c0 56 46 102 103 102c56 0 102-46 102-102c0-57-46-102-102-102z"/>
<glyph unicode="&#106;" d="M195 397c0-11 0-63 0-63l-47 0l0-78l47 0l0-230l95 0l0 230l65 0c0 0 6 37 8 78c-8 0-72 0-72 0c0 0 0 45 0 53c0 8 10 19 21 19c10 0 31 0 52 0c0 10 0 47 0 80c-27 0-58 0-71 0c-100 0-98-77-98-89z"/>
<glyph unicode="&#107;" d="M381 485c-41-26-83-4-114 0c-135 18-178-140-80-203c-25-13-23-80 4-90c-64-7-76-97-42-134c42-45 171-42 208 0c26 29 30 89 7 117c-21 25-126 29-125 69c2 28 40 23 63 34c43 21 69 83 52 131c9 2 18 5 27 7z m-166-145c-50 111 117 103 66 0c-17-12-49-13-66 0z m94-217c4-49-96-51-108-17c-9 29 3 38 32 45c32 8 73 6 76-28z"/>
<glyph unicode="&#108;" d="M486 206l0-170l-98 0l0 159c0 40-15 67-50 67c-28 0-44-18-51-36c-3-7-3-15-3-24l0-166l-99 0c0 0 1 269 0 297l99 0l0-42c-1 0-1-1-1-1l1 0l0 1c13 20 36 49 89 49c65 0 113-43 113-134z m-404 270c-34 0-56-22-56-51c0-29 21-52 54-52l1 0c34 0 56 23 56 52c-1 29-22 51-55 51z m-51-440l99 0l0 297l-99 0z"/>
<glyph unicode="&#109;" d="M323 486l-202 0l-89-410l118 0l29 136l85 0c81 0 148 50 166 135c21 96-48 139-107 139z m-88-195l-39 0l25 112l58 0c20 0 35-12 40-29c-2 0-5 1-7 1l-58 0z m84 56c-7-31-36-55-65-56l14 61l52 0c0-2 0-3-1-5z m144-28c6 31 3 57-6 78c19-23 29-56 20-101c-19-85-86-134-167-134l-85 0l-29-136l-118 0l5 22l99 0l29 136l85 0c81 0 148 50 167 135z"/>
<glyph unicode="&#110;" d="M419 456c-64 2-107-34-130-108c12 5 23 7 34 7c23 0 34-13 31-39c-1-16-12-39-31-70c-19-30-34-46-43-46c-13 0-24 24-34 71c-4 14-10 49-19 106c-8 52-30 77-66 73c-15-1-38-15-68-41c-22-20-45-40-67-60l21-28c21 14 33 22 36 22c16 0 31-25 45-75c12-46 25-91 37-137c19-50 41-75 68-75c44 0 97 41 159 123c61 78 92 139 94 184c3 60-19 91-67 93z"/>
<glyph unicode="&#111;" d="M465 221c2 10 3 22 3 33c0 118-96 214-214 214c-11 0-22-1-33-3c-20 12-43 19-68 19c-71 0-129-57-129-129c0-25 7-48 19-68c-2-11-2-22-2-33c0-118 95-214 213-214c12 0 23 1 34 3c19-12 43-19 68-19c71 0 129 57 129 129c0 25-7 48-20 68z m-109-64c-9-13-23-23-40-31c-17-7-38-11-62-11c-28 0-52 5-70 15c-13 7-24 17-32 29c-9 12-13 24-13 36c0 6 3 12 8 17c5 5 12 7 19 7c7 0 12-2 16-5c5-4 9-10 12-17c3-8 7-15 11-21c4-5 10-10 18-14c7-3 17-5 30-5c17 0 31 4 41 11c11 7 16 16 16 27c0 9-3 15-8 21c-6 5-13 9-23 12c-9 3-21 6-36 9c-21 5-38 10-52 16c-14 6-26 15-34 25c-8 11-12 24-12 39c0 15 4 28 13 40c9 11 21 20 38 26c16 7 35 10 58 10c17 0 33-2 46-6c13-5 23-10 32-17c9-7 15-14 19-21c4-8 6-15 6-22c0-7-3-13-8-18c-5-6-11-8-19-8c-7 0-12 1-16 5c-3 3-7 8-11 15c-5 10-11 18-19 23c-7 6-18 8-34 8c-15 0-27-3-36-9c-9-6-13-13-13-21c0-5 1-9 4-13c3-4 7-7 13-10c5-3 11-5 16-6c6-2 15-4 28-7c16-4 31-8 44-12c13-4 24-9 34-15c9-7 16-14 22-24c5-9 7-21 7-34c0-17-4-31-13-44z"/>
<glyph unicode="&#112;" d="M389 149l-25 0l0 15c0 7 5 12 12 12l1 0c7 0 12-5 12-12z m-95 32c-6 0-12-4-12-10l0-71c0-5 6-10 12-10c6 0 12 5 12 10l0 71c0 6-6 10-12 10z m154 40l0-136c0-33-28-59-63-59l-258 0c-35 0-63 26-63 59l0 136c0 32 28 59 63 59l258 0c35 0 63-27 63-59z m-304-151l0 143l32 0l0 21l-85 1l0-21l26 0l0-144z m96 122l-27 0l0-76c0-12 1-17 0-19c-2-6-12-12-15-1c-1 2 0 8 0 19l-1 77l-26 0l0-76c0-11 0-20 0-24c1-7 0-15 7-20c12-8 35 2 41 14l0-16l21 0l0 122z m85-88l0 64c0 24-18 39-42 19l0 47l-27 0l0-163l22 0l2 11c28-26 46-8 45 22z m84 9l-20 0c0-1 0-2 0-3l0-11c0-6-5-11-11-11l-4 0c-6 0-11 5-11 11l0 29l46 0l0 17c0 13 0 26-1 33c-4 23-36 26-52 15c-5-4-9-9-11-15c-2-7-3-16-3-27l0-38c0-63 76-54 67 0z m-103 206c2-4 4-6 7-8c3-2 6-3 11-3c4 0 7 1 10 3c3 2 5 5 7 9l0-10l30 0l0 127l-24 0l0-99c0-5-4-10-10-10c-5 0-9 5-9 10l0 99l-25 0l0-86c0-11 0-18 1-22c0-3 1-7 2-10z m-90 71c0 12 1 22 3 29c2 7 6 12 11 16c5 4 12 6 20 6c7 0 13-1 18-4c5-2 9-6 11-10c3-4 5-9 6-13c1-5 1-12 1-21l0-32c0-12 0-20-1-26c-1-5-3-10-6-15c-3-5-7-8-11-11c-5-2-10-3-16-3c-7 0-13 1-18 3c-4 2-8 5-11 9c-2 4-4 8-5 14c-1 5-2 14-2 25l0 33z m23-50c0-7 6-13 12-13c7 0 12 6 12 13l0 67c0 8-5 13-12 13c-6 0-12-5-12-13z m-82-34l28 0l0 97l33 83l-30 0l-18-62l-18 62l-30 0l35-83z"/>
<glyph unicode="&#113;" d="M130 130c11-11 18-26 18-43c0-17-7-32-18-43l0 0c-11-11-26-18-43-18c-17 0-32 7-43 18c-12 11-18 26-18 43c0 17 6 32 18 43l0 0c11 11 26 18 43 18c17 0 32-7 43-18z m0 0l0 0c0 0 0 0 0 0z m-86-86c0 0 0 0 0 0c0 0 0 0 0 0z m-18 286l0-88c57 0 111-23 152-64c41-40 63-95 63-152l0 0l0 0l89 0c0 83-34 159-90 214c-55 56-131 90-214 90z m0 156l0-88c205 0 372-167 372-372l88 0c0 127-51 242-135 325c-83 84-198 135-325 135z"/>
<glyph unicode="&#114;" d="M280 451c16 20 44 34 67 35c3-27-8-54-24-73c-16-20-42-35-68-33c-3 27 10 54 25 71z m131-368c-19-28-39-56-70-57c-31 0-41 19-76 19c-35 0-46-18-75-19c-30-2-53 30-73 58c-39 57-69 162-29 232c20 35 56 57 95 58c30 0 58-20 76-20c18 0 52 25 88 21c15-1 57-6 84-46c-2-1-50-29-50-87c1-70 61-93 62-94c-1-1-10-33-32-65z"/>
<glyph unicode="&#115;" d="M218 486c7 0 10-3 10-10c0 0 0-440 0-440c0-7-3-10-10-10c0 0-23 0-23 0c-7 0-11 3-11 10c0 0 0 225 0 225c0 0-90 0-90 0c-5 0-10 1-14 3c-4 1-9 3-13 6c0 0-62 42-62 42c-3 2-5 5-5 9c0 3 2 6 5 8c0 0 62 42 62 42c4 3 9 5 13 6c3 1 7 2 14 2c0 0 90 0 90 0c0 0 0 97 0 97c0 7 4 10 11 10c0 0 23 0 23 0m289-106c3-2 5-5 5-8c0-4-2-6-5-8c0 0-61-42-61-42c-7-5-11-7-13-7c-5-2-9-3-14-3c0 0-155 0-155 0c0 0-20 118-20 118c0 0 175 0 175 0c6 0 11-1 14-2c4-1 8-3 13-6c0 0 61-42 61-42"/>
<glyph unicode="&#116;" d="M102 77c0 13 6 25 16 36c10 10 22 15 36 15c14 0 26-5 36-15c10-11 15-23 15-36c0-15-5-27-15-37c-10-9-22-14-36-14c-14 0-26 5-36 14c-10 10-16 22-16 37m256 0c0 13 6 25 16 36c10 10 22 15 36 15c14 0 26-5 36-15c10-11 15-23 15-36c0-15-5-27-15-37c-10-9-22-14-36-14c-14 0-26 5-36 14c-10 10-16 22-16 37m-164 121c-13-4-19-8-18-12c1-5 8-7 23-7c0 0 287 0 287 0c0 0 0-39 0-39c0-7-3-10-10-10c0 0-66 0-66 0c0 0-256 0-256 0c0 0-13 0-13 0c-7 0-10 3-10 10c0 0 0 39 0 39c0 0-5 24-5 24c0 0-50 232-50 232c0 0-50 0-50 0c0 0 0 41 0 41c0 7 3 10 10 10c0 0 80 0 80 0c7 0 10-3 10-10c0 0 0-44 0-44c0 0 360 0 360 0c0 0 0-140 0-140c0-8-3-12-9-13c0 0-283-81-283-81"/>
<glyph unicode="&#117;" d="M256 307c22 0 40-7 55-22c14-15 22-33 22-55c0-21-8-39-23-54c-15-15-33-22-54-22c-21 0-39 7-54 22c-15 15-23 33-23 54c0 22 8 40 23 55c15 15 33 22 54 22m205 77c14 0 26-5 36-15c10-10 15-22 15-36c0 0 0-231 0-231c0-13-5-25-15-35c-10-11-22-16-36-16c0 0-410 0-410 0c-13 0-25 5-36 16c-10 10-15 22-15 35c0 0 0 231 0 231c0 14 5 26 15 36c11 10 23 15 36 15c0 0 62 0 62 0c9 0 16 5 20 15c0 0 15 47 15 47c4 10 11 15 21 15c0 0 174 0 174 0c10 0 17-5 21-15c0 0 15-47 15-47c4-10 11-15 20-15c0 0 62 0 62 0m-205-282c36 0 66 13 91 38c25 25 37 55 37 90c0 36-12 66-37 91c-25 25-55 37-91 37c-35 0-66-12-91-37c-25-25-37-55-37-91c0-35 12-65 37-90c25-25 56-38 91-38m187 195c5 0 9 2 13 6c3 3 5 8 5 12c0 5-2 9-5 13c-4 3-8 5-13 5c-12 0-18-6-18-18c0-5 2-10 6-13c3-3 8-5 12-5"/>
<glyph unicode="&#118;" d="M288 454c58 0 107-21 148-62c40-41 61-90 61-148c0-58-21-108-61-149c-41-41-90-61-148-61c-49 0-92 15-129 45c0 0 36 38 36 38c28-21 59-31 93-31c43 0 80 15 110 46c31 31 46 68 46 112c0 43-15 81-46 111c-30 31-67 46-110 46c-43 0-79-14-110-44c-31-30-46-66-47-108c0 0 73 0 73 0c0 0-94-105-94-105c0 0-95 105-95 105c0 0 64 0 64 0c1 56 21 105 62 145c41 40 90 60 147 60"/>
<glyph unicode="&#119;" d="M256 492c65 0 120-24 166-70c46-46 70-101 70-166c0-65-24-120-70-166c-46-46-101-70-166-70c-65 0-120 24-166 70c-46 46-70 101-70 166c0 65 24 120 70 166c46 46 101 70 166 70m0-420c51 0 95 18 131 54c35 36 53 79 53 130c0 51-18 95-53 131c-36 35-80 53-131 53c-51 0-94-18-130-53c-36-36-54-80-54-131c0-51 18-94 54-130c36-36 79-54 130-54m18 317c0 0 0-125 0-125c0 0 77-77 77-77c0 0-25-25-25-25c0 0-87 87-87 87c0 0 0 140 0 140c0 0 35 0 35 0"/>
<glyph unicode="&#120;" d="M184 54l24 145c1 3 0 5-2 7c0 0 0 0 0 0c-2 2-5 3-7 3l-145-25c-3 0-5-2-6-5c-1-3 0-7 2-9l28-28l-76-76c-3-3-3-8 0-11l53-53c3-3 8-3 11 0l76 76l28-28c3-2 6-3 9-2c3 1 5 3 5 6z m144 404l-24-145c-1-3 0-5 2-7c0 0 0 0 0 0c2-2 5-3 7-3l145 25c3 0 5 2 6 5c1 3 0 7-2 9l-28 28l76 76c3 3 3 8 0 11l-53 53c-3 3-8 3-11 0l-76-76l-28 28c-3 2-6 3-9 2c-3-1-5-3-5-6z m130-274l-145 24c-3 1-5 0-7-2c0 0 0 0 0 0c-2-2-3-5-3-7l25-145c0-3 2-5 5-6c3-1 7 0 9 2l28 28l76-76c3-3 8-3 11 0l53 53c3 3 3 8 0 11l-76 76l28 28c2 3 3 6 2 9c-1 3-3 5-6 5z m-404 144l145-24c3-1 5 0 7 2c0 0 0 0 0 0c2 2 3 5 3 7l-25 145c0 3-2 5-5 6c-3 1-6 0-9-2l-28-28l-76 76c-3 3-8 3-11 0l-53-53c-3-3-3-8 0-11l76-76l-28-28c-2-3-3-6-2-9c1-3 3-5 6-5z"/>
<glyph unicode="&#121;" d="M24 154l-24-144c0-3 1-6 2-8c0 0 0 0 0 0c2-1 5-2 8-2l144 25c3 0 6 2 6 5c1 3 1 6-2 8l-28 29l76 75c3 4 3 9 0 12l-52 52c-3 4-9 4-12 0l-76-75l-28 28c-2 2-5 3-8 2c-3-1-5-4-6-7z m464 204l24 144c0 3-1 6-2 8c0 0 0 0 0 0c-2 1-5 2-8 2l-144-25c-3 0-6-2-6-5c-1-3-1-6 2-8l28-29l-76-75c-3-4-3-9 0-12l52-52c3-4 9-4 12 0l76 75l28-28c2-2 5-3 8-2c3 1 5 4 6 7z m-130-334l144-24c3 0 6 1 8 2c0 0 0 0 0 0c1 2 2 5 2 8l-25 144c0 3-2 6-5 6c-3 1-6 1-8-2l-29-28l-75 76c-4 3-9 3-12 0l-52-52c-4-3-4-9 0-12l75-76l-28-28c-2-2-3-5-2-8c1-3 4-5 7-6z m-204 464l-144 24c-3 0-6-1-8-2c0 0 0 0 0 0c-1-2-2-5-2-8l25-144c0-3 2-6 5-6c3-1 6-1 8 2l29 28l75-76c4-3 9-3 12 0l52 52c4 3 4 9 0 12l-75 76l28 28c2 2 3 5 2 8c-1 3-4 5-7 6z"/>
<glyph unicode="&#122;" d="M448 256c0 106-86 192-192 192c-106 0-192-86-192-192c0-106 86-192 192-192c34 0 66 9 94 25c3 1 5 4 5 7c0 3-2 6-4 7l0 0l-34 21l0 0c-1 1-3 2-5 2c-1 0-2 0-3-1l0 0c-17-6-34-10-53-10c-78 0-141 63-141 141c0 78 63 141 141 141c73 0 134-56 140-128c0-51-22-80-39-80c-10 0-17 7-17 21c0 2 1 8 1 11l22 101l-1 0c0 1 1 1 1 2c0 3-3 6-7 6l-37 0c-4 0-6-2-7-5l0 0l-4-18c-9 17-28 30-56 30c-52 0-102-50-102-111c0-43 26-75 70-75c24 0 49 14 65 36l0-3c4-17 51-39 78-39c39 0 85 27 85 102l0 0c0 3 0 6 0 9z m-158-35c-10-14-26-30-50-30c-23 0-37 16-37 40c0 33 26 65 62 65c20 0 32-13 36-23z"/>
<glyph unicode="&#65;" d="M339 269c19 10 31 27 28 55c-4 38-37 51-79 54l0 47c0 0 0 0 0 0c0 4-3 7-6 7l-20 0c-3 0-6-3-6-7l0 0l0-45c-9 0-17 0-26-1l0 46c0 0 0 0 0 0c0 4-3 7-6 7l-20 0c-3 0-6-3-6-7c0 0 0 0 0 0l0 0l0-47c-7 0-14 0-21 0l0 0l-45 0l0 0c-3 0-6-3-6-6l0-22c0-3 3-6 6-6c0 0 0 0 0 0l0 0c0 0 24 0 24 0c13 0 17-8 19-14l0-61l0 0l0-85c-1-4-3-11-13-11c1 0-23 0-23 0l0 0c0 0 0 0 0 0c-3 0-6-2-6-5l-1 0l-6-27l1 0c0 0-1 0-1 0c0-4 3-6 6-7l0 0l43 0c7 0 15 0 23 0l0-47l0 0c0-4 3-7 6-7l20 0c3 0 6 3 6 7l0 0l0 47c9-1 18-1 26-1l0-46l0 0c0-4 3-7 6-7l20 0c3 0 6 3 6 7c0 0 0 0 0 0l0 0l0 47c55 3 93 17 98 68c3 41-16 60-47 67z m-108 72c18 0 75 6 76-32c0-37-58-32-76-32z m0-168l0 71c22 0 91 6 91-36c0-40-69-35-91-35z"/>
<glyph unicode="&#102;" d="M350 445l-188 0c-8 0-15-7-15-16l0-351c0-6 5-11 11-11c3 0 6 1 8 3l0 0l82 83l1 0c1 2 4 3 7 3c3 0 6-1 8-3l0 0l81-82c2-2 5-4 9-4c6 0 11 5 11 11l0 351c0 9-7 16-15 16z"/>
<glyph unicode="&#66;" d="M453 256c0 5-2 9-5 11l0 0l-48 28l28 47l0 1c1 3 1 8-1 12c-2 4-6 6-10 7l0 0l-56 0l0 55l0 0c0 4-3 8-6 10c-4 2-9 2-13 1l0 0l-48-28l-27 46l0 0c-3 4-7 6-11 6c-5 0-9-2-11-6l-1 0l-27-47l-47 27l0 0c-4 2-8 2-12-1c-4-2-7-6-7-10l0 0l0-55l-55 0l0 0c-4 0-8-2-10-6c-2-4-2-9-1-13l0 0l27-46l-48-28l0 0c-3-3-5-7-5-11c0-5 2-9 5-11l0 0l48-28l-28-48l0 0c-1-3-1-8 1-12c2-4 6-6 11-7l0 0l55 0l0-55l0 0c0-4 3-8 6-10c4-2 9-2 13-1l0 0l48 28l27-46l0 0c3-4 7-6 11-6c5 0 9 2 11 6l1 0l27 47l47-27l0 0c4-2 8-2 12 1c4 2 7 6 7 10l0 0l0 55l55 0l0 0c4 0 8 2 10 6c2 4 2 9 1 13l0 0l-27 46l48 28l0 0c3 3 5 7 5 11z m-229-58l-51 22l23-38l-13-8l-34 59l13 8l49-21l-22 37l13 7l34-59z m24 14l-34 59l41 24l7-11l-29-17l7-13l28 17l7-11l-29-17l8-13l29 17l6-11z m96 55l-33 35l13-46l-14-8l-51 49l14 8l36-36l-14 49l10 5l36-36l-15 49l15 8l17-69z"/>
<glyph unicode="&#67;" d="M486 421c0 6-6 11-12 11l0 0l-271 0c-7 0-12-5-13-11l0 0l0-68l114 0c6 0 11-4 12-10l0 0l0-150l56 0l33-33c3-3 7-6 11-6c7 0 13 6 13 13l0 26l45 0l0 0c6 0 11 5 12 11l0 0l0 217z m-207-93l-242 0l0 0c-6 0-11-5-11-11l0 0l0-193l0 0c1-5 5-9 11-10l0 0l40 0l0-23c0-6 5-11 11-11c4 0 8 2 10 5l30 29l151 0c5 0 10 4 11 10l0 0l0 193l0 0c0 6-5 11-11 11z"/>
<glyph unicode="&#68;" d="M453 425c-1 9-8 16-17 16l-360 0l0 0c-9 0-16-7-17-16l0 0l0-288l0 0c2-8 9-14 17-14l0 0l59 0l0-35c0-9 8-17 17-17c6 0 11 3 14 8l45 44l225 0c8 0 15 6 17 14l0 0l0 288z"/>
<glyph unicode="&#69;" d="M278 283l0 51c17-4 33-12 47-24l0 0c1-1 2-1 4-1c1 0 3 1 4 2l0 0l22 31l0 0c1 1 1 2 1 4c0 1 0 3-2 4c-20 19-46 30-76 33l0 30l0 0c0 3-3 6-6 6l-23 0c-4 0-6-3-6-6l0-29c-51-5-81-38-81-75c0-51 42-66 81-76l0-58c-25 5-46 18-59 32c0 0-1 0-1 0c0 0 0 1 0 1l0 0c-1 0-2 1-4 1c-2 0-4-1-5-3l0 0l-21-32l0 0c-1-1-1-2-1-3c0-2 0-4 2-5l0 0c20-21 49-36 89-39l0-28c0-3 2-6 6-6l23 0c3 0 6 3 6 6l0 0l0 28c55 6 82 38 82 79c0 52-43 67-82 77z m-35 8c-16 5-26 11-26 22c0 12 9 21 26 24z m35-116l0 50c16-5 28-11 28-24c0-12-9-23-28-26z"/>
<glyph unicode="&#70;" d="M433 258l-90 0c-11 0-21-7-24-17c-9-28-34-46-63-46c-29 0-54 18-63 46c-3 10-13 17-24 17l-90 0c-14 0-25-11-25-25l0-144c0-14 11-25 25-25l354 0c14 0 25 11 25 25l0 144c0 14-11 25-25 25z m-182-13c1-2 3-3 5-3l0 0c2 0 4 1 6 3l69 98c2 2 2 4 1 7c-1 2-4 3-6 3l-33 0l0 88c0 4-3 7-7 7l-60 0c-4 0-7-3-7-7l0-88l-33 0c-2 0-5-1-6-3c-1-3-1-5 1-7z"/>
<glyph unicode="&#71;" d="M394 189c0 0 0 0 0 0l0 0l-40 19l0 0c-3 2-6 1-8-2c0 0 0-1 0-1c-11-22-36-39-64-39c-34 0-62 17-76 45l100 0c0 0 1 0 1 0c3 0 6 3 6 6l0 21c0 3-3 6-6 6l0 0l-111 0c0 4 0 8 0 12c0 5 0 9 0 13l111 0c0 0 0 0 0 0c0 0 0 0 0 0l0 0l0 0c3 0 6 3 6 6l0 21c0 3-3 6-6 6c0 0 0 0-1 0l-100 0c15 27 42 44 76 44c28 0 53-17 64-40l1 0c1-2 4-3 7-2l0 0l40 19l0 0c0 0 0 0 0 0c3 2 4 5 3 8l0 0c0 0 0 0 0 0c0 0 0 0 0 0c0 0-1 0-1 0c-19 35-54 67-114 67c-67 0-121-37-140-96l-21 0c0 0 0 0 0 0c-4 0-6-3-6-6l0-21c0-3 2-6 6-6c0 0 0 0 0 0l15 0c-1-4-1-8-1-13c0-4 0-8 1-12l-15 0l0 0c-4 0-6-3-6-6l0-21c0-3 2-6 6-6c0 0 0 0 0 1l21 0c18-60 73-98 140-98c60 0 95 33 114 67c0 0 0 0 1 0c0 0 0 0 0 0c0 0 0 0 0 0l0 0c1 3 0 6-3 8z"/>
<glyph unicode="&#72;" d="M462 445l-412 0c-16 0-29-12-29-28l0-252c0-16 13-29 29-29l155 0l0-44l-48 0c-5 0-8-4-8-8l0-9c0-5 3-8 8-8l194 0c4 0 8 3 8 8l0 9c0 4-4 8-8 8l-44 0l0 44l155 0c16 0 29 13 29 29l0 252c0 16-13 28-29 28z m-390-258l0 207l368 0l0-207z"/>
<glyph unicode="&#73;" d="M367 139c0 1-1 2-1 3l0 0l-15 37c0 0 0 0 0 0l-1 0l0 0c0 2-2 4-5 4c-2 0-3-1-4-2l0 0c-6-7-18-15-36-15c-20 0-29 14-53 14c-6 0-14-1-20-4c14 10 26 27 26 46c0 3 0 6 0 8l46 0l0 0c3 0 6 3 6 6l0 22l0 0c0 3-3 5-6 5l0 0l-59 0c-10 15-20 28-20 49c0 23 19 38 43 38c19 0 35-12 42-29c1-2 3-3 5-3c1 0 2 0 3 0c0 0 0 0 0 0l36 22l0 0c2 1 3 3 3 5c0 1 0 2-1 3l0 0c-17 34-49 50-95 50c-49 0-100-33-100-85c0-20 8-36 19-50l-28 0l0 0c0 0-1 0-1 0c-3 0-6-2-6-6l0-22l1 0c0-3 2-5 5-5c0 0 1 0 1 0l0 0l49 0c3-7 5-14 5-22c0-21-19-39-44-51c0 0 0 0 0 0c0 0-1-1-1-1l0 0c-2-1-3-3-3-5c0-1 0-1 1-2l0 0l0 0c0 0 0 0 0 0l14-30c0 0 0 0 0 0l0 0l0 0c1-2 3-3 5-3c1 0 2 0 3 0l0 0c16 9 33 16 48 16c25 0 38-18 74-18c30 0 50 9 61 20l0 0c2 2 3 3 3 5z"/>
<glyph unicode="&#74;" d="M392 396l0 0c-2 2-5 3-8 3c-3 0-5-1-7-3l0 0l-1 0c0 0 0 0 0 0l-21-19c0 0 0 0 0-1l0 0l0 0c-2-2-3-4-3-7c0-4 2-8 5-10c25-25 40-60 40-98c0-78-63-141-141-141c-78 0-141 63-141 141c0 38 16 73 41 99l0 0c2 2 4 5 4 9c0 3-2 5-4 7l0 0l0 0c0 1 0 1 0 1l-21 19c0 0 0 0 0 0l-1 0l0 0c-2 2-4 3-7 3c-4 0-8-2-10-6c-33-34-53-81-53-132c0-106 86-192 192-192c106 0 192 86 192 192c0 52-21 100-56 135z m-150-205l28 0c0 0 0 0 0 0c6 0 11 5 11 11l0 230l0 0c0 0 0 0 0 0c0 6-5 11-11 11c0 0 0 0 0 0l-28 0c-6 0-11-5-11-11c0 0 0 0 0 0l0 0l0-230c0-6 5-11 11-11z"/>
<glyph unicode="&#75;" d="M452 164c0 0 0 0 0 1l0 0l-138 238l0 0c-1 2-3 3-5 4l0 0l-41 24l46-79l103-179l0 0c0 0 0 0 0 0c3-5 2-12-3-15l0 0l-153-88l6-12c0 0 1 0 1-1c3-5 9-6 14-4l0 0l166 96l0 0c5 3 7 10 4 15z m-74 4c5 3 7 10 4 15c0 0 0 0 0 0l0 0l-138 239l0 0c-1 2-3 3-5 4l0 0l-56 33l0-1c-3 2-6 2-9 1l0 0l-2 0c0-1 0-1 0-1c0 0 0 0 0 0l-108-62c-3-2-5-6-5-9l0 0l0-65l0 0c-1-2 0-5 1-7c0 0 0 0 0 0l138-238c0 0 0 0 0-1c3-5 9-6 14-4l0 0l166 96z m-227 203c-9-5-21-2-27 7c-5 10-2 22 7 27c10 6 22 3 28-7c5-9 2-21-8-27z"/>
<glyph unicode="&#76;" d="M463 332c0 5-4 9-9 9l-67 0l0 110c0 5-5 10-10 10l-242 0c-5 0-10-5-10-10l0-110l-67 0c0 0 0 0 0 0c-5 0-9-4-9-9l0 0l0-188c0-5 4-10 9-10l67 0l0 79l262 0l0-79l67 0c5 0 9 5 9 10l0 188z m-102-33l-210 0l0 127c0 5 4 9 9 9l192 0c5 0 9-4 9-9l0-127z m-209-238c0-5 4-10 9-10l190 0c5 0 9 5 9 10l0 126l-208 0z"/>
<glyph unicode="&#77;" d="M143 274c-7 14-11 31-11 47c0 9 2 18 4 28c1 4 3 9 5 13c-7 3-14 5-21 5c-28 0-51-26-51-59c0-22 11-42 27-52l-68-32c-5-2-7-7-7-12l0-54c0-8 5-13 11-13l40 0l0 56c0 17 10 32 24 39l53 24c-2 3-4 7-6 10z m165 60l174 0l0 0c0 0 0 0 0 0c5 0 10 4 10 9c0 0 0 0 0 0l0 33c0 5-5 9-10 9c0 0 0 0 0 0l0 0l-195 0c9-11 15-24 18-38c2-5 2-9 3-13z m184-162c0 5-5 9-10 9c0 0 0 0 0 0l0 0l-113 0l0-47c0-1 0-3-1-4l114 0l0 0c0 0 0 0 0 0c5 0 10 4 10 9z m-10 111c0 0 0 0 0 0l0 0l-180 0c-1-2-2-4-3-7c-2-4-4-8-6-11l53-25c4-2 7-5 10-8l126 0l0 0c0 0 0 0 0 0c5 0 10 4 10 9c0 0 0 0 0 0l0 33c0 5-5 9-10 9z m-148-66l-59 28l-25 12c11 7 20 17 26 30c5 10 7 22 7 34c0 7-1 13-2 20c-8 30-32 53-60 53c-29 0-52-22-60-52c-2-6-3-14-3-21c0-13 3-25 8-36c6-12 15-22 26-29l-24-11l-61-28c-6-3-9-9-9-16l0-67c0-9 6-16 14-16l217 0c8 0 14 7 14 16l0 67c0 7-3 13-9 16z"/>
<glyph unicode="&#78;" d="M134 179c-24 0-45-20-45-45c0-24 21-44 45-44c25 0 45 20 45 44c0 25-20 45-45 45z m-13 124c-1 0-1 0-1 0l0 0l-18 0l0 0c-9-1-15-8-16-17l0 0l0-32l1 0c1-8 7-14 15-15l0 0l18 0l0 0c0 0 0 0 1 0c65 0 118-53 119-118l0 0l0-18l0 0c1-9 8-15 17-16l0 0l32 0l0 1c8 1 14 7 15 15l0 0l0 18l0 0c-1 100-83 182-183 182z m305-182c-1 167-138 304-305 304c-1 0-1 0-1 0l0 0l-18 0l0-1c-9-1-15-8-16-17l0 0l0-31l1 0c1-8 7-15 15-16l0 0l18 0l0 0c0 0 0 0 1 0c132 0 240-107 240-239l0 0l0-18l0 0c1-9 9-15 17-16l0 0l32 0l0 1c8 1 14 7 15 15l1 0l0 18l0 0z"/>
<glyph unicode="&#79;" d="M199 97c0-16-14-30-30-30c-17 0-30 14-30 30c0 17 13 30 30 30c16 0 30-13 30-30z m212 0c0-16-14-30-31-30c-16 0-30 14-30 30c0 17 14 30 30 30c17 0 31-13 31-30z m-35 132c7 0 13 4 16 10l0 0l75 130l0 0c1 2 2 5 2 7c0 10-8 18-18 18l-274 0l0 33c0 10-8 18-18 18l-97 0l0 0c0 0-1 0-1 0c-9 0-16-7-17-16l-1 0l0-17c0-10 8-18 18-18c0 0 1 0 1 0l0 0l64 0l0-224l0 0c0-10 8-17 17-17c0 0 0 0 0 0l304 0l0 0c8 1 15 7 16 15l0 0l0 2c0 0 0 1 0 1c0 0 0 0 0 0l0 15c0 0 0 0 0 0c0 9-7 17-16 18l0 0l-270 0l0 25l199 0z"/>
<glyph unicode="&#80;" d="M99 193l-58 0c-1 1-2 1-3 1c-6 0-11-5-12-11l-1 0l0-56l1 0c1-5 5-9 10-10l0 0l87 0l0 0c9 0 17 5 21 12l54 54l-55 55z m386 161l-96 68c-2 2-4 2-6 1c-3-1-4-4-4-6l0-29l-76 0l0 0c-6 0-11-2-15-6l0 0l-54-54l54-54l38 37l53 0l0-30c0-3 1-5 4-6c2-1 5-1 7 0l95 69c1 1 2 3 2 5c0 0 0 0 0 0c0 2-1 4-2 5z m-1-186l-95 69c-2 1-5 1-7 0c-2-1-3-3-3-6l0-30l-53 0l-182 182c-4 7-12 12-21 12l0 0l-87 0l0 0c-5-1-9-5-11-10l0 0l0-56l0 0c1-6 7-11 13-11c1 0 2 0 3 1l58 0l189-189l0 0c4-4 9-6 14-6l0 0l77 0l0-29c0-2 1-5 3-6c2-1 5-1 7 1l95 68c2 1 3 3 3 5c0 0 0 0 0 0c0 2-1 4-3 5z"/>
<glyph unicode="&#81;" d="M304 419l136-326l0 326z m-232 0l0-326l136 326z m124-261l64 0l26-65l57 0l-87 206z"/>
<glyph unicode="&#82;" d="M266 328c-22-2-44-4-65-11c-44-13-67-43-66-87c0-39 23-65 63-70c25-2 49 2 70 19c6 5 11 10 17 14c8-9 16-18 25-27c5-6 10-6 16-1c11 10 22 19 33 29c6 5 7 9 1 15c-12 15-17 32-17 51c1 35 1 70 0 104c-1 27-15 47-39 58c-38 16-76 16-113-1c-26-11-41-31-47-58c-2-9 0-12 9-13c13-2 26-4 39-5c7-1 11 1 13 8c4 21 25 32 45 29c13-2 23-10 25-22c1-10 1-21 2-31c-2 0-3-1-3-1c-3 0-5 0-8 0z m-1-101c-6-10-14-17-26-19c-19-3-33 9-34 29c-2 27 12 45 38 50c11 2 22 3 33 4c0-23 2-45-11-64z m121-78c-2-1-4-1-5-2c-26-11-51-19-78-25c-26-5-51-7-77-5c-32 3-61 13-90 28c-18 9-35 18-53 28c-6 3-11 2-14-2c-3-4-2-10 3-14c18-13 35-28 54-41c35-24 73-38 123-38c40 1 85 14 126 38c7 4 14 9 21 14c6 4 7 9 4 14c-3 5-8 7-14 5z m38 39c-19 2-38 0-55-12c-4-3-6-7-4-12c2-4 6-5 11-4c8 1 17 2 26 3c0 0 0 0 0 0c3 0 6 0 9 0c4 0 6-2 5-6c-1-4-2-8-3-13c-2-8-6-15-8-23c0-3 0-7 2-9c2-1 6-2 9-1c2 0 4 2 6 4c13 14 20 30 22 49c2 18-1 22-20 24z"/>
<glyph unicode="&#83;" d="M310 419l18 32c1 1 0 3-2 4c-1 1-4 1-4-1l-18-32c-14 7-31 10-48 10c-17 0-34-3-48-10l-18 32c-1 2-3 2-4 1c-2-1-3-3-2-4l18-32c-34-17-57-50-57-89l222 0c0 39-23 72-57 89z m-105-48c-5 0-9 4-9 9c0 5 4 9 9 9c6 0 10-4 10-9c0-5-4-9-10-9z m102 0c-6 0-10 4-10 9c0 5 4 9 10 9c5 0 9-4 9-9c0-5-4-9-9-9z m118-69c0 14-11 25-25 25c-13 0-24-12-24-25l0-103c0-14 11-25 24-25c14 0 25 11 25 25z m-59 20l-220 0l0-160c0-4 1-8 3-12c4-8 13-14 23-14l18 0l0-55c0-2 0-3 1-5c2-11 12-20 24-20c1 0 3 0 5 1c11 2 19 12 19 24l0 55l34 0l0-55c0-12 8-22 19-24c2 0 4-1 5-1c14 0 25 11 25 25l0 55l18 0c5 0 9 1 13 3c8 5 13 13 13 23z m-254 5c-14 0-25-12-25-25l0-103c0-9 4-17 11-21c4-3 9-4 14-4c12 0 22 8 24 20c0 1 0 3 0 5l0 103c0 13-11 25-24 25z"/>
<glyph unicode="&#84;" d="M420 323c-21 27-51 42-79 42c-37 0-52-18-78-18c-26 0-46 18-78 18c-32 0-65-19-87-52c-29-46-24-132 24-206c17-26 40-56 71-56c26 0 34 17 70 18c37 0 44-18 71-18c30 1 54 33 71 60c13 18 17 28 27 49c-70 27-81 125-12 163z m-107 71c14 18 24 42 20 67c-22-2-47-16-62-34c-14-16-25-41-21-65c24 0 49 14 63 32z"/>
<glyph unicode="&#85;" d="M474 317c0 2 0 4 0 6c-2 0-4 0-5 0c-36 0-71 0-107 0c-4 0-5-1-5-5c0-40 0-80 0-120c0-5 1-6 6-6c20 1 40 0 61 0c1 0 3 0 5 0c0-6 0-11 0-16c0-4-1-5-5-5c-20 0-41 0-62 0c-4 0-5-1-5-5c0-8 0-15 0-23c0-4 1-5 5-5c36 0 71 0 106 0c5 0 6 2 6 6c0 58 0 115 0 173z m-49-92c-6 0-13 0-19 0c-3 0-4 1-4 4c0 19 0 38 0 57c0 2 1 4 2 4c8 0 16 0 25 0c0-4 0-7 0-11c0-17 0-33 0-49c0-4-1-5-4-5z m-87 98c-35 0-71 0-106 0c-4 0-5-1-5-5c0-40 0-80 0-120c0-4 1-6 5-6c20 1 41 0 61 1c5 0 6-2 6-6c0-4 0-8 0-11c0-4-1-5-5-5c-20 0-41 0-62 0c-1 0-3 0-5 0c0-10 0-19 0-28c0-4 1-5 5-5c35 0 71 0 106 0c2 0 3 0 5 0c0 2 0 4 0 5c0 58 0 117 1 175c0 4-2 5-6 5z m-39-95c0-1-2-3-3-3c-7 0-15 0-22 0c-1 0-2 2-2 3c-1 20 0 41 0 62c8 0 16 0 24 0c1 0 3-2 3-3c0-19 0-39 0-59z m-189 141c0-13 0-26 0-40c0-6 0-6-6-6c-21 0-41 0-61 0c-4 0-5-1-5-5c0-44 0-88 0-132c0-4 1-5 5-5c36 0 71 0 107 0c1 0 3 0 4 0c0 65 0 129 0 193c-14 0-29 0-44 0c0-2 0-4 0-5z m-5-155c-6 0-12 0-18 0c-2 0-4 1-4 2c0 25 0 49 0 74c9 0 18 0 27 0c0-2 0-3 0-5c0-22 0-44 0-66c0-4-1-6-5-5z m104 109c-12 0-24 0-36 0c-4 0-4-1-4-5c0-13 0-25 0-38c0-31 0-63 0-94c0-4 0-5 4-5c5 0 10 0 14 0c9 0 17 0 26 0c0 1 0 2 0 2c0 46 0 91 0 137c0 3-1 3-4 3z m-37 17c13 0 25 0 38 0c2 0 3 1 3 4c0 4 0 8 0 13c0 5 0 11 0 17c-15 0-29 0-44 0c0-11 0-21 0-31c0-1 2-3 3-3z"/>
<glyph unicode="&#86;" d="M256 442c-102 0-186-84-186-186c0-102 84-186 186-186c102 0 186 84 186 186c0 102-84 186-186 186z m123-86c22-27 35-61 35-99c-5 1-57 12-110 5c-1 3-2 6-3 9c-4 7-7 15-11 22c59 24 85 58 89 63z m-123 58c40 0 77-15 105-40c-3-4-27-36-83-57c-26 48-55 87-59 93c12 3 24 4 37 4z m-67-15c4-6 32-45 58-91c-74-20-139-20-146-20c10 49 43 90 88 111z m-91-143c0 1 0 3 0 5c7-1 83-2 162 22c5-9 9-18 13-27c-2 0-4-1-6-2c-82-26-125-98-129-104c-25 28-40 65-40 106z m158-159c-37 0-70 13-97 34c3 6 35 68 124 99c0 0 1 0 1 0c22-58 32-106 34-120c-19-8-40-13-62-13z m89 27c-2 10-11 56-31 113c49 8 93-5 98-6c-7-44-32-83-67-107z"/>
<glyph unicode="&#87;" d="M174 440l-116-76l80-64l118 72z m-116-205l116-76l82 68l-118 73z m198-8l82-68l116 76l-80 65z m198 137l-116 76l-82-68l118-72z m-198-152l-82-68l-35 23l0-25l117-70l117 70l0 25l-35-23z"/>
<glyph unicode="&#88;" d="M256 451c-110 0-200-90-200-200c0-88 58-163 137-189c10-2 14 4 14 9c0 5-1 17-1 34c-55-12-67 27-67 27c-9 23-22 29-22 29c-18 13 1 12 1 12c20-1 31-20 31-20c18-31 47-22 58-17c2 13 7 22 13 27c-45 5-91 22-91 99c0 21 7 39 20 53c-2 5-9 25 2 53c0 0 17 5 55-21c16 5 33 7 50 7c17 0 34-2 50-7c38 26 55 21 55 21c11-28 4-48 2-53c13-14 20-32 20-53c0-77-46-94-91-99c7-6 14-18 14-37c0-27 0-48 0-55c0-5 3-11 13-9c80 26 137 101 137 189c0 110-90 200-200 200z"/>
<glyph unicode="&#89;" d="M430 299c0 87-70 144-174 144c-102 0-174-59-174-144c0-30 13-74 37-96l40 43c-8 8-18 35-18 53c0 59 58 85 115 85c55 0 115-22 115-85c0-69-82-77-112-78l0 113l-63 0l0-181c0-18-20-26-41-11l0-65c13-6 25-8 35-8c12 0 21 2 27 5c26 11 42 37 42 65l0 23c104 1 171 55 171 137z"/>
<glyph unicode="&#90;" d="M256 456c-110 0-200-90-200-200c0-82 49-152 120-183c-1 14 0 31 3 46c4 16 26 109 26 109c0 0-6 13-6 31c0 30 17 52 38 52c18 0 27-14 27-30c0-18-12-45-18-71c-5-21 11-38 32-38c38 0 63 48 63 106c0 44-29 76-83 76c-60 0-98-45-98-95c0-18 5-30 13-39c4-5 4-6 3-11c-1-4-3-13-4-17c-1-5-6-6-10-5c-28 12-41 42-41 77c0 57 48 125 143 125c76 0 126-56 126-115c0-78-43-137-108-137c-21 0-41 12-48 25c0 0-12-46-14-55c-5-15-13-31-21-43c18-5 37-8 57-8c110 0 200 90 200 200c0 110-90 200-200 200z"/>
<glyph unicode="&#48;" d="M442 214c3 13 4 26 4 40c0 104-84 188-188 188c-11 0-22-1-32-3c-17 11-37 17-58 17c-60 0-109-49-109-109c0-20 5-39 15-55c-3-13-4-25-4-38c0-104 84-188 188-188c12 0 23 1 35 3c15-8 32-13 51-13c60 0 109 49 109 109c0 18-4 34-11 49z m-87-50c-9-12-22-22-39-29c-16-7-36-10-58-10c-27 0-50 4-68 14c-12 7-23 16-31 27c-8 12-12 23-12 34c0 7 3 13 8 18c5 5 12 7 20 7c6 0 12-2 16-5c5-4 8-10 11-17c4-7 7-14 11-19c4-5 9-9 16-12c7-3 16-5 27-5c16 0 28 4 38 10c9 7 14 14 14 24c0 7-2 13-7 17c-5 5-12 9-20 12c-9 2-21 5-35 8c-19 4-36 9-49 15c-14 6-24 13-32 23c-8 11-13 23-13 38c0 14 5 27 13 38c9 11 21 20 37 26c15 5 34 8 55 8c17 0 31-2 44-6c12-3 23-9 31-15c8-7 14-13 18-21c4-7 6-14 6-21c0-7-3-13-8-18c-5-6-11-8-19-8c-7 0-13 1-16 5c-4 3-7 8-12 15c-4 9-10 16-16 21c-7 4-17 7-32 7c-13 0-24-3-32-8c-8-5-12-11-12-18c0-5 1-8 4-11c2-3 6-6 11-9c5-2 10-4 15-6c5-1 14-3 26-6c15-3 29-7 42-11c12-4 23-9 32-15c9-5 16-13 21-22c5-9 8-20 8-33c0-15-5-30-13-42z"/>
<glyph unicode="&#49;" d="M414 378c26-33 42-76 42-122c0-110-90-200-200-200c-78 0-145 45-178 109l87 0c42 0 71 23 71 58c0 76-88 45-88 72c0 13 11 18 30 18l60 0c17 0 37-3 37-22l0-60c0-44 34-66 69-66c36 0 70 22 70 66l0 147z m-158 78c42 0 80-13 112-35l0-191c0-14-11-25-24-25c-13 0-24 11-24 25l0 57c0 46-23 65-53 65c-33 0-66 0-99 0c-35 0-65-23-65-59c0-18 8-45 46-52c30-5 42-4 42-20c0-16-18-16-41-16l-87 0c-4 17-7 34-7 51c0 110 90 200 200 200z"/>
<glyph unicode="&#50;" d="M453 378c-14-6-30-11-46-12c16 10 29 25 35 44c-15-9-33-16-51-19c-15 15-36 25-59 25c-45 0-81-36-81-81c0-6 1-12 2-18c-67 3-127 35-167 84c-7-12-11-25-11-40c0-28 15-53 36-68c-13 1-25 4-36 11c0-1 0-1 0-2c0-39 28-71 65-79c-7-2-14-3-22-3c-5 0-10 1-15 2c10-32 40-56 76-56c-28-22-63-35-101-35c-6 0-13 0-19 1c36-23 78-36 124-36c149 0 230 123 230 230c0 3 0 7 0 10c16 12 29 26 40 42z"/>
<glyph unicode="&#51;" d="M410 399c0 6-5 11-11 11c0 0 0 0-1 0l-284 0c0 0 0 0-1 0c-6 0-11-5-11-11c0-1 0-1 0-2l0-284l0 0c0 0 0 0 0 0c0-6 5-11 11-11c1 0 1 0 1 0l0 0l285 0l0 0c6 1 11 5 11 11l0 0z"/>
<glyph unicode="&#52;" d="M435 152c-1 6-4 10-9 13l-74 43l0 0c-3 2-7 3-10 3c-6 0-12-3-16-7l-22-21c-1-1-4-2-5-3c0 0-25 2-71 48c-46 46-48 71-48 71c0 1 2 4 3 5l18 19c7 6 8 17 5 26l-41 76c-3 6-9 10-15 10c-5 0-9-2-13-5l-50-50c-5-5-9-14-10-20c0-4-9-81 97-186c89-90 159-97 179-97c4 0 6 0 7 0c6 1 15 5 20 10l50 50c4 5 6 10 5 15z"/>
<glyph unicode="&#53;" d="M207 257c4 3 9 7 13 11c-14 20-22 46-22 72c0 18 3 35 10 51c-10 6-21 10-33 10c-36 0-66-34-66-77c0-29 15-55 36-68l-90-41c-5-3-9-9-9-16l0-71c0-9 7-17 15-17l59 0l0 74c0 19 11 36 27 44z m248-52l-77 36l-33 16c14 9 26 23 33 39c6 14 10 28 10 44c0 9-2 18-3 26c-10 40-41 69-79 69c-36 0-67-28-77-67c-3-9-4-18-4-28c0-17 4-32 11-46c7-16 19-29 33-38l-31-14l-80-37c-7-3-11-11-11-20l0-87c0-12 8-21 18-21l283 0c10 0 18 9 18 21l0 87c0 9-5 16-11 20z"/>
<glyph unicode="&#54;" d="M388 341l-264 0c-7 0-12-5-12-12l0-256c0-6 5-12 12-12l264 0c7 0 12 6 12 12l0 256c0 7-5 12-12 12z m17 82l-101 0l0 16c0 6-5 12-12 12l-72 0c-7 0-12-6-12-12l0-16l-100 0c-7 0-13-5-13-12l0-35c0-7 6-13 13-13l297 0c6 0 12 6 12 13l0 35c0 7-6 12-12 12z"/>
<glyph unicode="&#55;" d="M391 395c0 0 0 1 0 1c0 1-1 1-1 1l0 1l-62 0c-1 0-3-1-4-3l0 0l-68-110l-68 110l0 0c-1 2-2 3-4 3l-62 0c0 0-1-1-1-2c0 0 0-1 0-1l0 0l85-130l-73 0l0 0c0 0 0 0 0 0c-4 0-6-2-6-6l0-21l0 0c0-3 3-5 6-5c0 0 0 0 0 0l0 0l94 0l0-33l-94 0l0 0c0 0 0 0 0 0c-3 0-6-3-6-6l0-20c0-4 3-6 6-6c0 0 0 0 0 0l0 0l94 0l0-47c0 0 0-1 0-1c0-3 3-6 6-6c0 0 0 0 0 0l0 0l47 0l0 0c3 0 6 3 6 6c0 0-1 0-1 0l0 48l95 0l0 0c0 0 0 0 0 0c3 0 6 2 6 6l0 20c0 3-3 6-6 6c0 0 0 0 0 0l0 0l-95 0l0 33l95 0l0 0c0 0 0 0 0 0c3 0 6 2 6 6l0 21l0 0c0 3-3 5-6 5c0 0 0 0 0 0l0 0l-73 0l84 130z"/>
<glyph unicode="&#56;" d="M175 271l0 33l0 0c1 28 7 54 18 76c1 3 2 7 3 11c-9 6-20 10-32 10c-37 0-66-34-66-77c0-29 14-55 36-68l-90-41c-5-3-9-9-9-16l0-71c0-9 7-17 15-17l59 0l0 74c0 19 10 36 27 44l39 18l0 24z m290-68l-80 38l-34 16c1 0 2 1 3 2l44 0c7 0 13 5 13 12l0 33l-1 0c-1 46-17 86-41 111c-12 14-29 24-47 27c-1 0-1 0-2 0c-1 0-2 1-3 1c-2 0-4 0-6 0c-2 0-4 0-6 0c-1 0-2 0-3-1c-1 0-2 0-3 0c-18-3-34-12-46-26c-25-25-41-66-42-112l0 0l0-33c0-7 5-12 12-12l45 0c1-1 2-2 4-3l-33-15l-83-38c-7-4-11-12-11-21l0-91c0-12 8-22 19-22l294 0c10 0 19 10 19 22l0 91c0 9-5 17-12 21z"/>
<glyph unicode="&#57;" d="M410 203l-80 38l-34 16c1 0 2 1 3 2l44 0c7 0 13 5 13 12l0 33l0 0c-2 46-18 86-41 111c-13 14-29 24-48 27c0 0-1 0-2 0c-1 0-2 1-3 1c-2 0-4 0-6 0c0 0 0 0 0 0c-2 0-4 0-6 0c-1 0-2 0-3-1c-1 0-2 0-2 0c-18-3-35-12-47-26c-24-26-40-66-42-112l0 0l0-33c0-7 6-12 13-12l44 0c2-1 3-2 4-3l-32-15l-83-38c-7-4-12-12-12-21l0-91c0-12 8-22 19-22l294 0c11 0 19 10 19 22l0 91c0 9-4 17-12 21z"/>
<glyph unicode="&#33;" d="M410 203l-80 38l-34 16c15 9 27 24 35 41c6 14 10 29 10 46c0 9-1 18-4 27c-10 41-42 72-81 72c-38 0-70-30-81-70c-2-9-4-19-4-29c0-18 4-34 11-49c8-16 20-30 35-39l-32-15l-83-38c-7-4-12-12-12-21l0-91c0-12 8-22 19-22l294 0c11 0 19 10 19 22l0 91c0 9-4 17-12 21z"/>
<glyph unicode="&#34;" d="M420 279l-209 0l0 54c0 27 23 48 50 48c28 0 50-21 50-48c0-5 4-10 10-10l51 0c0 0 1 0 1 0c5 0 10 5 10 10c0 1 0 2-1 2c-1 64-55 116-121 116c-67 0-121-53-121-118l0-54l-48 0c-8 0-14-6-14-13l0-192c0-7 6-13 14-13l328 0c8 0 14 6 14 13l0 192c0 7-6 13-14 13z"/>
<glyph unicode="&#35;" d="M339 198l0-54c0-13-10-23-23-23l-242 0c-12 0-23 10-23 23l0 224c0 13 11 23 23 23l242 0c13 0 23-10 23-23l0-53l0 0l122 57l0-232z"/>
<glyph unicode="&#36;" d="M434 160l-96 96l96 96c4 4 4 10 0 14l-68 68c-4 4-10 4-14 0l-96-96l-96 96c-4 4-11 4-14 0l-68-68c-2-1-3-4-3-7c0-2 1-5 3-7l96-96l-96-96c-2-2-3-5-3-7c0-3 1-6 3-7l68-68c1-2 4-3 7-3c2 0 5 1 7 3l96 96l96-96c2-2 5-3 7-3c3 0 5 1 7 3l68 68c4 4 4 10 0 14z"/>
<glyph unicode="&#37;" d="M291 459c-91 0-164-74-164-164c0-31 8-60 23-85l-79-79l0 0c-8-8-14-20-14-33c0-25 21-45 46-45c12 0 24 5 32 14l0-1l82 82c22-11 47-17 74-17c90 0 164 73 164 164c0 90-74 164-164 164z m1-263c-57 0-103 45-103 102c0 56 46 102 103 102c56 0 102-46 102-102c0-57-46-102-102-102z m60 126l0 0l-36 0l0 36c0 5-4 8-8 8c0 0-1 0-1 0l-31 0c0 0 0 0 0 0c-5 0-8-3-8-8c0 0 0 0 0-1l0-35l-37 0c-4 0-8-4-8-8l0-32c0-5 4-8 8-8c1 0 1 0 1 0l36 0l-1-36l1 0c0 0 0 0 0 0c0-5 3-8 8-8c0 0 0 0 0 0l0 0l32 0l0 0c4 0 8 3 8 8l0 0l0 36l36 0l0 0c0 0 0 0 0 0c4 0 8 3 8 8l0 32c0 4-4 8-8 8z"/>
<glyph unicode="&#38;" d="M291 459c-91 0-164-74-164-164c0-31 8-60 23-85l-79-79l0 0c-8-8-14-20-14-33c0-25 21-45 46-45c12 0 24 5 32 14l0-1l82 82c22-11 47-17 74-17c90 0 164 73 164 164c0 90-74 164-164 164z m1-263c-57 0-103 45-103 102c0 56 46 102 103 102c56 0 102-46 102-102c0-57-46-102-102-102z m60 126l-121 0c-4 0-8-4-8-8l0-32c0-5 4-8 8-8l121 0c4 0 8 3 8 8l0 32c0 4-4 8-8 8z"/>
<glyph unicode="&#39;" d="M481 395c-13-18-28-34-46-47c0-3 0-7 0-12c0-25-3-50-11-74c-7-25-18-49-33-71c-14-23-32-43-52-61c-21-17-45-31-74-41c-29-11-60-16-92-16c-52 0-99 14-142 42c7-1 14-2 22-2c43 0 81 14 115 40c-20 0-38 6-54 18c-16 12-27 27-33 46c7-1 13-2 18-2c8 0 16 1 24 4c-21 4-39 15-53 31c-14 17-21 37-21 59l0 1c13-7 27-11 42-11c-13 8-23 19-30 32c-8 14-11 29-11 44c0 17 4 33 12 47c23-28 51-51 84-68c33-17 69-27 107-29c-2 8-3 15-3 22c0 25 9 47 27 65c18 18 40 27 66 27c26 0 49-10 67-29c21 4 40 11 59 22c-7-22-21-39-41-51c18 2 35 7 53 14z"/>
<glyph unicode="&#40;" d="M439 210c0-7-3-14-8-19c-5-5-12-8-20-8c-9 0-17 4-22 12l-65 98l-13 0l0-38l70-118c2-2 3-6 3-9c0-5-2-9-5-13c-4-3-8-5-13-5l-55 0l0-78c0-9-3-16-10-23c-6-6-13-9-22-9l-46 0c-9 0-16 3-22 9c-7 7-10 14-10 23l0 78l-55 0c-5 0-9 2-13 5c-3 4-5 8-5 13c0 3 1 7 3 9l70 118l0 38l-13 0l-65-98c-5-8-13-12-22-12c-8 0-15 3-20 8c-5 5-8 12-8 19c0 6 2 11 5 15l73 110c14 21 31 31 50 31l110 0c19 0 36-10 50-31l73-110c3-4 5-9 5-15z m-119 229c0-18-6-33-19-45c-12-13-27-19-45-19c-18 0-33 6-45 19c-13 12-19 27-19 45c0 18 6 33 19 45c12 13 27 19 45 19c18 0 33-6 45-19c13-12 19-27 19-45z"/>
<glyph unicode="&#41;" d="M196 374c3 0 5 1 8 3c2 2 3 5 3 8c0 3-1 6-3 8c-3 2-5 3-8 3c-3 0-6-1-8-3c-2-2-3-5-3-8c0-3 1-6 3-8c2-2 5-3 8-3z m120 0c3 0 6 1 8 3c2 2 3 5 3 8c0 3-1 6-3 8c-2 2-5 3-8 3c-3 0-5-1-8-3c-2-2-3-5-3-8c0-3 1-6 3-8c3-2 5-3 8-3z m-232-53c8 0 15-2 21-8c6-6 8-13 8-21l0-123c0-8-2-15-8-20c-6-6-13-9-21-9c-8 0-15 3-21 9c-5 5-8 12-8 20l0 123c0 8 3 15 8 21c6 6 13 8 21 8z m303-5l0-190c0-9-3-16-9-23c-6-6-13-9-22-9l-21 0l0-65c0-8-3-15-9-20c-6-6-13-9-21-9c-8 0-15 3-21 9c-5 5-8 12-8 20l0 65l-40 0l0-65c0-8-3-15-8-20c-6-6-13-9-21-9c-8 0-15 3-21 9c-5 5-8 12-8 20l-1 65l-21 0c-8 0-16 3-22 9c-6 7-9 14-9 23l0 190z m-66 116c20-11 37-25 49-44c12-19 18-39 18-62l-264 0c0 23 6 43 18 62c12 19 29 33 49 44l-20 37c-1 3-1 5 1 6c3 1 5 0 6-2l21-38c18 8 37 12 57 12c20 0 39-4 57-12l21 38c1 2 3 3 6 2c2-1 2-3 1-6z m136-140l0-123c0-8-3-15-8-20c-6-6-13-9-21-9c-8 0-15 3-21 9c-6 5-8 12-8 20l0 123c0 8 2 15 8 21c6 6 13 8 21 8c8 0 15-2 21-8c5-6 8-13 8-21z"/>
<glyph unicode="&#42;" d="M372 208c0 10-2 19-6 26c-4 8-8 15-14 20c-5 5-12 10-21 14c-8 4-16 7-23 10c-7 2-16 4-25 6l-30 7c-6 1-10 2-12 3c-3 1-6 2-10 3c-4 2-7 3-9 5c-2 2-3 4-5 6c-1 2-2 5-2 9c0 14 14 22 41 22c8 0 16-2 22-4c7-2 12-5 16-8c4-3 7-6 11-10c3-3 7-6 11-8c4-2 9-3 14-3c9 0 16 3 21 9c6 6 8 13 8 22c0 10-5 20-16 28c-10 9-24 15-40 20c-17 4-34 6-52 6c-13 0-26-1-38-4c-12-3-23-8-34-14c-11-6-19-14-25-25c-7-10-10-22-10-36c0-12 2-22 5-31c4-8 9-16 16-21c7-6 15-11 23-14c8-4 18-7 30-9l41-11c18-4 28-7 32-10c7-4 10-10 10-17c0-8-4-14-12-19c-7-4-17-7-30-7c-10 0-18 2-26 5c-8 3-14 6-19 11c-4 4-9 8-13 13c-4 4-8 8-13 11c-4 3-10 4-15 4c-10 0-17-3-22-8c-5-6-7-13-7-22c0-17 12-32 35-45c23-12 51-19 83-19c14 0 27 2 40 6c13 3 24 8 35 15c11 7 19 16 25 27c7 11 10 23 10 37z m103-62c0-30-10-56-32-77c-21-22-47-32-77-32c-25 0-47 7-67 22c-15-3-29-4-43-4c-27 0-53 5-78 16c-25 10-46 25-64 43c-18 18-33 39-43 64c-11 25-16 51-16 78c0 14 1 28 4 43c-15 20-22 42-22 67c0 30 10 56 32 77c21 22 47 32 77 32c25 0 47-7 67-22c15 3 29 4 43 4c27 0 53-5 78-16c25-10 46-25 64-43c18-18 33-39 43-64c11-25 16-51 16-78c0-14-1-28-4-43c15-20 22-42 22-67z"/>
<glyph unicode="&#43;" d="M389 173c0-29-9-54-28-75c-19-21-44-34-74-39l0-50c0-3-1-5-3-6c-1-2-4-3-6-3l-39 0c-2 0-4 1-6 3c-2 2-3 4-3 6l0 50c-13 2-25 5-36 9c-12 4-22 8-29 13c-8 4-15 9-22 13c-6 5-10 9-13 11c-2 2-4 4-5 5c-3 4-3 8 0 12l29 39c1 1 4 3 7 3c2 0 5 0 6-3l1 0c22-19 45-31 69-36c7-1 15-2 22-2c15 0 29 4 40 12c12 8 18 20 18 35c0 5-2 10-4 15c-3 5-6 9-10 12c-4 3-9 7-17 11c-7 4-14 7-19 9c-5 2-12 5-22 9c-8 3-14 6-18 7c-4 2-10 5-18 8c-7 3-13 6-17 9c-5 2-10 6-17 10c-6 4-11 8-15 12c-4 4-8 9-12 14c-5 6-8 11-10 17c-3 5-5 12-6 19c-2 7-3 14-3 22c0 26 9 49 28 69c19 20 43 33 73 38l0 52c0 2 1 4 3 6c2 2 4 3 6 3l39 0c2 0 5-1 6-3c2-1 3-3 3-6l0-50c11-2 21-4 31-7c11-3 19-6 25-10c7-3 13-6 18-10c6-4 10-7 12-9c1-1 3-2 4-4c3-3 4-7 1-10l-23-42c-1-3-4-5-6-5c-3 0-6 0-8 2c-1 1-2 2-4 4c-2 1-6 4-11 7c-6 4-11 7-17 9c-6 3-13 6-21 8c-9 2-17 3-25 3c-18 0-33-4-44-12c-12-8-17-19-17-32c0-5 1-9 2-14c2-4 5-8 9-11c4-4 7-7 11-10c3-2 9-5 16-9c7-3 13-6 17-7c5-2 11-5 20-8c10-4 18-7 23-9c6-2 13-6 22-10c9-5 16-9 22-12c5-4 11-9 17-15c7-6 12-12 15-18c4-6 7-13 9-22c3-8 4-17 4-27z"/>
<glyph unicode="&#44;" d="M401 187l0-105c0-2-1-5-2-6c-2-2-4-3-7-3l-273 0c-3 0-5 1-7 3c-1 1-2 4-2 6l0 43c0 3 1 5 2 7c2 1 4 2 7 2l28 0l0 110l-28 0c-2 0-4 1-6 2c-2 2-3 4-3 7l0 37c0 3 1 5 3 7c2 2 4 2 6 2l28 0l0 64c0 33 11 60 35 81c23 21 53 31 90 31c35 0 67-11 95-35c2-2 3-4 3-6c0-3 0-5-2-7l-29-36c-2-2-4-3-6-3c-3-1-5 0-7 2c-1 1-3 2-7 5c-4 3-11 6-20 9c-9 4-18 5-27 5c-16 0-29-4-39-13c-10-9-15-21-15-35l0-62l87 0c3 0 5 0 7-2c2-2 3-4 3-7l0-37c0-3-1-5-3-7c-2-1-4-2-7-2l-87 0l0-109l119 0l0 52c0 3 0 5 2 7c2 1 4 2 7 2l46 0c3 0 5-1 7-2c1-2 2-4 2-7z"/>
<glyph unicode="&#45;" d="M389 139l10-46c0-2 0-4-1-6c-1-2-3-4-5-4l-2-1c0 0-1 0-3-1c-1 0-2 0-4-1c-2-1-4-1-6-2c-3 0-5-1-8-1c-2 0-5-1-8-1c-3-1-6-1-10-2c-3 0-6 0-10-1c-4 0-8 0-11 0c-45 0-84 13-117 37c-33 25-56 59-68 101l-27 0c-3 0-5 1-7 3c-1 1-2 4-2 6l0 32c0 3 1 5 2 7c2 2 4 2 7 2l19 0c-1 11-1 21 0 30l-19 0c-3 0-5 1-7 3c-1 2-2 4-2 7l0 32c0 3 1 5 2 7c2 1 4 2 7 2l28 0c13 40 36 72 69 97c34 24 72 36 115 36c19 0 38-2 55-6c2-1 4-2 6-4c1-3 1-5 1-7l-12-46c-1-2-2-4-4-5c-3-2-5-2-7-1l-1 0c-1 0-2 1-4 1l-5 1c0 0-2 0-6 1c-4 1-7 1-8 1c0 0-3 0-8 1c-5 0-8 0-8 0c-24 0-46-6-65-18c-19-13-33-29-43-51l134 0c3 0 5-1 7-3c2-2 3-5 2-8l-7-32c-1-5-4-8-9-8l-139 0c-1-7-1-17 0-30l131 0c3 0 5-1 7-3c2-2 2-5 2-8l-7-32c-1-2-2-4-3-5c-2-1-4-2-6-2l-111 0c10-22 24-40 43-53c19-13 41-20 65-20c4 0 7 0 11 1c3 0 6 0 9 1c3 0 6 1 9 1c2 0 5 1 7 1c2 1 3 1 5 2l3 1l2 0c2 1 5 1 7 0c3-2 4-4 5-6z"/>
<glyph unicode="&#46;" d="M402 247l0 137c0 5-2 9-5 13c-4 3-8 5-13 5l-137 0c-8 0-14-3-17-11c-3-8-2-14 4-20l41-41l-152-153c-4-3-6-7-6-12c0-5 2-10 6-13l29-29c3-4 8-6 13-6c5 0 9 2 12 6l153 152l41-41c4-4 8-5 13-5c2 0 5 0 7 1c8 3 11 9 11 17z m73 146l0-274c0-23-8-42-24-58c-16-16-35-24-58-24l-274 0c-23 0-42 8-58 24c-16 16-24 35-24 58l0 274c0 23 8 42 24 58c16 16 35 24 58 24l274 0c23 0 42-8 58-24c16-16 24-35 24-58z"/>
<glyph unicode="&#47;" d="M232 141l176 175c3 4 5 8 5 13c0 5-2 9-5 13l-29 29c-4 4-8 6-13 6c-5 0-10-2-13-6l-134-133l-60 60c-3 4-8 5-13 5c-5 0-9-1-13-5l-29-29c-3-4-5-8-5-13c0-5 2-9 5-13l103-102c3-4 7-6 12-6c5 0 10 2 13 6z m243 252l0-274c0-23-8-42-24-58c-16-16-35-24-58-24l-274 0c-23 0-42 8-58 24c-16 16-24 35-24 58l0 274c0 23 8 42 24 58c16 16 35 24 58 24l274 0c23 0 42-8 58-24c16-16 24-35 24-58z"/>
<glyph unicode="&#58;" d="M378 341l4 50l-252 0l13-152l175 0l-6-65l-57-15l-56 15l-3 40l-50 0l6-80l103-28l2 0l0 0l102 28l14 156l-184 0l-4 51z m-323 134l402 0l-36-410l-166-47l-164 47z"/>
<glyph unicode="&#59;" d="M201 165c0-8-1-16-3-24c-3-8-7-15-13-22c-6-6-12-9-20-9c-8 0-15 3-21 9c-6 7-10 14-12 22c-3 8-4 16-4 24c0 7 1 15 4 23c2 8 6 15 12 22c6 6 13 9 21 9c8 0 14-3 20-9c6-7 10-14 13-22c2-8 3-16 3-23z m183 0c0-8-1-16-4-24c-2-8-6-15-12-22c-6-6-13-9-21-9c-8 0-14 3-20 9c-6 7-10 14-13 22c-2 8-3 16-3 24c0 7 1 15 3 23c3 8 7 15 13 22c6 6 12 9 20 9c8 0 15-3 21-9c6-7 10-14 12-22c3-8 4-16 4-23z m46 0c0 22-7 42-20 58c-13 16-31 24-53 24c-8 0-27-2-56-6c-14-2-29-3-45-3c-16 0-31 1-45 3c-29 4-47 6-56 6c-22 0-40-8-53-24c-13-16-20-36-20-58c0-17 3-32 9-44c7-13 14-23 24-30c9-7 21-13 34-17c14-4 28-7 40-8c13-2 27-2 43-2l48 0c16 0 30 0 43 2c12 1 26 4 40 8c13 4 25 10 34 17c10 7 17 17 24 30c6 12 9 27 9 44z m64 50c0-40-6-71-18-95c-7-14-17-27-30-38c-13-10-26-19-40-24c-14-6-30-11-49-14c-18-3-34-5-49-6c-14-1-30-1-47-1c-15 0-29 0-41 0c-12 1-26 2-42 4c-16 2-31 5-44 9c-13 3-26 8-39 14c-13 6-24 14-34 23c-11 10-19 21-25 33c-12 24-18 55-18 95c0 45 13 83 39 113c-5 16-8 32-8 49c0 22 5 42 15 62c21 0 39-4 54-11c16-8 34-20 54-36c28 7 58 10 89 10c28 0 54-3 80-9c20 16 37 27 53 35c16 7 34 11 54 11c10-20 15-40 15-62c0-17-3-33-8-48c26-31 39-69 39-114z"/>
<glyph unicode="&#60;" d="M238 421l0-202c0-19-4-38-12-56c-8-18-18-34-31-47c-13-13-29-24-47-31c-18-8-37-12-57-12l-18 0c-5 0-9 2-13 6c-3 3-5 7-5 12l0 37c0 5 2 9 5 13c4 3 8 5 13 5l18 0c21 0 38 7 52 22c14 14 22 31 22 51l0 10c0 7-3 14-8 19c-6 5-12 8-20 8l-64 0c-15 0-28 5-39 16c-10 11-16 24-16 39l0 110c0 15 6 28 16 38c11 11 24 16 39 16l110 0c15 0 28-5 39-16c10-10 16-23 16-38z m256 0l0-202c0-19-4-38-12-56c-8-18-18-34-31-47c-13-13-29-24-47-31c-18-8-37-12-57-12l-18 0c-5 0-9 2-13 6c-3 3-5 7-5 12l0 37c0 5 2 9 5 13c4 3 8 5 13 5l18 0c21 0 38 7 52 22c14 14 22 31 22 51l0 10c0 7-3 14-8 19c-6 5-12 8-20 8l-64 0c-15 0-28 5-39 16c-10 11-16 24-16 39l0 110c0 15 6 28 16 38c11 11 24 16 39 16l110 0c15 0 28-5 39-16c10-10 16-23 16-38z"/>
<glyph unicode="&#61;" d="M238 238l0-110c0-15-6-28-16-39c-11-11-24-16-39-16l-110 0c-15 0-28 5-39 16c-10 11-16 24-16 39l0 201c0 20 4 39 12 57c8 18 18 33 31 47c13 13 29 23 47 31c18 8 37 11 57 11l18 0c5 0 9-1 13-5c3-4 5-8 5-13l0-36c0-5-2-10-5-13c-4-4-8-6-13-6l-18 0c-21 0-38-7-52-21c-14-14-22-32-22-52l0-9c0-8 3-14 8-19c6-6 12-8 20-8l64 0c15 0 28-6 39-16c10-11 16-24 16-39z m256 0l0-110c0-15-6-28-16-39c-11-11-24-16-39-16l-110 0c-15 0-28 5-39 16c-10 11-16 24-16 39l0 201c0 20 4 39 12 57c8 18 18 33 31 47c13 13 29 23 47 31c18 8 37 11 57 11l18 0c5 0 9-1 13-5c3-4 5-8 5-13l0-36c0-5-2-10-5-13c-4-4-8-6-13-6l-18 0c-21 0-38-7-52-21c-14-14-22-32-22-52l0-9c0-8 3-14 8-19c6-6 12-8 20-8l64 0c15 0 28-6 39-16c10-11 16-24 16-39z"/>
<glyph unicode="&#62;" d="M274 110c0 5-2 9-5 13c-4 3-8 5-13 5c-5 0-9-2-13-5c-3-4-5-8-5-13c0-5 2-10 5-13c4-4 8-6 13-6c5 0 9 2 13 6c3 3 5 8 5 13z m110 45l0 275c0 2-1 4-3 6c-2 2-4 3-6 3l-238 0c-2 0-4-1-6-3c-2-2-3-4-3-6l0-275c0-2 1-4 3-6c2-2 4-3 6-3l238 0c2 0 4 1 6 3c2 2 3 4 3 6z m37 275l0-311c0-13-5-23-14-32c-9-9-20-14-32-14l-238 0c-12 0-23 5-32 14c-9 9-14 19-14 32l0 311c0 12 5 23 14 32c9 9 20 13 32 13l238 0c12 0 23-4 32-13c9-9 14-20 14-32z"/>
<glyph unicode="&#63;" d="M279 110c0 6-2 11-7 16c-4 4-10 7-16 7c-6 0-12-3-16-7c-5-5-7-10-7-16c0-7 2-12 7-16c4-5 10-7 16-7c6 0 12 2 16 7c5 4 7 9 7 16z m59 45l0 202c0 2-1 4-2 6c-2 2-4 3-7 3l-146 0c-3 0-5-1-7-3c-1-2-2-4-2-6l0-202c0-2 1-4 2-6c2-2 4-3 7-3l146 0c3 0 5 1 7 3c1 2 2 4 2 6z m-55 243c0 3-1 4-4 4l-46 0c-3 0-4-1-4-4c0-3 1-5 4-5l46 0c3 0 4 2 4 5z m83 4l0-292c0-10-4-19-11-26c-7-7-16-11-26-11l-146 0c-10 0-19 4-26 11c-7 7-11 16-11 26l0 292c0 10 4 19 11 26c7 7 16 11 26 11l146 0c10 0 19-4 26-11c7-7 11-16 11-26z"/>
<glyph unicode="&#64;" d="M478 230l0 222c0 3-1 5-3 6c-1 2-3 3-6 3l-426 0c-3 0-5-1-6-3c-2-1-3-3-3-6l0-222c0-2 1-4 3-6c1-1 3-2 6-2l426 0c3 0 5 1 6 2c2 2 3 4 3 6z m34 222l0-290c0-12-4-22-13-30c-8-8-18-13-30-13l-145 0c0-6 2-13 5-20c2-7 5-14 8-19c3-6 4-9 4-12c0-4-1-8-5-12c-3-3-7-5-12-5l-136 0c-5 0-9 2-12 5c-4 4-5 8-5 12c0 3 1 7 4 12c3 5 6 12 8 19c3 7 5 14 5 20l-145 0c-12 0-22 5-30 13c-9 8-13 18-13 30l0 290c0 12 4 22 13 30c8 9 18 13 30 13l426 0c12 0 22-4 30-13c9-8 13-18 13-30z"/>
<glyph unicode="&#91;" d="M111 154c-12 0-22 4-30 12c-9 8-13 19-13 30l0 188c0 12 4 22 13 30c8 8 18 13 30 13l290 0c12 0 22-5 30-13c9-8 13-18 13-30l0-188c0-11-4-22-13-30c-8-8-18-12-30-12z m-9 230l0-188c0-2 1-4 3-6c2-1 4-2 6-2l290 0c2 0 4 1 6 2c2 2 3 4 3 6l0 188c0 2-1 4-3 6c-2 2-4 3-6 3l-290 0c-2 0-4-1-6-3c-2-2-3-4-3-6z m367-247l43 0l0-26c0-7-4-13-13-18c-8-5-18-8-30-8l-426 0c-12 0-22 3-30 8c-9 5-13 11-13 18l0 26z m-192-26c3 0 5 1 5 4c0 3-2 4-5 4l-42 0c-3 0-5-1-5-4c0-3 2-4 5-4z"/>
<glyph unicode="&#93;" d="M399 174c0-3-1-5-3-7l-15-14c-1-2-4-3-6-3c-3 0-5 1-7 3l-112 112l-112-112c-2-2-4-3-7-3c-2 0-5 1-6 3l-15 14c-2 2-3 4-3 7c0 2 1 4 3 6l133 133c2 2 5 3 7 3c2 0 5-1 7-3l133-133c2-2 3-4 3-6z"/>
<glyph unicode="&#94;" d="M335 238c0-3-1-5-3-7l-133-133c-2-2-5-3-7-3c-2 0-5 1-7 3l-14 14c-2 2-3 4-3 7c0 2 1 5 3 6l112 113l-112 112c-2 2-3 4-3 7c0 2 1 4 3 6l14 14c2 2 5 3 7 3c2 0 5-1 7-3l133-133c2-2 3-4 3-6z"/>
<glyph unicode="&#95;" d="M344 357c0-3-1-5-3-7l-112-112l112-113c2-1 3-4 3-6c0-3-1-5-3-7l-14-14c-2-2-5-3-7-3c-2 0-5 1-7 3l-133 133c-2 2-3 4-3 7c0 2 1 4 3 6l133 133c2 2 5 3 7 3c2 0 5-1 7-3l14-14c2-2 3-4 3-6z"/>
<glyph unicode="&#96;" d="M399 265c0-2-1-5-3-6l-133-134c-2-1-5-2-7-2c-2 0-5 1-7 2l-133 134c-2 1-3 4-3 6c0 3 1 5 3 7l15 14c1 2 4 3 6 3c3 0 5-1 7-3l112-112l112 112c2 2 4 3 7 3c2 0 5-1 6-3l15-14c2-2 3-4 3-7z m0 110c0-3-1-5-3-7l-133-133c-2-2-5-3-7-3c-2 0-5 1-7 3l-133 133c-2 2-3 4-3 7c0 2 1 5 3 6l15 15c1 2 4 3 6 3c3 0 5-1 7-3l112-113l112 113c2 2 4 3 7 3c2 0 5-1 6-3l15-15c2-1 3-4 3-6z"/>
<glyph unicode="&#123;" d="M399 137c0-2-1-5-3-6l-15-15c-1-2-4-3-6-3c-3 0-5 1-7 3l-112 113l-112-113c-2-2-4-3-7-3c-2 0-5 1-6 3l-15 15c-2 1-3 4-3 6c0 3 1 5 3 7l133 133c2 2 5 3 7 3c2 0 5-1 7-3l133-133c2-2 3-4 3-7z m0 110c0-3-1-5-3-7l-15-14c-1-2-4-3-6-3c-3 0-5 1-7 3l-112 112l-112-112c-2-2-4-3-7-3c-2 0-5 1-6 3l-15 14c-2 2-3 4-3 7c0 2 1 5 3 6l133 134c2 1 5 2 7 2c2 0 5-1 7-2l133-134c2-1 3-4 3-6z"/>
<glyph unicode="&#124;" d="M280 238c0-3-1-5-3-7l-133-133c-2-2-4-3-7-3c-2 0-5 1-6 3l-15 14c-2 2-3 4-3 7c0 2 1 5 3 6l113 113l-113 112c-2 2-3 4-3 7c0 2 1 4 3 6l15 14c1 2 4 3 6 3c3 0 5-1 7-3l133-133c2-2 3-4 3-6z m109 0c0-3-1-5-2-7l-134-133c-1-2-4-3-6-3c-3 0-5 1-7 3l-14 14c-2 2-3 4-3 7c0 2 1 5 3 6l112 113l-112 112c-2 2-3 4-3 7c0 2 1 4 3 6l14 14c2 2 4 3 7 3c2 0 5-1 6-3l134-133c1-2 2-4 2-6z"/>
<glyph unicode="&#125;" d="M289 119c0-3-1-5-3-7l-14-14c-2-2-4-3-7-3c-2 0-5 1-6 3l-134 133c-1 2-2 4-2 7c0 2 1 4 2 6l134 133c1 2 4 3 6 3c3 0 5-1 7-3l14-14c2-2 3-4 3-6c0-3-1-5-3-7l-112-112l112-113c2-1 3-4 3-6z m110 0c0-3-1-5-3-7l-15-14c-1-2-4-3-6-3c-3 0-5 1-7 3l-133 133c-2 2-3 4-3 7c0 2 1 4 3 6l133 133c2 2 4 3 7 3c2 0 5-1 6-3l15-14c2-2 3-4 3-6c0-3-1-5-3-7l-113-112l113-113c2-1 3-4 3-6z"/>
<glyph unicode="&#126;" d="M171 119c0 10-4 18-10 25c-7 6-15 10-24 10c-10 0-18-4-25-10c-6-7-10-15-10-25c0-9 4-17 10-24c7-6 15-10 25-10c9 0 17 4 24 10c6 7 10 15 10 24z m-103 137l103 0l0 68l-42 0c-3 0-5-1-6-2l-52-52c-2-2-2-4-3-6z m342-137c0 10-4 18-10 25c-7 6-15 10-25 10c-9 0-17-4-24-10c-6-7-10-15-10-25c0-9 4-17 10-24c7-6 15-10 24-10c10 0 18 4 25 10c6 7 10 15 10 24z m34 180l0 51c0 2-1 4-3 6c-1 2-3 2-6 2l-60 0l0 60c0 3 0 5-2 6c-2 2-4 3-6 3l-51 0c-3 0-5-1-6-3c-2-1-3-3-3-6l0-60l-60 0c-2 0-4 0-6-2c-1-2-2-4-2-6l0-51c0-3 1-5 2-6c2-2 4-3 6-3l60 0l0-60c0-2 1-4 3-6c1-1 3-2 6-2l51 0c2 0 4 1 6 2c2 2 2 4 2 6l0 60l60 0c3 0 5 1 6 3c2 1 3 3 3 6z m68 145l0-307c0-5-2-9-5-12c-3-4-7-6-12-6l-51 0c0-18-7-34-20-48c-14-13-30-20-49-20c-18 0-34 7-48 20c-13 14-20 30-20 48l-102 0c0-18-7-34-20-48c-14-13-30-20-48-20c-19 0-35 7-49 20c-13 14-20 30-20 48l-34 0c-4 0-8 2-12 6c-3 3-5 7-5 12c0 4 2 8 5 12c4 3 8 5 12 5l0 111c0 4 1 9 4 15c2 6 5 10 8 14l53 52c3 4 8 7 14 9c5 2 10 3 15 3l43 0l0 86c0 4 1 8 5 12c3 3 7 5 12 5l307 0c5 0 9-2 12-5c3-4 5-8 5-12z"/>
<glyph unicode="&#57344;" d="M165 128c0-5-2-9-6-13c-3-3-8-5-13-5c-5 0-9 2-13 5c-3 4-5 8-5 13c0 5 2 9 5 13c4 3 8 5 13 5c5 0 10-2 13-5c4-4 6-8 6-13z m292-17c0-23-7-42-21-55c-14-13-32-19-55-19l-250 0c-23 0-41 6-55 19c-14 13-21 32-21 55c0 13 0 25 1 37c1 12 4 25 7 39c4 15 8 27 14 38c5 11 13 21 23 30c10 8 21 14 34 17c-4-10-6-21-6-34l0-58c-11-4-20-11-27-20c-6-10-10-20-10-32c0-15 6-28 16-39c11-11 24-16 39-16c16 0 28 5 39 16c11 11 16 24 16 39c0 12-3 22-10 32c-7 9-16 16-26 20l0 58c0 12 2 20 7 26c25-20 53-29 84-29c31 0 59 9 84 29c5-6 7-14 7-26l0-19c-20 0-37-7-51-21c-15-14-22-32-22-52l0-25c-6-6-9-12-9-20c0-8 3-15 8-20c5-5 12-8 20-8c7 0 14 3 19 8c5 5 8 12 8 20c0 8-3 14-9 20l0 25c0 10 3 19 11 26c7 7 16 11 25 11c10 0 19-4 26-11c7-7 11-16 11-26l0-25c-6-6-9-12-9-20c0-8 3-15 8-20c5-5 12-8 19-8c8 0 14 3 20 8c5 5 8 12 8 20c0 8-3 14-9 20l0 25c0 13-4 25-10 37c-7 11-16 20-27 26c0 2 0 6 0 13c0 6 0 10 0 13c0 3 0 7-1 12c0 5-1 10-2 14c-1 4-2 7-3 11c13-3 24-9 34-17c10-9 18-19 23-30c6-11 10-23 14-38c3-14 6-27 7-39c1-12 1-24 1-37z m-91 255c0-31-11-56-32-78c-22-21-48-32-78-32c-30 0-56 11-78 32c-21 22-32 47-32 78c0 30 11 56 32 77c22 22 48 32 78 32c30 0 56-10 78-32c21-21 32-47 32-77z"/>
<glyph unicode="&#92;" d="M341 265c0 2 0 4-2 6l-94 94c-2 1-4 2-6 2c-3 0-5-1-6-2l-94-94c-2-2-2-4-2-6c0-3 0-5 2-7c2-1 4-2 6-2l60 0l0-94c0-2 1-4 2-6c2-2 4-2 6-2l52 0c2 0 4 0 6 2c1 2 2 4 2 6l0 94l60 0c2 0 4 1 6 3c1 1 2 3 2 6z m171-77c0-29-10-53-30-73c-20-20-44-30-72-30l-291 0c-32 0-61 12-84 35c-23 24-35 52-35 85c0 23 6 44 19 64c12 19 29 34 50 44c-1 5-1 9-1 11c0 38 14 70 40 97c27 26 59 40 97 40c28 0 53-8 76-23c23-16 40-36 50-62c13 11 28 17 44 17c19 0 35-7 49-20c13-14 20-30 20-49c0-13-4-26-11-37c23-5 42-17 57-36c15-18 22-39 22-63z"/>
<glyph unicode="&#57345;" d="M341 247c0 3 0 5-2 7c-2 1-4 2-6 2l-60 0l0 94c0 2-1 4-2 6c-2 2-4 2-6 2l-52 0c-2 0-4 0-6-2c-1-2-2-4-2-6l0-94l-60 0c-2 0-4-1-6-3c-2-1-2-3-2-6c0-2 0-4 2-6l94-94c1-1 3-2 6-2c2 0 4 1 6 2l94 94c1 2 2 4 2 6z m171-59c0-29-10-53-30-73c-20-20-44-30-72-30l-291 0c-32 0-61 12-84 35c-23 24-35 52-35 85c0 23 6 44 19 64c12 19 29 34 50 44c-1 5-1 9-1 11c0 38 14 70 40 97c27 26 59 40 97 40c28 0 53-8 76-23c23-16 40-36 50-62c13 11 28 17 44 17c19 0 35-7 49-20c13-14 20-30 20-49c0-13-4-26-11-37c23-5 42-17 57-36c15-18 22-39 22-63z"/>
<glyph unicode="&#57346;" d="M256 402c-39 0-75-6-109-20c-34-13-61-31-81-53c-19-23-29-47-29-73c0-21 6-42 20-61c14-19 33-36 58-50l24-14l-7-28c-5-17-12-34-20-49c29 12 55 28 78 49l13 11l16-2c13-2 25-2 37-2c39 0 75 6 109 20c34 13 61 31 81 53c19 23 29 47 29 73c0 26-10 50-29 73c-20 22-47 40-81 53c-34 14-70 20-109 20z m256-146c0-33-11-64-34-92c-23-28-54-50-93-66c-40-17-83-25-129-25c-13 0-27 1-41 2c-38-33-82-56-132-69c-9-2-20-4-32-6l-2 0c-3 0-5 1-8 3c-2 2-3 5-4 8l0 0c-1 1-1 2 0 4c0 1 0 2 0 2c0 1 1 2 2 3l1 3c0 0 1 1 2 2c2 2 2 3 3 3c1 1 4 5 8 10c5 5 8 8 10 10c2 3 5 6 9 12c4 5 7 10 9 14c3 5 5 10 8 17c3 7 5 14 8 22c-30 17-54 38-71 63c-17 25-26 51-26 80c0 33 11 64 34 92c23 28 54 50 93 66c40 17 83 25 129 25c46 0 89-8 129-25c39-16 70-38 93-66c23-28 34-59 34-92z"/>
<glyph unicode="&#57347;" d="M201 402c-29 0-56-5-82-15c-25-9-45-23-60-40c-15-17-22-35-22-54c0-16 5-31 15-46c10-14 24-27 42-37l28-16l-10-24c6 4 12 7 18 11l12 9l15-3c15-3 30-4 44-4c29 0 57 5 82 15c25 10 45 23 60 40c15 17 23 35 23 55c0 19-8 37-23 54c-15 17-35 31-60 40c-25 10-53 15-82 15z m0 37c37 0 70-7 101-20c31-13 56-31 73-53c18-22 27-47 27-73c0-27-9-51-27-74c-17-22-42-40-73-53c-31-13-64-20-101-20c-16 0-33 2-50 5c-24-17-50-29-80-37c-6-1-15-3-24-4l-1 0c-2 0-4 0-6 2c-2 2-3 4-3 6c0 1 0 1 0 2c0 1 0 1 0 2c0 0 0 1 0 1l1 2c0 0 0 0 1 1c1 1 1 2 1 2c0 0 1 0 1 1c1 1 2 2 2 2c1 1 3 3 6 7c4 3 6 6 8 8c1 2 3 5 6 8c3 4 5 8 7 11c2 4 4 8 6 13c-24 14-42 31-56 51c-13 20-20 41-20 64c0 26 9 51 27 73c18 22 42 40 73 53c31 13 65 20 101 20z m235-334c2-5 4-9 6-13c2-4 4-7 7-11c3-3 5-6 6-8c2-2 4-5 8-8c3-4 5-6 6-8c1 0 1 0 2-1c0-1 1-1 1-1c0-1 1-1 1-2c0 0 1-1 1-1l1-2c0 0 0 0 0-1c1-2 1-2 0-2c0 0 0-1 0-2c0-3-2-5-4-6c-1-2-4-3-6-2c-9 1-18 2-24 4c-30 8-56 20-80 37c-17-3-34-5-50-5c-52 0-97 13-135 38c11-1 19-1 25-1c31 0 60 4 88 13c29 8 54 20 76 36c24 18 42 38 55 61c12 23 19 47 19 73c0 14-2 29-7 43c25-14 44-30 59-51c14-20 21-42 21-66c0-22-7-44-20-64c-14-20-32-36-56-50z"/>
<glyph unicode="&#57348;" d="M136 333l0-283l-94 0l0 283z m6 88c0-14-4-26-14-35c-10-9-23-14-39-14l0 0c-16 0-29 5-38 14c-10 9-14 21-14 35c0 14 4 26 14 35c10 9 23 14 39 14c16 0 28-5 38-14c9-9 14-21 14-35z m333-208l0-163l-94 0l0 152c0 20-3 35-11 47c-8 11-20 17-36 17c-12 0-22-4-30-10c-9-7-15-15-19-25c-2-5-3-13-3-23l0-158l-94 0c1 76 1 138 1 185c0 47 0 76 0 85l-1 13l94 0l0-41l0 0c4 6 7 12 11 16c4 5 10 10 17 15c6 5 15 10 24 13c10 3 21 4 33 4c33 0 59-11 79-32c20-22 29-54 29-95z"/>
<glyph unicode="&#57349;" d="M512 309l0-227c0-12-4-23-13-32c-9-9-20-13-33-13l-420 0c-13 0-24 4-33 13c-9 9-13 20-13 32l0 227c8-9 18-17 29-25c69-47 116-79 142-98c11-8 20-15 26-19c7-4 16-9 27-14c12-4 22-7 32-7l0 0c10 0 20 3 32 7c11 5 20 10 27 14c6 4 15 11 26 19c33 23 80 56 142 98c11 8 21 16 29 25z m0 84c0-15-5-29-14-43c-9-14-21-25-35-35c-71-50-116-81-134-93c-1-1-6-4-12-9c-6-4-11-8-15-11c-4-2-9-5-15-9c-6-3-11-6-16-8c-6-1-10-2-15-2l0 0c-5 0-9 1-15 2c-5 2-10 5-16 8c-6 4-11 7-15 9c-4 3-9 7-15 11c-6 5-11 8-12 9c-18 12-43 30-75 52c-33 23-52 36-59 41c-12 8-23 19-33 33c-11 14-16 27-16 39c0 15 4 27 12 37c8 10 19 15 34 15l420 0c13 0 23-5 32-14c9-9 14-19 14-32z"/>
<glyph unicode="&#57350;" d="M402 311c0-5-2-9-5-13c-4-4-8-5-13-5l-256 0c-5 0-9 1-13 5c-3 4-5 8-5 13c0 5 2 9 5 13l128 128c4 3 8 5 13 5c5 0 9-2 13-5l128-128c3-4 5-8 5-13z"/>
<glyph unicode="&#57351;" d="M205 188l102 0l0 25l-34 0l0 120l-30 0l-40-37l21-21c7 7 12 12 14 15l1 0l0-77l-34 0z m136 68c0-12-2-25-5-38c-4-13-9-25-16-36c-7-11-16-20-27-27c-11-6-24-10-37-10c-13 0-26 4-37 10c-11 7-20 16-27 27c-7 11-12 23-16 36c-3 13-5 26-5 38c0 12 2 25 5 38c4 13 9 25 16 36c7 11 16 20 27 27c11 6 24 10 37 10c13 0 26-4 37-10c11-7 20-16 27-27c7-11 12-23 16-36c3-13 5-26 5-38z m137-68l0 136c-19 0-35 7-48 20c-14 14-20 30-20 49l-308 0c0-19-6-35-20-49c-13-13-29-20-48-20l0-136c19 0 35-7 48-20c14-14 20-30 20-49l308 0c0 19 6 35 20 49c13 13 29 20 48 20z m34 222l0-308c0-4-2-8-5-12c-3-3-7-5-12-5l-478 0c-5 0-9 2-12 5c-3 4-5 8-5 12l0 308c0 4 2 8 5 12c3 3 7 5 12 5l478 0c5 0 9-2 12-5c3-4 5-8 5-12z"/>
<glyph unicode="&#57352;" d="M269 93c0 4-1 8-2 12c-1 4-1 7-2 10c-1 3-3 7-5 10c-3 4-5 6-6 9c-2 2-5 5-8 8c-3 4-6 6-8 8c-2 1-5 4-9 7c-4 3-7 5-9 6c-1 2-5 4-9 7c-5 3-8 5-9 6c-3 0-8 1-14 1c-11 0-21-1-31-2c-9-2-20-4-30-8c-11-3-20-7-28-13c-8-5-15-12-20-21c-5-9-8-19-8-31c0-13 4-24 10-34c7-11 16-19 27-24c11-6 22-11 34-13c12-3 24-5 37-5c11 0 22 1 32 4c10 2 19 6 28 11c9 5 16 12 22 21c5 9 8 19 8 31z m-35 247c0 11-1 23-4 36c-4 13-8 25-14 37c-6 12-14 22-24 30c-10 8-21 12-34 12c-18 0-31-7-41-20c-10-13-15-29-15-47c0-9 1-18 4-28c2-10 5-20 10-30c4-10 10-19 16-27c6-8 13-14 22-19c9-5 18-7 28-7c18 0 32 5 40 17c8 11 12 27 12 46z m-37 135l125 0l-39-22l-38 0c13-9 24-21 31-36c7-16 11-32 11-48c0-15-2-27-6-38c-5-11-10-20-16-26c-7-7-13-13-19-19c-7-5-12-11-16-17c-5-6-7-13-7-20c0-5 2-9 5-14c3-5 7-9 12-14c5-4 11-9 17-14c6-4 12-10 18-15c6-6 12-13 17-19c5-7 9-15 12-25c3-9 5-19 5-30c0-30-13-57-40-81c-29-25-69-37-120-37c-11 0-23 1-34 3c-12 2-23 5-35 9c-12 5-22 10-31 17c-9 7-16 15-22 25c-6 11-9 22-9 35c0 12 4 25 11 39c6 12 15 22 27 31c12 9 26 16 42 21c15 4 30 8 44 10c14 2 28 3 43 4c-12 16-18 30-18 42c0 3 0 5 0 7c1 2 1 4 2 6c0 1 1 3 2 6c1 2 1 4 2 6c-8-1-14-2-20-2c-29 0-53 10-73 28c-20 19-31 43-31 71c0 26 9 50 28 71c18 21 40 35 66 41c18 4 36 5 54 5z m297-73l0-36l-73 0l0-73l-37 0l0 73l-73 0l0 36l73 0l0 73l37 0l0-73z"/>
<glyph unicode="&#57353;" d="M393 475c23 0 42-8 58-24c16-16 24-35 24-58l0-274c0-23-8-42-24-58c-16-16-35-24-58-24l-207 0c16 23 26 43 31 60c2 6 7 26 15 59c4-7 11-14 21-19c10-5 21-8 32-8c35 0 63 14 85 42c21 28 32 64 32 107c0 16-3 31-10 46c-6 15-16 29-27 40c-12 12-27 21-44 28c-17 7-36 10-56 10c-20 0-38-2-56-8c-17-5-32-13-43-22c-12-9-23-19-31-31c-9-12-15-24-19-37c-4-12-6-25-6-37c0-20 3-37 11-52c8-15 19-25 33-31c3-1 5-1 7 0c2 1 3 2 4 5c2 9 3 14 4 18c2 4 1 8-3 12c-9 11-14 26-14 42c0 29 10 53 30 74c19 20 45 30 77 30c28 0 50-8 66-23c16-15 24-35 24-60c0-32-6-59-19-82c-13-22-30-33-50-33c-11 0-20 4-27 12c-7 8-10 18-7 30c2 6 4 15 8 26c3 11 6 21 8 29c2 8 3 16 3 21c0 10-2 18-7 24c-5 6-13 9-22 9c-12 0-21-5-30-16c-8-11-12-24-12-40c0-14 3-25 7-35l-28-118c-4-19-5-43-2-72l-52 0c-23 0-42 8-58 24c-16 16-24 35-24 58l0 274c0 23 8 42 24 58c16 16 35 24 58 24z"/>
<glyph unicode="&#57354;" d="M230 57c0-7-1-14-3-20l-108 0c-18 0-35 5-49 16c-15 10-25 25-30 42c5 8 11 16 20 22c9 6 18 11 29 14c10 3 20 6 30 7c10 1 20 2 31 2c6 0 10 0 14-1c1 0 4-2 8-6c5-3 8-5 10-6c1-1 4-3 9-7c4-3 7-5 9-7c2-2 4-4 8-7c3-4 6-6 7-9c2-2 4-5 6-8c3-4 4-7 5-10c1-3 2-7 3-11c1-3 1-7 1-11z m-83 100c-45-1-82-9-110-24l0 124c19-23 45-34 78-34c6 0 12 0 20 1c-4-11-6-20-6-24c0-13 6-27 18-43z m49 146c0-19-4-34-12-46c-9-11-22-17-41-17c-9 0-19 2-27 7c-9 5-16 12-23 20c-6 8-11 17-16 26c-4 10-8 20-10 30c-2 10-3 19-3 28c0 19 5 34 15 48c10 13 23 19 41 19c13 0 24-4 34-11c10-8 18-18 24-30c6-12 10-25 13-37c3-13 5-25 5-37z m279 26l0-210c0-23-8-42-24-58c-16-16-35-24-58-24l-134 0c8 13 12 28 12 44c0 13-3 25-7 35c-4 11-9 20-16 27c-6 7-13 14-20 20c-7 7-14 13-21 17c-6 5-11 10-16 16c-4 5-6 11-6 17c0 7 2 13 7 19c4 6 9 12 16 18c6 5 12 12 18 18c7 7 12 16 16 27c5 11 7 23 7 37c0 14-3 28-8 42c-5 14-12 25-21 34c-1 1-3 2-4 3c-2 1-3 2-4 2c-1 0-2 1-3 3c-1 1-2 3-3 5l39 0l38 18l-124 0c-27 0-50-4-70-11c-21-7-38-20-52-38c0 24 7 44 23 61c15 16 35 24 59 24l274 0c23 0 42-8 58-24c16-16 24-35 24-58l0-27l-73 0l0 73l-36 0l0-73l-73 0l0-37l73 0l0-73l36 0l0 73z"/>
<glyph unicode="&#57355;" d="M475 256c0-40-9-77-29-110c-20-34-46-60-80-80c-33-20-70-29-110-29c-21 0-42 3-62 9c11 17 18 33 22 47c2 6 7 26 15 60c4-8 11-14 21-19c10-6 21-9 33-9c23 0 43 7 62 20c18 13 32 31 42 54c9 23 14 48 14 77c0 22-5 42-17 61c-11 19-27 35-49 47c-21 12-46 18-73 18c-20 0-38-3-56-9c-17-5-32-12-44-22c-12-9-22-19-31-31c-9-12-15-24-19-37c-4-13-6-26-6-38c0-20 4-38 11-53c8-15 19-25 34-31c5-3 9-1 10 5c1 2 2 5 3 9c1 5 2 8 2 9c1 4 0 8-3 12c-10 12-15 26-15 43c0 29 10 54 30 74c20 21 46 31 78 31c29 0 51-8 68-23c16-16 24-36 24-61c0-32-7-60-20-83c-13-22-30-34-50-34c-12 0-21 5-28 13c-7 8-9 18-7 30c2 6 4 15 8 26c4 12 6 21 9 30c2 8 3 16 3 21c0 10-3 18-8 24c-5 6-12 10-22 10c-12 0-22-6-30-17c-8-11-12-24-12-40c0-14 2-26 7-35l-28-120c-4-13-5-30-4-50c-39 17-71 44-95 80c-24 36-36 77-36 121c0 40 9 77 29 110c20 34 46 60 80 80c33 20 70 29 110 29c40 0 77-9 110-29c34-20 60-46 80-80c20-33 29-70 29-110z"/>
<glyph unicode="&#57356;" d="M183 110c0 10-4 18-11 25c-7 8-16 11-26 11c-10 0-18-3-25-11c-8-7-11-15-11-25c0-10 3-19 11-26c7-7 15-11 25-11c10 0 19 4 26 11c7 7 11 16 11 26z m-110 146l110 0l0 73l-45 0c-3 0-5-1-7-2l-55-56c-2-2-3-4-3-6z m366-146c0 10-4 18-11 25c-7 8-16 11-26 11c-10 0-18-3-25-11c-8-7-11-15-11-25c0-10 3-19 11-26c7-7 15-11 25-11c10 0 19 4 26 11c7 7 11 16 11 26z m73 311l0-293c0-3 0-5-1-8c-1-2-2-4-4-5c-2-1-3-2-5-3c-1-1-3-2-6-2c-4 0-6 0-7 0c-1-1-3-1-7 0c-4 0-6 0-7 0c0-20-7-38-21-52c-14-14-32-21-52-21c-20 0-37 7-51 21c-15 14-22 32-22 52l-110 0c0-20-7-38-21-52c-14-14-32-21-52-21c-20 0-37 7-51 21c-15 14-22 32-22 52l-18 0c-1 0-3 0-7 0c-3-1-6-1-7 0c-1 0-3 0-6 0c-3 0-6 1-7 2c-1 1-3 2-5 3c-2 1-3 3-4 5c0 3-1 5-1 8c0 5 2 9 6 13c3 3 8 5 13 5l0 92c0 1 0 5-1 10c0 5 0 8 0 11c1 2 1 5 1 9c1 5 1 8 2 11c1 3 2 5 4 9c2 3 4 6 6 8l57 57c4 3 8 7 14 9c6 2 12 4 17 4l46 0l0 55c0 5 2 9 5 12c4 4 8 6 13 6l293 0c5 0 9-2 13-6c3-3 5-7 5-12z"/>
<glyph unicode="&#57357;" d="M109 49c0-15-5-27-16-36c-10-9-23-13-38-13c-21 0-37 6-50 19l17 25c9-9 19-13 30-13c6 0 10 2 14 4c5 3 7 7 7 12c0 13-10 18-30 16l-8 16c2 2 5 6 9 13c5 6 9 11 13 15c3 4 7 8 10 11l0 1c-3 0-8-1-14-1c-6 0-11 0-14 0l0-15l-30 0l0 43l95 0l0-25l-27-33c10-2 18-7 23-14c6-7 9-15 9-25z m0 179l0-45l-103 0c-1 7-2 12-2 15c0 10 3 19 7 27c4 8 10 14 16 19c6 5 13 10 19 14c6 4 12 8 16 12c5 4 7 9 7 13c0 5-2 9-4 11c-3 3-7 4-12 4c-8 0-16-6-23-17l-24 17c5 10 11 18 20 23c9 5 20 8 31 8c13 0 25-4 35-12c9-8 14-18 14-32c0-9-3-18-10-26c-6-8-13-14-21-18c-8-5-15-10-22-15c-6-5-10-10-10-15l36 0l0 17z m403-91l0-55c0-2-1-4-3-6c-2-2-4-3-6-3l-348 0c-2 0-4 1-6 3c-2 2-3 4-3 6l0 55c0 3 1 5 3 7c2 1 4 2 6 2l348 0c2 0 4-1 6-2c2-2 3-4 3-7z m-402 257l0-28l-96 0l0 28l31 0c0 8 0 19 0 35c0 15 0 27 0 34l0 4l-1 0c-1-3-6-9-14-16l-20 22l39 36l30 0l0-115z m402-111l0-54c0-3-1-5-3-7c-2-2-4-3-6-3l-348 0c-2 0-4 1-6 3c-2 2-3 4-3 7l0 54c0 3 1 5 3 7c2 2 4 3 6 3l348 0c2 0 4-1 6-3c2-2 3-4 3-7z m0 147l0-55c0-3-1-5-3-7c-2-1-4-2-6-2l-348 0c-2 0-4 1-6 2c-2 2-3 4-3 7l0 55c0 2 1 4 3 6c2 2 4 3 6 3l348 0c2 0 4-1 6-3c2-2 3-4 3-6z"/>
<glyph unicode="&#57358;" d="M110 110c0-16-6-28-16-39c-11-11-24-16-39-16c-15 0-28 5-39 16c-11 11-16 23-16 39c0 15 5 28 16 39c11 10 24 16 39 16c15 0 28-6 39-16c10-11 16-24 16-39z m0 146c0-15-6-28-16-39c-11-11-24-16-39-16c-15 0-28 5-39 16c-11 11-16 24-16 39c0 15 5 28 16 39c11 11 24 16 39 16c15 0 28-5 39-16c10-11 16-24 16-39z m402-119l0-55c0-2-1-4-3-6c-2-2-4-3-6-3l-348 0c-2 0-4 1-6 3c-2 2-3 4-3 6l0 55c0 3 1 5 3 7c2 1 4 2 6 2l348 0c2 0 4-1 6-2c2-2 3-4 3-7z m-402 265c0-15-6-28-16-39c-11-10-24-16-39-16c-15 0-28 6-39 16c-11 11-16 24-16 39c0 16 5 28 16 39c11 11 24 16 39 16c15 0 28-5 39-16c10-11 16-23 16-39z m402-119l0-54c0-3-1-5-3-7c-2-2-4-3-6-3l-348 0c-2 0-4 1-6 3c-2 2-3 4-3 7l0 54c0 3 1 5 3 7c2 2 4 3 6 3l348 0c2 0 4-1 6-3c2-2 3-4 3-7z m0 147l0-55c0-3-1-5-3-7c-2-1-4-2-6-2l-348 0c-2 0-4 1-6 2c-2 2-3 4-3 7l0 55c0 2 1 4 3 6c2 2 4 3 6 3l348 0c2 0 4-1 6-3c2-2 3-4 3-6z"/>
<glyph unicode="&#57359;" d="M146 73l220 0l0 110l-220 0z m256 0l37 0l0 256c0 3-1 6-3 11c-2 5-4 8-6 10l-80 80c-2 2-5 4-10 6c-4 2-8 3-11 3l0-119c0-8-3-14-8-19c-5-6-12-8-19-8l-165 0c-7 0-14 2-19 8c-6 5-8 11-8 19l0 119l-37 0l0-366l37 0l0 119c0 8 2 14 8 19c5 6 12 8 19 8l238 0c7 0 14-2 19-8c6-5 8-11 8-19z m-109 265l0 92c0 2-1 4-3 6c-2 2-4 3-7 3l-54 0c-3 0-5-1-7-3c-2-2-3-4-3-6l0-92c0-2 1-4 3-6c2-2 4-3 7-3l54 0c3 0 5 1 7 3c2 2 3 4 3 6z m182-9l0-265c0-8-2-14-8-19c-5-6-11-8-19-8l-384 0c-8 0-14 2-19 8c-6 5-8 11-8 19l0 384c0 8 2 14 8 19c5 6 11 8 19 8l265 0c8 0 16-1 25-5c9-4 17-9 22-14l80-80c5-5 10-13 14-22c4-9 5-17 5-25z"/>
<glyph unicode="&#57360;" d="M403 256c0 5-1 9-5 13l-26 26c-3 3-7 5-13 5c-5 0-9-2-12-5l-54-54l0 143c0 5-2 9-6 13c-3 3-8 5-13 5l-36 0c-5 0-10-2-13-5c-4-4-6-8-6-13l0-143l-54 54c-3 3-7 5-12 5c-5 0-10-2-13-5l-26-26c-4-4-5-8-5-13c0-5 1-10 5-13l103-104l26-26c4-3 8-5 13-5c5 0 9 2 13 5l26 26l103 104c4 3 5 8 5 13z m72 0c0-40-9-77-29-110c-20-34-46-60-80-80c-33-20-70-29-110-29c-40 0-77 9-110 29c-34 20-60 46-80 80c-20 33-29 70-29 110c0 40 9 77 29 110c20 34 46 60 80 80c33 20 70 29 110 29c40 0 77-9 110-29c34-20 60-46 80-80c20-33 29-70 29-110z"/>
<glyph unicode="&#57361;" d="M403 256c0 5-1 10-5 13l-103 104l-26 26c-4 3-8 5-13 5c-5 0-9-2-13-5l-26-26l-103-104c-4-3-5-8-5-13c0-5 1-9 5-13l26-26c3-3 7-5 13-5c5 0 9 2 12 5l54 54l0-143c0-5 2-9 6-13c3-3 8-5 13-5l36 0c5 0 10 2 13 5c4 4 6 8 6 13l0 143l54-54c3-3 7-5 12-5c5 0 10 2 13 5l26 26c4 4 5 8 5 13z m72 0c0-40-9-77-29-110c-20-34-46-60-80-80c-33-20-70-29-110-29c-40 0-77 9-110 29c-34 20-60 46-80 80c-20 33-29 70-29 110c0 40 9 77 29 110c20 34 46 60 80 80c33 20 70 29 110 29c40 0 77-9 110-29c34-20 60-46 80-80c20-33 29-70 29-110z"/>
<glyph unicode="&#57362;" d="M402 238l0 36c0 5-2 10-5 13c-4 4-8 6-13 6l-143 0l54 54c3 3 5 7 5 12c0 5-2 10-5 13l-26 26c-4 4-8 5-13 5c-5 0-10-1-13-5l-104-103l-26-26c-3-4-5-8-5-13c0-5 2-9 5-13l26-26l104-103c3-4 8-5 13-5c5 0 9 1 13 5l26 26c3 3 5 7 5 13c0 5-2 9-5 12l-54 54l143 0c5 0 9 2 13 6c3 3 5 8 5 13z m73 18c0-40-9-77-29-110c-20-34-46-60-80-80c-33-20-70-29-110-29c-40 0-77 9-110 29c-34 20-60 46-80 80c-20 33-29 70-29 110c0 40 9 77 29 110c20 34 46 60 80 80c33 20 70 29 110 29c40 0 77-9 110-29c34-20 60-46 80-80c20-33 29-70 29-110z"/>
<glyph unicode="&#57363;" d="M457 158c0-5-1-12-3-20c-2-9-4-15-6-20c-4-10-15-20-35-30c-17-10-35-15-53-15c-5 0-10 0-15 1c-5 1-10 2-16 4c-6 1-11 3-14 4c-3 1-8 3-16 6c-7 3-12 4-14 5c-18 7-35 14-50 24c-24 15-49 35-75 61c-26 26-47 51-62 76c-9 14-17 31-23 50c-1 1-3 6-6 14c-2 7-4 13-5 16c-1 3-3 7-5 13c-1 6-2 12-3 17c-1 4-1 9-1 15c0 17 5 35 14 53c11 19 21 31 31 35c4 2 11 4 19 6c9 1 15 2 20 2c3 0 5 0 6 0c4-2 9-9 16-22c2-4 5-9 8-16c4-6 7-12 10-18c3-5 6-10 9-15c1-1 2-3 5-7c3-4 5-8 6-10c1-3 2-6 2-8c0-4-3-9-8-15c-5-5-11-11-18-15c-6-5-12-10-17-16c-6-5-9-9-9-13c0-1 1-4 2-6c1-3 2-5 2-6c1-1 2-4 4-7c2-3 3-5 4-5c14-26 31-49 49-67c19-19 41-36 67-50c1 0 3-1 6-3c3-2 5-4 7-4c1-1 3-2 6-3c2-1 4-1 6-1c3 0 8 2 13 8c5 5 11 11 15 18c5 6 10 12 16 17c6 6 10 8 14 8c3 0 6 0 8-2c3-1 7-3 11-6c4-2 6-4 7-5c4-3 10-6 15-9c5-3 11-6 18-10c7-3 12-6 16-8c13-7 20-12 21-15c1-2 1-4 1-6z"/>
<glyph unicode="&#57364;" d="M384 91c0 5-2 10-5 13c-4 4-8 6-13 6c-5 0-10-2-13-6c-4-3-6-8-6-13c0-5 2-9 6-12c3-4 8-6 13-6c5 0 9 2 13 6c3 3 5 7 5 12z m73 0c0 5-2 10-5 13c-4 4-8 6-13 6c-5 0-9-2-13-6c-4-3-5-8-5-13c0-5 1-9 5-12c4-4 8-6 13-6c5 0 9 2 13 6c3 3 5 7 5 12z m37 64l0-91c0-8-3-14-8-19c-6-6-12-8-20-8l-420 0c-8 0-14 2-20 8c-5 5-8 11-8 19l0 91c0 8 3 15 8 20c6 5 12 8 20 8l122 0c4-11 10-20 20-26c9-7 20-11 31-11l74 0c11 0 22 4 31 11c10 6 16 15 20 26l122 0c8 0 14-3 20-8c5-5 8-12 8-20z m-93 186c-3-8-9-12-17-12l-73 0l0-128c0-5-2-9-6-13c-3-3-7-5-12-5l-74 0c-5 0-9 2-12 5c-4 4-6 8-6 13l0 128l-73 0c-8 0-14 4-17 12c-3 7-2 14 4 19l128 128c4 4 8 6 13 6c5 0 9-2 13-6l128-128c6-5 7-12 4-19z"/>
<glyph unicode="&#57365;" d="M149 126c-1-2-3-2-6 1c-2 2-2 3-1 5c2 2 4 1 6-1c2-2 3-4 1-5z m-12 17c2-2 2-4 0-5c-1-1-3-1-5 2c-1 2-1 4 0 5c2 1 4 1 5-2z m-17 17c-1-1-2-1-4 0c-2 1-3 2-2 3c1 1 2 1 4 1c2-1 2-2 2-4z m9-9c-2-2-3-1-5 0c-2 3-2 4-1 5c2 1 3 1 5-1c2-2 2-3 1-4z m36-32c0-3-2-3-5-2c-3 1-4 2-4 4c1 2 3 3 6 2c3-1 4-2 3-4z m18-2c0-2-1-3-4-3c-3 0-5 1-5 3c0 2 2 3 5 3c3 1 4 0 4-3z m17 3c0-2-1-3-4-4c-3-1-5 0-5 2c-1 3 1 4 4 5c3 0 5-1 5-3z m275 273l0-274c0-23-8-42-24-58c-16-16-35-24-58-24l-64 0c-3 0-5 0-7 0c-1 0-3 1-5 1c-3 1-4 2-5 4c-1 2-1 5-1 8l0 69c0 18-5 32-15 40c11 1 20 3 29 5c9 3 18 6 27 11c9 6 17 12 23 19c6 8 11 18 15 30c4 13 6 27 6 43c0 23-8 43-23 59c7 18 7 37-2 59c-5 1-13 0-23-4c-10-3-19-8-26-12l-11-7c-18 5-36 7-55 7c-19 0-37-2-55-7c-3 2-7 5-12 8c-5 3-13 6-24 11c-11 4-19 5-24 4c-9-22-9-41-2-59c-15-16-23-36-23-59c0-16 2-30 6-42c4-13 9-23 15-30c6-8 14-14 23-20c9-5 18-8 27-11c8-2 18-4 29-5c-8-7-12-17-14-29c-4-2-8-4-13-5c-4-1-10-1-16-1c-6 0-13 2-19 6c-6 4-11 10-16 18c-3 6-8 11-14 15c-5 4-10 6-14 7l-5 1c-4 0-7-1-9-2c-1-1-2-2-1-3c0-1 1-3 2-4c2-1 3-2 4-3l2-2c4-2 8-5 13-11c4-5 7-10 9-14l2-7c3-7 7-13 13-17c6-5 12-8 19-9c7-1 14-2 20-2c6 0 12 0 16 1l6 1c0-7 0-17 1-29c0-13 0-19 0-20c0-4-1-7-3-9c-3-2-5-4-7-4c-2 0-5 0-9 0l-64 0c-23 0-42 8-58 24c-16 16-24 35-24 58l0 274c0 23 8 42 24 58c16 16 35 24 58 24l274 0c23 0 42-8 58-24c16-16 24-35 24-58z"/>
<glyph unicode="&#57366;" d="M149 260c-14 31-21 66-21 106l-73 0l0-28c0-15 9-30 27-46c18-16 40-27 67-32z m308 78l0 28l-73 0c0-40-7-75-21-106c27 5 49 16 67 32c18 16 27 31 27 46z m37 37l0-37c0-13-4-27-12-41c-8-13-19-26-32-37c-14-11-30-20-50-28c-19-7-40-11-61-12c-8-11-17-20-27-27c-8-7-13-14-15-21c-3-7-4-16-4-26c0-10 2-19 8-26c6-7 15-10 28-10c14 0 27-5 38-13c11-9 17-20 17-33l0-18c0-3-1-5-3-7c-1-2-3-2-6-2l-238 0c-3 0-5 0-6 2c-2 2-3 4-3 7l0 18c0 13 6 24 17 33c11 8 24 13 38 13c13 0 22 3 28 10c6 7 8 16 8 26c0 10-1 19-4 26c-2 7-7 14-15 21c-10 7-19 16-27 27c-21 1-42 5-61 12c-20 8-36 17-50 28c-13 11-24 24-32 37c-8 14-12 28-12 41l0 37c0 7 3 14 8 19c6 6 12 8 20 8l82 0l0 28c0 12 4 23 13 32c9 9 20 13 33 13l164 0c13 0 24-4 33-13c9-9 13-20 13-32l0-28l82 0c8 0 14-2 20-8c5-5 8-12 8-19z"/>
<glyph unicode="&#57367;" d="M375 256c0-5-2-9-6-13l-155-155c-4-4-8-6-13-6c-5 0-9 2-13 6c-3 3-5 8-5 13l0 82l-128 0c-5 0-9 2-13 5c-4 4-5 8-5 13l0 110c0 5 1 9 5 13c4 3 8 5 13 5l128 0l0 82c0 5 2 10 5 13c4 4 8 6 13 6c5 0 9-2 13-6l155-155c4-4 6-8 6-13z m100 101l0-202c0-22-8-42-24-58c-16-16-35-24-58-24l-91 0c-3 0-5 1-7 3c-2 2-2 4-2 6c0 1-1 3-1 6c0 3 0 6 0 8c0 2 1 4 1 6c0 3 1 5 3 6c1 1 3 2 6 2l91 0c13 0 23 4 32 13c9 9 14 20 14 32l0 202c0 12-5 23-14 32c-9 9-19 13-32 13l-89 0c0 0-1 0-3 1c-2 0-4 0-4 0c0 1 0 1-2 2c-1 1-2 2-2 3c0 1 0 2 0 3c0 1-1 3-1 6c0 3 0 6 0 8c0 2 1 4 1 6c0 3 1 5 3 6c1 1 3 2 6 2l91 0c23 0 42-8 58-24c16-16 24-36 24-58z"/>
<glyph unicode="&#57368;" d="M402 247l0-92c0-22-8-42-24-58c-16-16-35-24-58-24l-238 0c-22 0-42 8-58 24c-16 16-24 36-24 58l0 238c0 23 8 42 24 58c16 16 36 24 58 24l201 0c3 0 5 0 7-2c2-2 3-4 3-7l0-18c0-3-1-5-3-7c-2-1-4-2-7-2l-201 0c-12 0-23-5-32-14c-9-9-13-19-13-32l0-238c0-12 4-23 13-32c9-9 20-13 32-13l238 0c13 0 23 4 32 13c9 9 14 20 14 32l0 92c0 3 1 5 2 6c2 2 4 3 7 3l18 0c3 0 5-1 7-3c1-1 2-3 2-6z m110 247l0-147c0-5-2-9-5-12c-4-4-8-6-13-6c-5 0-10 2-13 6l-50 50l-187-186c-2-2-4-3-6-3c-3 0-5 1-7 3l-32 32c-2 2-3 4-3 7c0 2 1 4 3 6l186 187l-50 50c-4 3-6 8-6 13c0 5 2 9 6 13c3 3 7 5 12 5l147 0c5 0 9-2 13-5c3-4 5-8 5-13z"/>
<glyph unicode="&#57369;" d="M104 108l66 0l0 198l-66 0z m71 259c-1 10-4 19-11 25c-6 6-15 10-26 10c-11 0-20-4-27-10c-7-6-11-15-11-25c0-9 4-17 10-24c7-7 16-10 27-10l0 0c11 0 20 3 27 10c7 7 11 15 11 24z m167-259l66 0l0 114c0 29-7 51-21 66c-14 15-32 23-55 23c-26 0-46-11-60-34l1 0l0 29l-66 0c0-12 0-78 0-198l66 0l0 111c0 7 0 12 2 16c2 7 7 12 12 17c6 5 13 7 22 7c22 0 33-15 33-45z m133 285l0-274c0-23-8-42-24-58c-16-16-35-24-58-24l-274 0c-23 0-42 8-58 24c-16 16-24 35-24 58l0 274c0 23 8 42 24 58c16 16 35 24 58 24l274 0c23 0 42-8 58-24c16-16 24-35 24-58z"/>
<glyph unicode="&#57370;" d="M229 265l0 128c0 3-1 5-3 7c-2 1-4 2-7 2c-2 0-4-1-6-2c-2-2-3-4-3-7l0-128c0-3 1-5 3-6c2-2 4-3 6-3c3 0 5 1 7 3c2 1 3 3 3 6z m192-100c0-5-2-10-6-13c-3-4-8-6-13-6l-122 0l-15-138c0-2-1-4-3-6c-1-1-3-2-6-2l0 0c-5 0-8 3-9 8l-22 138l-115 0c-5 0-10 2-13 6c-4 3-6 8-6 13c0 23 8 44 23 63c15 19 32 28 51 28l0 146c-10 0-19 4-26 11c-7 7-11 16-11 26c0 10 4 18 11 26c7 7 16 10 26 10l182 0c10 0 19-3 26-10c7-8 11-16 11-26c0-10-4-19-11-26c-7-7-16-11-26-11l0-146c19 0 36-9 51-28c15-19 23-40 23-63z"/>
<glyph unicode="&#57371;" d="M201 101c0-1 0-3 0-6c1-3 1-6 1-8c-1-2-1-4-1-6c-1-3-2-5-3-6c-2-1-4-2-6-2l-91 0c-23 0-42 8-59 24c-16 16-24 36-24 58l0 202c0 22 8 42 24 58c17 16 36 24 59 24l91 0c2 0 5-1 6-3c2-2 3-4 3-6c0-1 0-3 0-6c1-3 1-6 1-8c-1-2-1-4-1-6c-1-3-2-5-3-6c-2-1-4-2-6-2l-91 0c-13 0-24-4-33-13c-9-9-13-20-13-32l0-202c0-12 4-23 13-32c9-9 20-13 33-13l89 0c0 0 1 0 3-1c2 0 3 0 3 0c0-1 1-1 3-2c1-1 2-2 2-3c-1-1 0-2 0-3z m265 155c0-5-2-9-5-13l-156-155c-3-4-7-6-12-6c-5 0-10 2-13 6c-4 3-6 8-6 13l0 82l-128 0c-5 0-9 2-13 5c-3 4-5 8-5 13l0 110c0 5 2 9 5 13c4 3 8 5 13 5l128 0l0 82c0 5 2 10 6 13c3 4 8 6 13 6c5 0 9-2 12-6l156-155c3-4 5-8 5-13z"/>
<glyph unicode="&#57371;" d="M201 73c0-10-3-19-11-26c-7-7-15-10-25-10c-11 0-19 3-26 10c-7 7-11 16-11 26c0 10 4 19 11 26c7 7 15 11 26 11c10 0 18-4 25-11c8-7 11-16 11-26z m256 0c0-10-3-19-11-26c-7-7-15-10-25-10c-11 0-19 3-26 10c-7 7-11 16-11 26c0 10 4 19 11 26c7 7 15 11 26 11c10 0 18-4 25-11c8-7 11-16 11-26z m37 311l0-146c0-5-2-9-5-12c-3-4-7-6-12-7l-298-34c0-2 1-4 1-7c1-2 2-5 2-7c1-2 1-5 1-6c0-3-2-10-7-19l263 0c5 0 9-2 13-5c3-4 5-8 5-13c0-5-2-9-5-13c-4-3-8-5-13-5l-293 0c-5 0-9 2-13 5c-3 4-5 8-5 13c0 3 1 6 3 11c2 5 5 11 9 17c3 7 5 10 5 11l-50 235l-58 0c-5 0-10 2-13 6c-4 3-6 8-6 13c0 5 2 9 6 12c3 4 8 6 13 6l73 0c3 0 5-1 8-2c2-1 4-3 6-4c1-2 2-4 3-7c1-3 2-6 2-8c1-2 1-5 2-8c1-4 1-6 1-8l343 0c5 0 10-2 13-5c4-4 6-8 6-13z"/>
<glyph unicode="&#57372;" d="M512 256c0-33-11-64-34-92c-23-28-54-50-93-66c-40-17-83-25-129-25c-13 0-27 1-41 2c-38-33-82-56-132-69c-9-2-20-4-32-6c-4 0-7 0-9 3c-3 2-4 4-5 8l0 0c-1 1-1 2 0 4c0 1 0 2 0 2c0 1 1 2 2 3l1 3c0 0 1 1 2 2c2 2 2 3 3 3c1 1 4 5 8 10c5 5 8 8 10 10c2 3 5 6 9 12c4 5 7 10 9 14c3 5 5 10 8 17c3 7 5 14 8 22c-30 17-54 38-71 63c-17 25-26 51-26 80c0 25 7 48 20 71c14 23 32 42 55 58c23 17 50 30 82 39c31 10 64 15 99 15c46 0 89-8 129-25c39-16 70-38 93-66c23-28 34-59 34-92z"/>
<glyph unicode="&#57373;" d="M302 125l0 204l-92 0l0-204c0-5 2-9 5-11c4-3 8-4 14-4l54 0c6 0 10 1 14 4c3 2 5 6 5 11z m-131 241l56 0l-36 46c-5 6-11 9-20 9c-7 0-14-3-19-8c-5-6-8-12-8-20c0-7 3-14 8-19c5-6 12-8 19-8z m197 27c0 8-3 14-8 20c-5 5-12 8-19 8c-9 0-15-3-20-9l-36-46l56 0c7 0 14 2 19 8c5 5 8 12 8 19z m107-73l0-91c0-3 0-5-2-7c-2-2-4-3-7-3l-27 0l0-118c0-8-3-15-8-20c-5-5-12-8-20-8l-310 0c-8 0-15 3-20 8c-5 5-8 12-8 20l0 118l-27 0c-3 0-5 1-7 3c-2 2-2 4-2 7l0 91c0 3 0 5 2 7c2 1 4 2 7 2l125 0c-17 0-32 6-45 19c-12 12-19 27-19 45c0 18 7 33 19 45c13 13 28 19 45 19c21 0 37-7 48-22l37-47l37 47c11 15 27 22 48 22c17 0 32-6 45-19c12-12 19-27 19-45c0-18-7-33-19-45c-13-13-28-19-45-19l125 0c3 0 5-1 7-2c2-2 2-4 2-7z"/>
<glyph unicode="&#57374;" d="M55 37l82 0l0 82l-82 0z m100 0l92 0l0 82l-92 0z m-100 100l82 0l0 92l-82 0z m100 0l92 0l0 92l-92 0z m-100 110l82 0l0 82l-82 0z m210-210l92 0l0 82l-92 0z m-110 210l92 0l0 82l-92 0z m220-210l82 0l0 82l-82 0z m-110 100l92 0l0 92l-92 0z m-100 247l0 82c0 3-1 5-3 7c-2 2-4 2-7 2l-18 0c-2 0-4 0-6-2c-2-2-3-4-3-7l0-82c0-2 1-5 3-6c2-2 4-3 6-3l18 0c3 0 5 1 7 3c2 1 3 4 3 6z m210-247l82 0l0 92l-82 0z m-110 110l92 0l0 82l-92 0z m110 0l82 0l0 82l-82 0z m9 137l0 82c0 3-1 5-3 7c-2 2-4 2-6 2l-18 0c-3 0-5 0-7-2c-2-2-3-4-3-7l0-82c0-2 1-5 3-6c2-2 4-3 7-3l18 0c2 0 4 1 6 3c2 1 3 4 3 6z m110 18l0-365c0-10-4-19-11-26c-7-7-16-11-26-11l-402 0c-10 0-19 4-26 11c-7 7-11 16-11 26l0 365c0 10 4 19 11 26c7 7 16 11 26 11l36 0l0 27c0 13 5 24 14 33c9 9 20 13 32 13l18 0c13 0 24-4 33-13c9-9 13-20 13-33l0-27l110 0l0 27c0 13 4 24 13 33c9 9 20 13 33 13l18 0c12 0 23-4 32-13c9-9 14-20 14-33l0-27l36 0c10 0 19-4 26-11c7-7 11-16 11-26z"/>
<glyph unicode="&#57375;" d="M512 329c0-5-2-9-5-13l-147-146c-3-4-8-5-13-5c-5 0-9 1-12 5c-4 4-6 8-6 13l0 73l-64 0c-19 0-35-1-50-2c-15-1-29-3-44-6c-15-3-27-7-38-12c-11-5-21-12-30-20c-9-8-17-18-23-29c-6-11-11-24-14-39c-3-16-5-33-5-52c0-10 1-22 2-35c0-1 0-4 0-7c1-3 1-6 1-7c0-3-1-6-2-8c-2-1-4-2-7-2c-3 0-6 1-8 4c-1 2-3 4-4 7c-1 2-2 5-4 8c-1 4-2 6-3 7c-24 54-36 97-36 129c0 38 5 70 15 95c31 77 114 115 250 115l64 0l0 73c0 5 2 10 6 13c3 4 7 6 12 6c5 0 10-2 13-6l147-146c3-4 5-8 5-13z"/>
<glyph unicode="&#57376;" d="M479 274c0-10-4-18-11-25l-186-187c-7-7-16-10-26-10c-10 0-19 3-26 10l-186 187c-7 6-11 15-11 25c0 10 4 19 11 26l21 22c8 7 17 10 26 10c11 0 19-3 26-10l84-84l0 201c0 10 4 18 11 26c7 7 16 10 26 10l36 0c10 0 19-3 26-10c7-8 11-16 11-26l0-201l84 84c7 7 15 10 26 10c9 0 18-3 26-10l21-22c7-7 11-16 11-26z"/>
<glyph unicode="&#57377;" d="M479 235c0-10-4-19-11-26l-21-22c-8-7-16-10-26-10c-11 0-19 3-26 10l-84 84l0-201c0-10-4-18-11-24c-7-6-16-9-26-9l-36 0c-10 0-19 3-26 9c-7 6-11 14-11 24l0 201l-84-84c-7-7-15-10-26-10c-10 0-18 3-25 10l-22 22c-7 7-11 16-11 26c0 10 4 18 11 26l186 186c7 7 16 10 26 10c10 0 19-3 26-10l186-186c7-8 11-17 11-26z"/>
<glyph unicode="&#57378;" d="M457 238c0-11-3-19-10-26l-186-186c-8-7-17-11-26-11c-10 0-19 4-26 11l-22 21c-7 7-10 16-10 26c0 10 3 19 10 26l84 84l-201 0c-10 0-18 3-24 11c-6 7-9 15-9 25l0 37c0 10 3 19 9 26c6 7 14 11 24 11l201 0l-84 84c-7 6-10 15-10 25c0 11 3 19 10 26l22 21c7 8 16 11 26 11c10 0 18-3 26-11l186-186c7-6 10-15 10-25z"/>
<glyph unicode="&#57379;" d="M475 256l0-37c0-10-3-18-9-25c-6-8-14-11-24-11l-201 0l84-84c7-7 10-16 10-26c0-10-3-19-10-26l-22-21c-7-7-15-11-26-11c-9 0-18 4-26 11l-186 186c-7 7-10 16-10 26c0 10 3 18 10 26l186 185c8 8 16 11 26 11c10 0 19-3 26-11l22-21c7-7 10-16 10-26c0-10-3-18-10-26l-84-83l201 0c10 0 18-4 24-11c6-7 9-16 9-26z"/>
<glyph unicode="&#57380;" d="M350 204l-42-42c-2-2-4-3-6-3c-3 0-5 1-7 3l-39 39l-39-39c-2-2-4-3-7-3c-2 0-4 1-6 3l-42 42c-2 2-3 4-3 6c0 3 1 5 3 7l39 39l-39 39c-2 2-3 4-3 7c0 2 1 4 3 6l42 42c2 2 4 3 6 3c3 0 5-1 7-3l39-39l39 39c2 2 4 3 7 3c2 0 4-1 6-3l42-42c2-2 3-4 3-6c0-3-1-5-3-7l-39-39l39-39c2-2 3-4 3-7c0-2-1-4-3-6z m61 52c0 28-7 54-20 78c-14 24-33 43-57 57c-24 13-50 20-78 20c-28 0-54-7-78-20c-24-14-43-33-57-57c-13-24-20-50-20-78c0-28 7-54 20-78c14-24 33-43 57-57c24-13 50-20 78-20c28 0 54 7 78 20c24 14 43 33 57 57c13 24 20 50 20 78z m64 0c0-40-9-77-29-110c-20-34-46-60-80-80c-33-20-70-29-110-29c-40 0-77 9-110 29c-34 20-60 46-80 80c-20 33-29 70-29 110c0 40 9 77 29 110c20 34 46 60 80 80c33 20 70 29 110 29c40 0 77-9 110-29c34-20 60-46 80-80c20-33 29-70 29-110z"/>
<glyph unicode="&#57381;" d="M371 280l-120-121c-4-3-8-5-13-5c-5 0-10 2-13 5l-84 84c-4 4-6 8-6 13c0 5 2 9 6 13l29 29c4 4 8 5 13 5c5 0 9-1 13-5l42-42l78 79c4 3 8 5 13 5c5 0 9-2 13-5l29-30c4-3 6-7 6-12c0-5-2-10-6-13z m40-24c0 28-7 54-20 78c-14 24-33 43-57 57c-24 13-50 20-78 20c-28 0-54-7-78-20c-24-14-43-33-57-57c-13-24-20-50-20-78c0-28 7-54 20-78c14-24 33-43 57-57c24-13 50-20 78-20c28 0 54 7 78 20c24 14 43 33 57 57c13 24 20 50 20 78z m64 0c0-40-9-77-29-110c-20-34-46-60-80-80c-33-20-70-29-110-29c-40 0-77 9-110 29c-34 20-60 46-80 80c-20 33-29 70-29 110c0 40 9 77 29 110c20 34 46 60 80 80c33 20 70 29 110 29c40 0 77-9 110-29c34-20 60-46 80-80c20-33 29-70 29-110z"/>
<glyph unicode="&#57382;" d="M379 219l-32 0c-5 0-9 2-12 6c-4 3-6 8-6 13l0 36c0 5 2 10 6 13c3 4 7 6 12 6l32 0c-7 20-17 38-33 53c-15 16-33 26-53 33l0-32c0-5-2-9-6-12c-3-4-8-6-13-6l-36 0c-5 0-10 2-13 6c-4 3-6 7-6 12l0 32c-20-7-38-17-53-33c-16-15-26-33-33-53l32 0c5 0 9-2 12-6c4-3 6-8 6-13l0-36c0-5-2-10-6-13c-3-4-7-6-12-6l-32 0c7-20 17-38 33-53c15-16 33-26 53-33l0 32c0 5 2 9 6 12c3 4 8 6 13 6l36 0c5 0 10-2 13-6c4-3 6-7 6-12l0-32c20 7 38 17 53 33c16 15 26 33 33 53z m96 55l0-36c0-5-1-10-5-13c-4-4-8-6-13-6l-41 0c-7-30-21-57-44-79c-22-23-49-37-79-44l0-41c0-5-2-9-6-13c-3-4-8-5-13-5l-36 0c-5 0-10 1-13 5c-4 4-6 8-6 13l0 41c-30 7-57 21-79 44c-23 22-37 49-44 79l-41 0c-5 0-9 2-13 6c-4 3-5 8-5 13l0 36c0 5 1 10 5 13c4 4 8 6 13 6l41 0c7 30 21 57 44 79c22 23 49 37 79 44l0 41c0 5 2 9 6 13c3 4 8 5 13 5l36 0c5 0 10-1 13-5c4-4 6-8 6-13l0-41c30-7 57-21 79-44c23-22 37-49 44-79l41 0c5 0 9-2 13-6c4-3 5-8 5-13z"/>
<glyph unicode="&#57383;" d="M293 119l0 55c0 2-1 5-3 6c-2 2-4 3-7 3l-54 0c-3 0-5-1-7-3c-2-1-3-4-3-6l0-55c0-3 1-5 3-7c2-1 4-2 7-2l54 0c3 0 5 1 7 2c2 2 3 4 3 7z m73 192c0 17-6 32-16 46c-11 15-24 26-40 34c-16 7-32 11-48 11c-47 0-82-20-106-61c-3-4-2-8 2-12l38-28c1-1 3-2 5-2c3 0 6 1 7 4c10 13 19 21 25 26c6 4 15 7 24 7c10 0 18-3 25-8c7-5 11-10 11-17c0-7-2-13-6-17c-4-4-10-9-20-13c-12-5-23-13-33-25c-10-11-15-23-15-35l0-11c0-2 1-5 3-6c2-2 4-3 7-3l54 0c3 0 5 1 7 3c2 1 3 4 3 6c0 4 2 9 6 14c4 6 9 11 15 15c6 3 11 6 14 8c4 2 8 5 13 10c6 4 10 9 13 13c3 5 6 11 8 18c3 7 4 14 4 23z m109-55c0-40-9-77-29-110c-20-34-46-60-80-80c-33-20-70-29-110-29c-40 0-77 9-110 29c-34 20-60 46-80 80c-20 33-29 70-29 110c0 40 9 77 29 110c20 34 46 60 80 80c33 20 70 29 110 29c40 0 77-9 110-29c34-20 60-46 80-80c20-33 29-70 29-110z"/>
<glyph unicode="&#57384;" d="M365 191c0 5-2 10-6 13l-51 52l51 52c4 3 6 8 6 13c0 5-2 9-6 13l-25 25c-4 4-8 6-13 6c-5 0-10-2-13-6l-52-51l-52 51c-3 4-8 6-13 6c-5 0-9-2-13-6l-25-25c-4-4-6-8-6-13c0-5 2-10 6-13l51-52l-51-52c-4-3-6-8-6-13c0-5 2-9 6-13l25-25c4-4 8-6 13-6c5 0 10 2 13 6l52 51l52-51c3-4 8-6 13-6c5 0 9 2 13 6l25 25c4 4 6 8 6 13z m110 65c0-40-9-77-29-110c-20-34-46-60-80-80c-33-20-70-29-110-29c-40 0-77 9-110 29c-34 20-60 46-80 80c-20 33-29 70-29 110c0 40 9 77 29 110c20 34 46 60 80 80c33 20 70 29 110 29c40 0 77-9 110-29c34-20 60-46 80-80c20-33 29-70 29-110z"/>
<glyph unicode="&#57385;" d="M329 119l0 46c0 2-1 4-2 6c-2 2-4 3-7 3l-27 0l0 146c0 3-1 5-3 7c-2 1-4 2-7 2l-91 0c-3 0-5-1-7-2c-1-2-2-4-2-7l0-46c0-2 1-5 2-6c2-2 4-3 7-3l27 0l0-91l-27 0c-3 0-5-1-7-3c-1-2-2-4-2-6l0-46c0-3 1-5 2-7c2-1 4-2 7-2l128 0c3 0 5 1 7 2c1 2 2 4 2 7z m-36 256l0 46c0 2-1 4-3 6c-2 2-4 3-7 3l-54 0c-3 0-5-1-7-3c-2-2-3-4-3-6l0-46c0-3 1-5 3-7c2-1 4-2 7-2l54 0c3 0 5 1 7 2c2 2 3 4 3 7z m182-119c0-40-9-77-29-110c-20-34-46-60-80-80c-33-20-70-29-110-29c-40 0-77 9-110 29c-34 20-60 46-80 80c-20 33-29 70-29 110c0 40 9 77 29 110c20 34 46 60 80 80c33 20 70 29 110 29c40 0 77-9 110-29c34-20 60-46 80-80c20-33 29-70 29-110z"/>
<glyph unicode="&#57386;" d="M384 238l0 36c0 5-2 10-5 13c-4 4-8 6-13 6l-220 0c-5 0-9-2-13-6c-3-3-5-8-5-13l0-36c0-5 2-10 5-13c4-4 8-6 13-6l220 0c5 0 9 2 13 6c3 3 5 8 5 13z m91 18c0-40-9-77-29-110c-20-34-46-60-80-80c-33-20-70-29-110-29c-40 0-77 9-110 29c-34 20-60 46-80 80c-20 33-29 70-29 110c0 40 9 77 29 110c20 34 46 60 80 80c33 20 70 29 110 29c40 0 77-9 110-29c34-20 60-46 80-80c20-33 29-70 29-110z"/>
<glyph unicode="&#57387;" d="M384 238l0 36c0 5-2 10-5 13c-4 4-8 6-13 6l-73 0l0 73c0 5-2 9-6 13c-3 3-8 5-13 5l-36 0c-5 0-10-2-13-5c-4-4-6-8-6-13l0-73l-73 0c-5 0-9-2-13-6c-3-3-5-8-5-13l0-36c0-5 2-10 5-13c4-4 8-6 13-6l73 0l0-73c0-5 2-9 6-13c3-3 8-5 13-5l36 0c5 0 10 2 13 5c4 4 6 8 6 13l0 73l73 0c5 0 9 2 13 6c3 3 5 8 5 13z m91 18c0-40-9-77-29-110c-20-34-46-60-80-80c-33-20-70-29-110-29c-40 0-77 9-110 29c-34 20-60 46-80 80c-20 33-29 70-29 110c0 40 9 77 29 110c20 34 46 60 80 80c33 20 70 29 110 29c40 0 77-9 110-29c34-20 60-46 80-80c20-33 29-70 29-110z"/>
<glyph unicode="&#57388;" d="M171 341c0-14-5-26-15-36c-10-10-22-15-37-15c-14 0-26 5-36 15c-10 10-15 22-15 36c0 15 5 27 15 37c10 10 22 15 36 15c15 0 27-5 37-15c10-10 15-22 15-37z m273-102l0-120l-376 0l0 52l86 85l42-43l137 137z m25 188l-426 0c-3 0-5-1-6-3c-2-2-3-4-3-6l0-324c0-2 1-4 3-6c1-2 3-3 6-3l426 0c3 0 5 1 6 3c2 2 3 4 3 6l0 324c0 2-1 4-3 6c-1 2-3 3-6 3z m43-9l0-324c0-12-4-22-13-30c-8-9-18-13-30-13l-426 0c-12 0-22 4-30 13c-9 8-13 18-13 30l0 324c0 12 4 22 13 30c8 9 18 13 30 13l426 0c12 0 22-4 30-13c9-8 13-18 13-30z"/>
<glyph unicode="&#57389;" d="M512 411l0-310c0-8-4-14-11-17c-3-1-5-2-7-2c-5 0-10 2-13 6l-115 115l0-48c0-22-8-42-24-58c-17-16-36-24-59-24l-201 0c-22 0-42 8-58 24c-16 16-24 36-24 58l0 202c0 22 8 42 24 58c16 16 36 24 58 24l201 0c23 0 42-8 59-24c16-16 24-36 24-58l0-48l115 115c3 4 8 6 13 6c2 0 4-1 7-2c7-3 11-9 11-17z"/>
<glyph unicode="&#57390;" d="M183 293l146 0l0 54c0 21-7 38-21 52c-15 14-32 22-52 22c-20 0-37-8-52-22c-14-14-21-31-21-52z m238-28l0-164c0-8-3-15-8-20c-6-5-12-8-20-8l-274 0c-8 0-14 3-20 8c-5 5-8 12-8 20l0 164c0 8 3 14 8 20c6 5 12 8 20 8l9 0l0 54c0 35 13 66 38 91c25 25 55 37 90 37c35 0 65-12 90-37c25-25 38-56 38-91l0-54l9 0c8 0 14-3 20-8c5-6 8-12 8-20z"/>
<glyph unicode="&#57391;" d="M468 210c0-1 0-1 0-2c-12-51-38-92-77-124c-38-32-84-47-136-47c-28 0-55 5-81 15c-26 11-49 26-69 45l-37-37c-4-3-8-5-13-5c-5 0-9 2-13 5c-4 4-5 8-5 13l0 128c0 5 1 9 5 13c4 4 8 5 13 5l128 0c5 0 9-1 13-5c3-4 5-8 5-13c0-5-2-9-5-13l-39-39c13-12 28-22 46-29c17-7 35-10 53-10c26 0 49 6 71 18c23 13 40 30 54 51c2 4 7 15 15 34c1 4 4 6 8 6l55 0c3 0 5 0 7-2c1-2 2-4 2-7z m7 229l0-128c0-5-1-9-5-13c-4-4-8-5-13-5l-128 0c-5 0-9 1-13 5c-3 4-5 8-5 13c0 5 2 9 5 13l40 39c-28 26-62 39-100 39c-26 0-49-6-71-18c-23-13-40-30-54-51c-2-4-7-15-15-34c-1-4-4-6-8-6l-57 0c-3 0-5 0-7 2c-1 2-2 4-2 7l0 2c12 51 38 92 77 124c39 32 85 47 137 47c28 0 55-5 81-15c26-11 50-26 70-45l37 37c4 3 8 5 13 5c5 0 9-2 13-5c4-4 5-8 5-13z"/>
<glyph unicode="&#57392;" d="M475 439l0-128c0-5-1-9-5-13c-4-4-8-5-13-5l-128 0c-8 0-13 3-17 11c-3 7-2 14 4 20l40 39c-28 26-62 39-100 39c-20 0-39-4-57-11c-18-8-33-18-46-32c-14-13-24-28-32-46c-7-18-11-37-11-57c0-20 4-39 11-57c8-18 18-33 32-46c13-14 28-24 46-32c18-7 37-11 57-11c23 0 44 5 64 15c20 9 38 23 51 42c2 1 4 3 7 3c3 0 5-1 7-3l39-39c2-2 3-3 3-6c0-2-1-4-2-6c-21-25-46-45-76-59c-29-14-60-20-93-20c-30 0-58 5-85 17c-27 12-51 27-70 47c-20 19-35 43-47 70c-12 27-17 55-17 85c0 30 5 58 17 85c12 27 27 51 47 70c19 20 43 35 70 47c27 12 55 17 85 17c28 0 55-5 81-15c26-11 50-26 70-45l37 37c6 6 12 7 20 4c8-4 11-9 11-17z"/>
<glyph unicode="&#57393;" d="M375 256c0-7-3-12-9-16l-156-91c-3-2-6-3-9-3c-3 0-6 1-9 3c-6 3-9 9-9 16l0 182c0 7 3 13 9 16c6 4 12 4 18 0l156-91c6-4 9-9 9-16z m36 0c0 28-7 54-20 78c-14 24-33 43-57 57c-24 13-50 20-78 20c-28 0-54-7-78-20c-24-14-43-33-57-57c-13-24-20-50-20-78c0-28 7-54 20-78c14-24 33-43 57-57c24-13 50-20 78-20c28 0 54 7 78 20c24 14 43 33 57 57c13 24 20 50 20 78z m64 0c0-40-9-77-29-110c-20-34-46-60-80-80c-33-20-70-29-110-29c-40 0-77 9-110 29c-34 20-60 46-80 80c-20 33-29 70-29 110c0 40 9 77 29 110c20 34 46 60 80 80c33 20 70 29 110 29c40 0 77-9 110-29c34-20 60-46 80-80c20-33 29-70 29-110z"/>
<glyph unicode="&#57394;" d="M356 262c-2-4-4-6-9-6l-54 0l0-101c0-2-1-4-3-6c-2-2-4-3-7-3l-54 0c-3 0-5 1-7 3c-2 2-3 4-3 6l0 101l-54 0c-3 0-5 1-7 3c-2 1-3 3-3 6c0 2 1 5 3 7l91 91c3 2 5 3 7 3c2 0 4-1 7-3l91-91c3-3 4-7 2-10z m-100 149c-28 0-54-7-78-20c-24-14-43-33-57-57c-13-24-20-50-20-78c0-28 7-54 20-78c14-24 33-43 57-57c24-13 50-20 78-20c28 0 54 7 78 20c24 14 43 33 57 57c13 24 20 50 20 78c0 28-7 54-20 78c-14 24-33 43-57 57c-24 13-50 20-78 20z m219-155c0-40-9-77-29-110c-20-34-46-60-80-80c-33-20-70-29-110-29c-40 0-77 9-110 29c-34 20-60 46-80 80c-20 33-29 70-29 110c0 40 9 77 29 110c20 34 46 60 80 80c33 20 70 29 110 29c40 0 77-9 110-29c34-20 60-46 80-80c20-33 29-70 29-110z"/>
<glyph unicode="&#57395;" d="M357 247c0-2-1-5-3-7l-91-91c-3-2-5-3-7-3c-2 0-4 1-7 3l-91 91c-3 3-4 7-2 10c2 4 4 6 9 6l54 0l0 101c0 2 1 4 3 6c2 2 4 3 7 3l54 0c3 0 5-1 7-3c2-2 3-4 3-6l0-101l54 0c3 0 5-1 7-3c2-1 3-3 3-6z m-101 164c-28 0-54-7-78-20c-24-14-43-33-57-57c-13-24-20-50-20-78c0-28 7-54 20-78c14-24 33-43 57-57c24-13 50-20 78-20c28 0 54 7 78 20c24 14 43 33 57 57c13 24 20 50 20 78c0 28-7 54-20 78c-14 24-33 43-57 57c-24 13-50 20-78 20z m219-155c0-40-9-77-29-110c-20-34-46-60-80-80c-33-20-70-29-110-29c-40 0-77 9-110 29c-34 20-60 46-80 80c-20 33-29 70-29 110c0 40 9 77 29 110c20 34 46 60 80 80c33 20 70 29 110 29c40 0 77-9 110-29c34-20 60-46 80-80c20-33 29-70 29-110z"/>
<glyph unicode="&#57396;" d="M421 229l0-138c0-5-2-9-6-12c-3-4-8-6-13-6l-109 0l0 110l-74 0l0-110l-109 0c-5 0-10 2-13 6c-4 3-6 7-6 12l0 138c0 0 0 0 1 0c0 1 0 1 0 1l164 136l164-136c0 0 1-1 1-1z m63 19l-17-21c-2-2-4-3-6-3l-1 0c-3 0-5 1-6 2l-198 165l-198-165c-2-2-4-2-7-2c-2 0-4 1-6 3l-17 21c-2 2-2 4-2 7c0 3 1 5 3 6l205 171c6 5 14 8 22 8c8 0 16-3 22-8l69-58l0 56c0 2 1 5 3 6c2 2 4 3 7 3l54 0c3 0 5-1 7-3c2-1 3-4 3-6l0-117l62-52c2-1 3-3 3-6c0-3 0-5-2-7z"/>
<glyph unicode="&#57397;" d="M311 283l0-18c0-2-1-4-3-6c-2-2-4-3-6-3l-165 0c-2 0-4 1-6 3c-2 2-3 4-3 6l0 18c0 3 1 5 3 7c2 2 4 3 6 3l165 0c2 0 4-1 6-3c2-2 3-4 3-7z m36-9c0 36-12 66-37 91c-25 25-55 37-91 37c-35 0-65-12-90-37c-25-25-38-55-38-91c0-35 13-65 38-90c25-25 55-38 90-38c36 0 66 13 91 38c25 25 37 55 37 90z m147-237c0-11-4-19-11-26c-7-7-16-11-26-11c-10 0-19 4-26 11l-98 98c-34-24-72-36-114-36c-27 0-53 5-78 16c-25 11-46 25-64 43c-18 18-32 39-43 64c-10 25-16 51-16 78c0 28 6 54 16 78c11 25 25 47 43 65c18 18 39 32 64 43c25 10 51 15 78 15c28 0 54-5 79-15c24-11 46-25 64-43c18-18 32-40 43-65c10-24 16-50 16-78c0-42-12-80-36-114l98-98c7-7 11-15 11-25z"/>
<glyph unicode="&#57398;" d="M311 283l0-18c0-2-1-4-3-6c-2-2-4-3-6-3l-64 0l0-64c0-2-1-5-3-6c-2-2-4-3-6-3l-19 0c-2 0-4 1-6 3c-2 1-3 4-3 6l0 64l-64 0c-2 0-4 1-6 3c-2 2-3 4-3 6l0 18c0 3 1 5 3 7c2 2 4 3 6 3l64 0l0 64c0 2 1 4 3 6c2 2 4 3 6 3l19 0c2 0 4-1 6-3c2-2 3-4 3-6l0-64l64 0c2 0 4-1 6-3c2-2 3-4 3-7z m36-9c0 36-12 66-37 91c-25 25-55 37-91 37c-35 0-65-12-90-37c-25-25-38-55-38-91c0-35 13-65 38-90c25-25 55-38 90-38c36 0 66 13 91 38c25 25 37 55 37 90z m147-237c0-11-4-19-11-26c-7-7-16-11-26-11c-10 0-19 4-26 11l-98 98c-34-24-72-36-114-36c-27 0-53 5-78 16c-25 11-46 25-64 43c-18 18-32 39-43 64c-10 25-16 51-16 78c0 28 6 54 16 78c11 25 25 47 43 65c18 18 39 32 64 43c25 10 51 15 78 15c28 0 54-5 79-15c24-11 46-25 64-43c18-18 32-40 43-65c10-24 16-50 16-78c0-42-12-80-36-114l98-98c7-7 11-15 11-25z"/>
<glyph unicode="&#57399;" d="M426 134c0-7-3-14-8-19l-39-39c-5-5-12-8-20-8c-7 0-14 3-19 8l-84 84l-84-84c-5-5-12-8-19-8c-8 0-15 3-20 8l-39 39c-5 5-8 12-8 19c0 8 3 14 8 20l84 84l-84 84c-5 5-8 12-8 19c0 8 3 14 8 20l39 38c5 6 12 8 20 8c7 0 14-2 19-8l84-84l84 84c5 6 12 8 19 8c8 0 15-2 20-8l39-38c5-6 8-12 8-20c0-7-3-14-8-19l-84-84l84-84c5-6 8-12 8-20z"/>
<glyph unicode="&#57400;" d="M477 350c0-7-2-14-8-19l-206-207l-39-39c-6-5-12-8-20-8c-7 0-14 3-19 8l-142 142c-6 6-8 12-8 20c0 7 2 14 8 19l38 39c6 5 12 8 20 8c7 0 14-3 19-8l84-84l188 188c5 5 12 8 19 8c8 0 14-3 20-8l38-39c6-6 8-12 8-20z"/>
<glyph unicode="&#57401;" d="M146 155l0-54c0-8-2-15-8-20c-5-5-12-8-19-8l-92 0c-7 0-14 3-19 8c-5 5-8 12-8 20l0 54c0 8 3 15 8 20c5 5 12 8 19 8l92 0c7 0 14-3 19-8c6-5 8-12 8-20z m0 147l0-55c0-8-2-14-8-20c-5-5-12-8-19-8l-92 0c-7 0-14 3-19 8c-5 6-8 12-8 20l0 55c0 7 3 14 8 19c5 5 12 8 19 8l92 0c7 0 14-3 19-8c6-5 8-12 8-19z m183-147l0-54c0-8-3-15-8-20c-5-5-12-8-19-8l-92 0c-7 0-14 3-19 8c-5 5-8 12-8 20l0 54c0 8 3 15 8 20c5 5 12 8 19 8l92 0c7 0 14-3 19-8c5-5 8-12 8-20z m-183 293l0-55c0-7-2-14-8-19c-5-6-12-8-19-8l-92 0c-7 0-14 2-19 8c-5 5-8 12-8 19l0 55c0 8 3 14 8 19c5 6 12 8 19 8l92 0c7 0 14-2 19-8c6-5 8-11 8-19z m183-146l0-55c0-8-3-14-8-20c-5-5-12-8-19-8l-92 0c-7 0-14 3-19 8c-5 6-8 12-8 20l0 55c0 7 3 14 8 19c5 5 12 8 19 8l92 0c7 0 14-3 19-8c5-5 8-12 8-19z m183-147l0-54c0-8-3-15-8-20c-5-5-12-8-19-8l-92 0c-7 0-14 3-19 8c-6 5-8 12-8 20l0 54c0 8 2 15 8 20c5 5 12 8 19 8l92 0c7 0 14-3 19-8c5-5 8-12 8-20z m-183 293l0-55c0-7-3-14-8-19c-5-6-12-8-19-8l-92 0c-7 0-14 2-19 8c-5 5-8 12-8 19l0 55c0 8 3 14 8 19c5 6 12 8 19 8l92 0c7 0 14-2 19-8c5-5 8-11 8-19z m183-146l0-55c0-8-3-14-8-20c-5-5-12-8-19-8l-92 0c-7 0-14 3-19 8c-6 6-8 12-8 20l0 55c0 7 2 14 8 19c5 5 12 8 19 8l92 0c7 0 14-3 19-8c5-5 8-12 8-19z m0 146l0-55c0-7-3-14-8-19c-5-6-12-8-19-8l-92 0c-7 0-14 2-19 8c-6 5-8 12-8 19l0 55c0 8 2 14 8 19c5 6 12 8 19 8l92 0c7 0 14-2 19-8c5-5 8-11 8-19z"/>
<glyph unicode="&#57402;" d="M238 219l0-109c0-10-4-19-11-26c-7-7-16-11-26-11l-146 0c-10 0-19 4-26 11c-7 7-11 16-11 26l0 109c0 10 4 19 11 26c7 7 16 11 26 11l146 0c10 0 19-4 26-11c7-7 11-16 11-26z m0 220l0-110c0-10-4-18-11-26c-7-7-16-10-26-10l-146 0c-10 0-19 3-26 10c-7 8-11 16-11 26l0 110c0 10 4 18 11 26c7 7 16 10 26 10l146 0c10 0 19-3 26-10c7-8 11-16 11-26z m256-220l0-109c0-10-4-19-11-26c-7-7-16-11-26-11l-146 0c-10 0-19 4-26 11c-7 7-11 16-11 26l0 109c0 10 4 19 11 26c7 7 16 11 26 11l146 0c10 0 19-4 26-11c7-7 11-16 11-26z m0 220l0-110c0-10-4-18-11-26c-7-7-16-10-26-10l-146 0c-10 0-19 3-26 10c-7 8-11 16-11 26l0 110c0 10 4 18 11 26c7 7 16 10 26 10l146 0c10 0 19-3 26-10c7-8 11-16 11-26z"/>
<glyph unicode="&#57403;" d="M475 82l0 220c-6-7-12-13-19-19c-51-39-92-72-122-97c-10-8-18-14-24-19c-6-4-14-9-24-14c-11-4-21-7-30-7l0 0c-9 0-19 3-30 7c-10 5-18 10-24 14c-6 5-14 11-24 19c-30 25-71 58-122 97c-7 6-13 12-19 19l0-220c0-2 0-4 2-6c2-2 4-3 7-3l420 0c3 0 5 1 7 3c2 2 2 4 2 6z m0 301l0 7c0 0 0 1 0 3c0 3 0 4-1 4c0 0-1 1-1 2c-1 2-2 3-3 3c-1-1-2-1-4 0l-420 0c-3 0-5-1-7-2c-2-2-2-4-2-7c0-32 14-59 42-81c36-29 75-59 114-91c1-1 5-3 10-8c6-5 10-8 13-11c4-2 8-5 13-9c5-3 10-6 14-8c5-1 9-2 13-2l0 0c4 0 8 1 13 2c4 2 9 5 14 8c5 4 9 7 13 9c3 3 7 6 13 11c5 5 9 7 10 8c39 32 78 62 114 91c11 8 20 19 29 33c9 14 13 26 13 38z m37 10l0-311c0-12-4-23-13-32c-9-9-20-13-33-13l-420 0c-13 0-24 4-33 13c-9 9-13 20-13 32l0 311c0 13 4 23 13 32c9 9 20 14 33 14l420 0c13 0 24-5 33-14c9-9 13-19 13-32z"/>
<glyph unicode="&#57404;" d="M512 283l0-54c0-3-1-5-3-7c-1-2-3-3-6-3l-357 0l0-64c0-4-2-6-5-8c-4-1-7-1-10 2l-110 100c-2 1-3 4-3 6c0 3 1 5 3 7l110 101c3 3 6 3 10 2c3-2 5-5 5-8l0-64l357 0c3 0 5-1 6-3c2-2 3-4 3-7z"/>
<glyph unicode="&#57405;" d="M365 371c-2-3-5-5-8-5l-64 0l0-357c0-3-1-5-3-6c-2-2-4-3-7-3l-54 0c-3 0-5 1-7 3c-2 1-3 3-3 6l0 357l-64 0c-4 0-6 2-8 5c-1 4-1 7 2 10l100 110c1 2 4 3 6 3c3 0 5-1 7-3l101-110c3-3 3-6 2-10z"/>
<glyph unicode="&#57406;" d="M365 141c1-4 1-7-2-10l-100-110c-1-2-4-3-6-3c-3 0-5 1-7 3l-101 110c-3 3-3 6-2 10c2 3 5 5 8 5l64 0l0 357c0 3 1 5 3 6c2 2 4 3 7 3l54 0c3 0 5-1 7-3c2-1 3-3 3-6l0-357l64 0c4 0 6-2 8-5z"/>
<glyph unicode="&#57407;" d="M119 439l201 0c2 0 5-1 6-3c2-2 3-4 3-7l0-246l55 0c8 0 13-4 17-11c3-7 2-13-3-19l-91-110c-4-4-9-6-14-6c-6 0-11 2-14 6l-92 110c-5 5-6 12-2 19c3 7 9 11 16 11l55 0l0 183l-91 0c-3 0-5 1-8 3l-45 55c-3 2-3 6-1 9c1 4 4 6 8 6z"/>
<glyph unicode="&#57408;" d="M469 461c12 0 22-4 30-13c9-8 13-18 13-30l0-324c0-12-4-22-13-30c-8-9-18-13-30-13l-426 0c-12 0-22 4-30 13c-9 8-13 18-13 30l0 324c0 12 4 22 13 30c8 9 18 13 30 13z m-426-34c-3 0-5-1-6-3c-2-2-3-4-3-6l0-60l444 0l0 60c0 2-1 4-3 6c-1 2-3 3-6 3z m426-342c3 0 5 1 6 3c2 2 3 4 3 6l0 162l-444 0l0-162c0-2 1-4 3-6c1-2 3-3 6-3z m-401 34l0 35l69 0l0-35z m103 0l0 35l102 0l0-35z"/>
<glyph unicode="&#57409;" d="M292 353l74 0l-9-81l-65 0l0-235l-97 0l0 235l-49 0l0 81l49 0l0 49c0 35 8 61 24 79c17 18 44 26 81 26l65 0l0-81l-40 0c-8 0-14 0-18-2c-5-1-8-3-10-6c-2-4-3-7-4-10c0-3-1-8-1-14z"/>
<glyph unicode="&#57410;" d="M461 435c14 0 26-5 36-15c10-10 15-22 15-36c0 0 0-256 0-256c0-14-5-26-15-36c-10-10-22-15-36-15c0 0-410 0-410 0c-13 0-25 5-36 15c-10 10-15 22-15 36c0 0 0 256 0 256c0 14 5 26 15 36c11 10 23 15 36 15c0 0 410 0 410 0m0-307c0 0 0 154 0 154c0 0-410 0-410 0c0 0 0-154 0-154c0 0 410 0 410 0m0 230c0 0 0 26 0 26c0 0-410 0-410 0c0 0 0-26 0-26c0 0 410 0 410 0m-359-131c0 0 16 0 16 0c0 0 0-15 0-15c0 0-16 0-16 0c0 0 0 15 0 15m93-30c0 0 15 0 15 0c0 0 0 15 0 15c0 0 15 0 15 0c0 0 0 15 0 15c0 0 31 0 31 0c0 0 0-15 0-15c0 0-15 0-15 0c0 0 0-15 0-15c0 0-16 0-16 0c0 0 0-16 0-16c0 0-30 0-30 0c0 0 0 16 0 16m61-16c0 0-15 0-15 0c0 0 0 16 0 16c0 0 15 0 15 0c0 0 0-16 0-16m-77 0c0 0-31 0-31 0c0 0 0 16 0 16c0 0 31 0 31 0c0 0 0-16 0-16m16 31c0 0 0-15 0-15c0 0-16 0-16 0c0 0 0 30 0 30c0 0 31 0 31 0c0 0 0-15 0-15c0 0-15 0-15 0m-62-15c0 0 0-16 0-16c0 0-31 0-31 0c0 0 0 16 0 16c0 0 16 0 16 0c0 0 0 15 0 15c0 0 15 0 15 0c0 0 0 15 0 15c0 0 31 0 31 0c0 0 0-15 0-15c0 0-16 0-16 0c0 0 0-15 0-15c0 0-15 0-15 0"/>
<glyph unicode="&#57411;" d="M256 466c52 0 94-7 127-21c34-14 49-29 47-45c0 0-37-304-37-304c0-5-6-11-17-18c-11-8-28-15-50-22c-22-7-45-10-70-10c-25 0-48 3-70 10c-21 7-38 14-49 22c-12 7-18 13-18 18c0 0-37 304-37 304c-1 10 5 20 18 30c14 9 35 18 62 25c28 7 59 11 94 11m0-111c25 0 48 3 70 8c22 5 39 11 50 17c12 6 17 11 17 15c0 4-5 9-17 15c-11 6-28 11-50 16c-22 6-45 8-70 8c-25 0-48-2-70-8c-22-5-39-10-50-16c-12-6-17-11-17-15c0-4 5-9 17-15c11-6 28-12 50-17c22-5 45-8 70-8"/>
<glyph unicode="&#57412;" d="M480 249c6-6 8-10 6-14c-2-4-6-6-14-6c0 0-43 0-43 0c0 0 0-158 0-158c0-5 0-9 0-11c-1-2-2-5-4-7c-3-2-7-3-12-3c0 0-105 0-105 0c0 0 0 159 0 159c0 0-104 0-104 0c0 0 0-159 0-159c0 0-99 0-99 0c-10 0-16 2-18 5c-3 4-4 9-4 16c0 0 0 158 0 158c0 0-43 0-43 0c-7 0-12 2-14 6c-1 4 0 8 6 14c0 0 205 206 205 206c5 5 12 8 19 8c8 0 14-3 20-8c0 0 204-206 204-206"/>
<glyph unicode="&#57413;" d="M404 321c7 0 14-4 21-10c7-7 10-14 10-21c0 0 0-200 0-200c0-16-8-28-24-34c0 0-31-9-31-9c-14-5-31-8-49-8c0 0-149 0-149 0c-19 0-36 3-50 8c0 0-31 9-31 9c-16 6-24 18-24 34c0 0 0 200 0 200c0 7 2 14 7 21c6 6 12 10 18 10c0 0 52 0 52 0c0 0 0 35 0 35c0 38 8 67 26 87c17 21 43 31 76 31c33 0 59-10 76-31c18-20 26-49 26-87c0 0 0-35 0-35c0 0 46 0 46 0m-199 46c0 0 0-46 0-46c0 0 102 0 102 0c0 0 0 46 0 46c0 17-4 31-14 41c-9 10-21 15-37 15c-16 0-28-5-37-15c-10-10-14-24-14-41"/>
<glyph unicode="&#57414;" d="M404 307c7 0 14-3 21-10c7-7 10-14 10-21c0 0 0-199 0-199c0-7-2-14-7-20c-5-7-11-11-17-13c0 0-31-10-31-10c-18-6-34-8-49-8c0 0-149 0-149 0c-15 0-32 2-50 8c0 0-31 10-31 10c-6 2-12 6-17 13c-5 6-7 13-7 20c0 0 0 199 0 199c0 8 2 15 7 21c6 7 12 10 18 10c0 0 205 0 205 0c0 0 0 72 0 72c0 37-17 56-51 56c-34 0-51-19-51-56c0 0 0-21 0-21c0 0-51 0-51 0c0 0 0 11 0 11c0 37 8 66 26 87c17 20 43 30 76 30c68 0 102-39 102-117c0 0 0-62 0-62c0 0 46 0 46 0"/>
</font>
</defs>
</svg>
